<svg id="Layer_1" data-name="Layer 1" xmlns="http://www.w3.org/2000/svg" viewBox="0 0 667 269"><defs><style>.cls-1{fill:#d4bf26;}.cls-2{fill:#fd0202;}.cls-3{fill:#be9332;}</style></defs><title>arabic-mbok</title><path class="cls-1" d="M580.63,181.06c-3.69,17.93-15.1,28.44-30.77,34.78-1.68.69-3.77.3-5,2.19-8.21,2.22-16.35.44-24.5-.51-8.06-2-13.78-8.37-20.9-12.1a52.92,52.92,0,0,0,5.5-6.91,69.18,69.18,0,0,0,12.37-24.71c4.77,5.76,9.78,11.07,18,10.81,11.56-3.43,16.37-11,15.55-23.88a398.82,398.82,0,0,1,0-41.06c.3-7.64,3-15.4,10.94-17.31,7-1.69,15.21-2.76,18.72,7.25.52.81,1.39,1.55,1.44,2.49C583.25,135.12,585.44,158.17,580.63,181.06Z"/><path class="cls-1" d="M517.36,173.8A69.18,69.18,0,0,1,505,198.51c5.23-7.78,8.51-16.67,11.55-25.71Z"/><path class="cls-2" d="M518.85,167.33c-.42,2.2-.91,4.36-1.49,6.47A69.18,69.18,0,0,1,505,198.51q-2.16,2.73-4.64,5.29c-20.76,17.28-42.29,17.42-64.47,3.17-4.18-1.92-6.91,1.4-10.16,3-8.29,4-16.2,9.66-26.16,7.54-14-1.39-27.92-.65-41.88-.36-27.68.35-55.35-.72-83-.21-28.18.23-56.36.07-84.54.08-9.61,0-18.73-2.14-26.8-7.68-4.83-3.31-9.1-3.19-13.9-.05-9.31,6.1-19.57,8.05-30.53,7.86-20.35-.36-40.71-.13-61.06-.09-7,0-13.57-1.36-19.48-5.46C16,200.31,5.92,181.61,7.21,155.81c.5-10,.35-20.12.5-30.19,3.84-8.15,9.65-13.21,18.71-10.71,9.36,2.57,12.32,10,11.95,19.57-.34,8.83-.2,17.68,0,26.51.24,11.55,7.15,19.17,18.15,19.33,14.71.21,29.42-.19,44.13-.33,5.73-3.66,12.07-1.84,18.14-2.13,12.84-.61,17.93-5.65,18.58-18.9.24-4.77-.68-9.8,2.71-13.91.14-33,.37-66,.37-98.92,0-7.84.19-15.54,3.19-22.87-.54-2.4.78-3.27,2.73-3.61a.73.73,0,0,0,1.18-.17c11.3-4.54,16.31-3.18,22.54,6.09A60.81,60.81,0,0,1,171.82,41q-.1,57.86,0,115.71c0,17.33,6.08,23.68,22.6,23.65q70.84-.15,141.7-.4c3.55-2.81,7.73-2.28,11.75-2.31,13.78-.1,27.56,0,41.34-.05,3.76,0,7.54.15,11.23-.72,6.88-1.62,12.4-4.91,13-13.21.58-7.44-3.7-13.1-11.59-15.64-5.46-1.76-11.1-1.8-16.75-1.83q-50.73-.3-101.45-.28c-7.72,0-15.43-.63-22.71-3.75-9.34-10-9.84-15.63-1.74-26.19q20.4-26.64,41.15-53c10.08-12.76,20.86-11.35,28.58,3.4,5.76,7.21.57,12.88-2.79,18.38-4.86,8-11.77,14.33-16.79,22.34,2.66,3.22,6,1.91,8.86,1.8,28.42-1.1,56.74,2.06,85.13,1.92a4.91,4.91,0,0,1,3.51,1c17.1,3.76,30.34,13,38.53,29.48,4,3.29,5.4,7.87,5.82,12.94.27,3.26.22,6.56,1,9.76,2,8.25,8.38,13.5,15.54,12.86,7.4-.67,13.2-6.51,13.71-14.94.81-13.41.13-26.86.44-40.29.09-3.93,0-7.87,1-11.72,2.22-8.67,7.7-13.62,15.9-14.32,8.73-.75,15,3.35,18.44,12a25.76,25.76,0,0,1,1.87,9.57C519.16,133.92,519.68,150.63,518.85,167.33Z"/><ellipse class="cls-3" cx="535.35" cy="248.43" rx="13.18" ry="13.77"/><ellipse class="cls-2" cx="452.41" cy="61.7" rx="13.18" ry="13.77"/><path class="cls-2" d="M99.61,74.52c-.21,6.11-1.92,9.84-9.07,8.45-4.58-.89-10.42-.6-10.76,6.1-.38,7.55,5.37,8.85,11.08,8.37,7-.58,10.09,1.56,10,9.73,0,8.33-4.12,8.71-10.1,8.62-12.5-.21-25,0-37.52.06-6.17-9.42-4.8-15.39,4.61-18.16,2.93-.87,3.2-2.28,3.07-4.74-.17-3.55-.21-7.09-.31-10.64,5.07-13.73,15.71-17.46,28.54-17.72C96,64.46,100,66.79,99.61,74.52Z"/><path class="cls-1" d="M583.42,48.51c25.89,10.15,43.08,36.8,44.06,64.24.17,4.81,7.67,4.84,7.5,0-1.11-31-20.45-60-49.57-71.47-4.5-1.77-6.44,5.48-2,7.23Z"/><path class="cls-1" d="M583.3,17.91C622.84,32.14,651,71.23,652,113.21c.12,4.81,7.62,4.83,7.5,0-1.13-45.5-31.45-87.14-74.21-102.53-4.55-1.64-6.51,5.61-2,7.23Z"/><path class="cls-1" d="M579.89,73.82c14.12,5.67,23.28,20.08,23.92,35,.21,4.81,7.71,4.84,7.5,0a47.51,47.51,0,0,0-29.42-42.27c-4.48-1.8-6.43,5.45-2,7.23Z"/></svg>