<?xml version="1.0" encoding="utf-8"?>
<!-- Generator: Adobe Illustrator 23.0.5, SVG Export Plug-In . SVG Version: 6.00 Build 0)  -->
<svg version="1.1" id="Layer_1" xmlns="http://www.w3.org/2000/svg" xmlns:xlink="http://www.w3.org/1999/xlink" x="0px" y="0px"
	 width="121.6px" height="41px" viewBox="0 0 121.6 41" style="enable-background:new 0 0 121.6 41;" xml:space="preserve">
<style type="text/css">
	.st0{fill:#7C7F80;}
	.st1{fill:none;stroke:#1A4F69;stroke-width:0.5;stroke-miterlimit:10;}
	.st2{fill:#FFFFFF;}
	.st3{fill:#F86923;stroke:#1A4F69;stroke-width:0.5;stroke-linejoin:round;stroke-miterlimit:10;}
	.st4{fill:#FFFFFF;stroke:#1A4F69;stroke-width:0.5;stroke-miterlimit:10;}
	.st5{fill:#F86923;stroke:#F86923;stroke-width:0.5;stroke-linejoin:round;stroke-miterlimit:10;}
</style>
<g>
	<g>
		<path class="st0" d="M71.8,9.5c-0.9,0-1.7,0.3-2.2,0.9c-0.5,0.7-0.8,1.6-0.8,2.8s0.3,2.1,0.8,2.8c0.5,0.7,1.2,0.9,2.2,0.9
			c0.4,0,0.8,0,1.2-0.1c0.4-0.1,0.8-0.1,1.2-0.3V18c-0.8,0.3-1.7,0.4-2.6,0.4c-1.5,0-2.5-0.4-3.3-1.3S67,15,67,13.2
			c0-1.1,0.1-2,0.5-2.6c0.4-0.8,0.9-1.3,1.6-1.7c0.7-0.4,1.6-0.7,2.5-0.7c1.1,0,2,0.3,2.8,0.7l-0.5,1.3c-0.4-0.1-0.7-0.3-1.1-0.4
			C72.5,9.5,72.1,9.5,71.8,9.5z"/>
		<path class="st0" d="M80.9,18.1l-0.3-1.1l0,0c-0.4,0.4-0.7,0.8-1.1,0.9c-0.5,0.3-1.1,0.3-1.6,0.3c-0.8,0-1.3-0.3-1.7-0.7
			c-0.4-0.4-0.7-0.9-0.7-1.7c0-0.8,0.3-1.3,0.9-1.7c0.5-0.4,1.5-0.7,2.6-0.7h1.3v-0.4c0-0.5-0.1-0.8-0.4-1.1
			c-0.3-0.3-0.5-0.4-1.1-0.4c-0.4,0-0.8,0-1.1,0.1c-0.4,0.1-0.7,0.3-1.1,0.4L76.4,11c0.4-0.3,0.8-0.4,1.3-0.5s0.9-0.1,1.3-0.1
			c0.9,0,1.7,0.3,2.1,0.7c0.5,0.4,0.8,1.1,0.8,2v5h-1.1V18.1z M78.5,17.1c0.5,0,1.1-0.1,1.5-0.5c0.4-0.3,0.5-0.8,0.5-1.3v-0.7h-0.9
			c-0.8,0-1.3,0.1-1.6,0.4c-0.4,0.3-0.5,0.5-0.5,1.1c0,0.4,0.1,0.5,0.3,0.8C77.8,16.9,78.1,17.1,78.5,17.1z"/>
		<path class="st0" d="M89.2,16c0,0.8-0.3,1.3-0.8,1.7c-0.5,0.4-1.2,0.5-2.2,0.5c-1.1,0-1.8-0.1-2.4-0.4v-1.3
			c0.9,0.4,1.7,0.7,2.5,0.7c0.9,0,1.5-0.3,1.5-0.9c0-0.1,0-0.4-0.1-0.5c-0.1-0.1-0.3-0.3-0.5-0.4c-0.3-0.1-0.5-0.3-1.1-0.4
			c-0.9-0.4-1.5-0.7-1.7-1.1c-0.3-0.4-0.4-0.8-0.4-1.3c0-0.7,0.3-1.2,0.8-1.5c0.5-0.4,1.2-0.5,2.1-0.5c0.9,0,1.7,0.1,2.5,0.5
			l-0.5,1.2c-0.8-0.4-1.5-0.5-2-0.5c-0.8,0-1.3,0.3-1.3,0.7c0,0.3,0.1,0.4,0.3,0.7c0.3,0.1,0.7,0.4,1.5,0.7c0.7,0.3,1.1,0.4,1.3,0.7
			c0.3,0.3,0.5,0.4,0.7,0.7C89.2,15.3,89.2,15.6,89.2,16z"/>
		<path class="st0" d="M97.5,18.1h-1.6v-4.6c0-0.5-0.1-1.1-0.4-1.3c-0.3-0.3-0.7-0.4-1.1-0.4c-0.7,0-1.2,0.3-1.5,0.7
			c-0.3,0.4-0.5,1.1-0.5,2v3.7h-1.6V7.6h1.6v2.6c0,0.4,0,0.9-0.1,1.3h0.1c0.3-0.4,0.5-0.7,0.9-0.8c0.4-0.3,0.8-0.3,1.3-0.3
			c1.8,0,2.8,0.9,2.8,2.8C97.5,13.2,97.5,18.1,97.5,18.1z"/>
		<path class="st0" d="M110.1,14.4c0,1.2-0.3,2.1-0.9,2.9c-0.7,0.7-1.5,1.1-2.6,1.1c-0.7,0-1.3-0.1-1.8-0.5
			c-0.5-0.4-0.9-0.8-1.2-1.3c-0.3-0.5-0.4-1.3-0.4-2.1c0-1.2,0.3-2.1,0.9-2.9c0.7-0.7,1.5-1.1,2.6-1.1c1.1,0,2,0.4,2.5,1.1
			C109.7,12.3,110.1,13.2,110.1,14.4z M104.5,14.4c0,1.7,0.7,2.6,2,2.6s1.8-0.9,1.8-2.6s-0.7-2.5-1.8-2.5c-0.7,0-1.2,0.3-1.5,0.7
			C104.6,13,104.5,13.6,104.5,14.4z"/>
		<path class="st0" d="M118.4,18.1h-1.6v-4.6c0-0.5-0.1-1.1-0.4-1.3c-0.3-0.3-0.7-0.4-1.1-0.4c-0.7,0-1.2,0.3-1.5,0.7
			c-0.3,0.4-0.5,1.1-0.5,2v3.7h-1.6v-7.5h1.2l0.3,0.9h0.1c0.3-0.4,0.5-0.7,0.9-0.8s0.9-0.3,1.3-0.3c1.8,0,2.6,0.9,2.6,2.8v4.9H118.4
			z"/>
		<path class="st0" d="M75.6,29c0,1.6-0.4,2.9-1.3,3.7c-0.9,0.9-2.2,1.3-4,1.3h-2.8v-9.9h3c1.6,0,2.8,0.4,3.7,1.3
			C75.2,26.3,75.6,27.5,75.6,29z M73.9,29.1c0-2.4-1.1-3.6-3.3-3.6h-1.5v7.1h1.2C72.7,32.7,73.9,31.5,73.9,29.1z"/>
		<path class="st0" d="M80.9,34.1c-1.2,0-2.1-0.4-2.8-1.1s-0.9-1.6-0.9-2.8s0.3-2.2,0.9-2.9c0.7-0.7,1.5-1.1,2.5-1.1
			c0.9,0,1.7,0.3,2.4,0.9c0.5,0.7,0.9,1.5,0.9,2.5v0.9h-5c0,0.8,0.3,1.3,0.5,1.7c0.4,0.4,0.9,0.5,1.6,0.5c0.4,0,0.8,0,1.2-0.1
			c0.4-0.1,0.8-0.3,1.2-0.4v1.3c-0.4,0.1-0.8,0.3-1.2,0.4C81.8,34.1,81.4,34.1,80.9,34.1z M80.5,27.6c-0.5,0-0.9,0.1-1.2,0.5
			c-0.3,0.3-0.5,0.8-0.5,1.5h3.4c0-0.7-0.1-1.1-0.4-1.5C81.5,27.8,81,27.6,80.5,27.6z"/>
		<path class="st0" d="M87.1,34h-1.6V23.4h1.6V34z"/>
		<path class="st0" d="M89.3,24.6c0-0.3,0.1-0.5,0.3-0.7c0.1-0.1,0.4-0.3,0.7-0.3c0.3,0,0.5,0.1,0.7,0.3c0.1,0.1,0.3,0.4,0.3,0.7
			c0,0.3-0.1,0.5-0.3,0.7s-0.4,0.3-0.7,0.3c-0.3,0-0.5-0.1-0.7-0.3C89.5,25,89.3,24.9,89.3,24.6z M91,34h-1.6v-7.5H91V34z"/>
		<path class="st0" d="M95,34l-2.9-7.5h1.7l1.6,4.4c0.3,0.8,0.4,1.3,0.5,1.7l0,0c0-0.3,0.1-0.9,0.5-1.7l1.6-4.4h1.7l-3,7.5H95z"/>
		<path class="st0" d="M104,34.1c-1.2,0-2.1-0.4-2.8-1.1s-0.9-1.6-0.9-2.8s0.3-2.2,0.9-2.9c0.7-0.7,1.5-1.1,2.5-1.1
			c0.9,0,1.7,0.3,2.4,0.9c0.5,0.7,0.9,1.5,0.9,2.5v0.9h-5c0,0.8,0.3,1.3,0.5,1.7c0.4,0.4,0.9,0.5,1.6,0.5c0.4,0,0.8,0,1.2-0.1
			c0.4-0.1,0.8-0.3,1.2-0.4v1.3c-0.4,0.1-0.8,0.3-1.2,0.4C104.9,34.1,104.5,34.1,104,34.1z M103.7,27.6c-0.5,0-0.9,0.1-1.2,0.5
			c-0.3,0.3-0.5,0.8-0.5,1.5h3.4c0-0.7-0.1-1.1-0.4-1.5S104.3,27.6,103.7,27.6z"/>
		<path class="st0" d="M112.4,26.4c0.3,0,0.5,0,0.8,0.1l-0.1,1.5c-0.3,0-0.4-0.1-0.7-0.1c-0.7,0-1.2,0.3-1.6,0.7
			c-0.4,0.4-0.5,0.9-0.5,1.6v4h-1.6v-7.5h1.2l0.3,1.3h0.1c0.3-0.4,0.5-0.8,0.9-1.1C111.6,26.6,112,26.4,112.4,26.4z"/>
		<path class="st0" d="M113.5,26.6h1.7l1.6,4.2c0.3,0.7,0.4,1.2,0.4,1.7l0,0c0-0.3,0.1-0.5,0.3-0.9s0.7-2,1.7-5h1.7l-3.2,8.5
			c-0.5,1.6-1.6,2.4-2.9,2.4c-0.4,0-0.7,0-1.1-0.1V36c0.3,0,0.5,0.1,0.8,0.1c0.8,0,1.3-0.4,1.6-1.3l0.3-0.7L113.5,26.6z"/>
	</g>
	<line class="st1" x1="14.3" y1="14.6" x2="9.4" y2="14.6"/>
	<line class="st1" x1="11.4" y1="18.5" x2="0.7" y2="18.5"/>
	<line class="st1" x1="5.5" y1="14.6" x2="7.4" y2="14.6"/>
	<rect x="15.2" y="9.3" class="st2" width="44.1" height="25.5"/>
	<polyline class="st1" points="15.8,25.9 15.8,8.7 59.9,8.7 59.9,34.2 15.8,34.2 15.8,28.8 	"/>
	<path class="st3" d="M52,29.4H23.6l0,0c0,0-0.9-2.9-2.8-2.9l0,0v-9.8l0,0c1.6,0,2.9-1.1,2.9-2.9l0,0h28.4c0,2,1.1,3,3,3v9.8l0,0
		C55,26.4,52,27.4,52,29.4L52,29.4z"/>
	<line class="st1" x1="26.1" y1="21.4" x2="28.1" y2="21.4"/>
	<line class="st1" x1="46.7" y1="21.4" x2="48.7" y2="21.4"/>
	<ellipse class="st4" cx="37.7" cy="21.6" rx="5.4" ry="6.1"/>
	<line class="st1" x1="18.3" y1="25.4" x2="5.5" y2="25.4"/>
	<path class="st5" d="M40.3,23.2c0,0.6-0.2,1-0.6,1.4s-1,0.6-1.7,0.7v1.5h-0.5v-1.5c-0.4,0-0.8-0.1-1.3-0.1
		c-0.5-0.1-0.8-0.2-1.1-0.3v-0.7c0.3,0.2,0.7,0.3,1.1,0.4c0.4,0.1,0.8,0.2,1.2,0.2v-3.2c-0.6-0.2-1.1-0.4-1.4-0.6
		c-0.3-0.2-0.5-0.4-0.6-0.7s-0.2-0.6-0.2-0.9c0-0.5,0.2-1,0.6-1.3c0.4-0.4,0.9-0.6,1.6-0.7v-1.2H38v1.2c0.8,0,1.6,0.2,2.2,0.5
		L40,18.4c-0.6-0.3-1.3-0.4-2-0.5V21c0.9,0.3,1.5,0.6,1.9,0.9C40.1,22.2,40.3,22.6,40.3,23.2z M35.9,19.3c0,0.4,0.1,0.7,0.4,0.9
		c0.2,0.2,0.6,0.4,1.2,0.6v-2.9c-0.5,0.1-0.9,0.2-1.1,0.5C36.1,18.7,35.9,19,35.9,19.3z M39.6,23.2c0-0.4-0.1-0.7-0.4-0.9
		c-0.3-0.2-0.7-0.4-1.3-0.6v3c0.5-0.1,0.9-0.2,1.2-0.5C39.5,23.9,39.6,23.6,39.6,23.2z"/>
</g>
</svg>
