<svg id="Layer_1" data-name="Layer 1" xmlns="http://www.w3.org/2000/svg" width="174.39" height="47.32" viewBox="0 0 174.39 47.32"><defs><style>.cls-1{fill:#2e75b5;stroke:#fff;stroke-miterlimit:10;stroke-width:0.25px;}</style></defs><title>syberlogo</title><rect class="cls-1" x="2.85" y="8.09" width="17.03" height="17.03" rx="4.09"/><rect class="cls-1" x="14.43" y="23.07" width="17.03" height="17.03" rx="4.09"/><rect class="cls-1" x="0.13" y="27.84" width="17.03" height="17.03" rx="4.09"/><rect class="cls-1" x="15.48" y="3.56" width="17.03" height="17.03" rx="4.09" transform="translate(-1.88 18.9) rotate(-45)"/><path class="cls-1" d="M49.63,19.1a11.31,11.31,0,0,0-5.17-1.34c-2.24,0-3.8,1.26-3.8,3,0,1.57.8,2.24,3.52,2.91,3.65.94,4.57,1.37,5.77,2.74a7.78,7.78,0,0,1,1.88,5.22c0,4.94-3.76,8.28-9.37,8.28a21.49,21.49,0,0,1-6.81-1.26V33.1a17.41,17.41,0,0,0,6.89,1.73c2.28,0,3.76-1.22,3.76-3a2.37,2.37,0,0,0-1.52-2.32,17.32,17.32,0,0,0-2.72-.78c-3-.75-4.68-1.81-5.77-3.61a7.72,7.72,0,0,1-1.08-4,8.41,8.41,0,0,1,4-7.1,9.91,9.91,0,0,1,5.2-1.18,18.34,18.34,0,0,1,5.25.79Z" transform="translate(-0.37 -1.6)"/><path class="cls-1" d="M69.73,39.22c0,3.69-.25,4.71-1.45,6.36a7.87,7.87,0,0,1-6.36,3.21,8,8,0,0,1-6.49-3.41A7.74,7.74,0,0,1,54,41h4.88c.12,2.12,1.29,3.37,3,3.37a2.9,2.9,0,0,0,2.6-1.57,5.14,5.14,0,0,0,.4-2.62v-1.5a6.8,6.8,0,0,1-9.49-2.7c-.64-1.34-.76-2.28-.76-5.46V22.63h4.76v7.8a9.28,9.28,0,0,0,.17,2.79,2.7,2.7,0,0,0,2.56,1.88,2.73,2.73,0,0,0,2.6-1.84,11.28,11.28,0,0,0,.16-2.75V22.63h4.89Z" transform="translate(-0.37 -1.6)"/><path class="cls-1" d="M78.09,13.29V23.57A8.55,8.55,0,0,1,90.9,31,8.83,8.83,0,0,1,82,39.73a8.92,8.92,0,0,1-7.45-4c-1.08-1.65-1.4-3-1.4-5.92V13.29Zm0,17.77a4,4,0,1,0,4-4A4,4,0,0,0,78.05,31.06Z" transform="translate(-0.37 -1.6)"/><path class="cls-1" d="M109.76,34a8.7,8.7,0,1,1-8.25-11.53c4.49,0,8.57,3.57,8.57,7.45,0,1.77-1.52,2.95-3.84,2.95H98a3.66,3.66,0,0,0,3.52,2.35A3.7,3.7,0,0,0,104.24,34Zm-4.88-4.62a3.49,3.49,0,0,0-3.49-2.44,3.72,3.72,0,0,0-3.6,2.44Z" transform="translate(-0.37 -1.6)"/><path class="cls-1" d="M112.72,39.46V30.87c0-2.63.12-3.42.72-4.59,1.29-2.48,3.49-3.65,6.77-3.65a7.26,7.26,0,0,1,.8,0V27.1h-.6c-2.2,0-2.8.67-2.8,2.71v9.65Z" transform="translate(-0.37 -1.6)"/><path class="cls-1" d="M120.87,39.46V18.82c0-4.23,1.48-5.57,6.24-5.57,3.65,0,5.65.59,7.25,2.16A7.68,7.68,0,0,1,136.72,21a7.87,7.87,0,0,1-5.4,7.53,16.58,16.58,0,0,1-5,.55V39.46ZM127,24a7.23,7.23,0,0,0,2.61-.31,2.78,2.78,0,0,0,1.68-2.51,2.75,2.75,0,0,0-1.76-2.55,7.3,7.3,0,0,0-2.57-.24h-.6V24Z" transform="translate(-0.37 -1.6)"/><path class="cls-1" d="M151.22,39.46V38.08a7.85,7.85,0,0,1-4.57,1.57,8.67,8.67,0,0,1-8.33-8.59,8.8,8.8,0,0,1,8.89-8.63,9,9,0,0,1,7.13,3.49c1.32,1.73,1.8,3.34,1.8,6.16v7.38Zm-8-8.4a4,4,0,1,0,4-4A4,4,0,0,0,143.25,31.06Z" transform="translate(-0.37 -1.6)"/><path class="cls-1" d="M174.64,39.22c0,3.69-.24,4.71-1.44,6.36a7.9,7.9,0,0,1-6.37,3.21,8,8,0,0,1-6.49-3.41A7.74,7.74,0,0,1,158.86,41h4.89c.12,2.12,1.28,3.37,3,3.37a2.9,2.9,0,0,0,2.6-1.57,5.14,5.14,0,0,0,.4-2.62v-1.5a6.8,6.8,0,0,1-9.49-2.7c-.64-1.34-.76-2.28-.76-5.46V22.63h4.77v7.8a9.84,9.84,0,0,0,.16,2.79A2.7,2.7,0,0,0,167,35.1a2.73,2.73,0,0,0,2.6-1.84,11.28,11.28,0,0,0,.16-2.75V22.63h4.89Z" transform="translate(-0.37 -1.6)"/></svg>