<?xml version="1.0" encoding="utf-8"?>
<!-- Generator: Adobe Illustrator 23.0.5, SVG Export Plug-In . SVG Version: 6.00 Build 0)  -->
<svg version="1.1" id="Layer_1" xmlns="http://www.w3.org/2000/svg" xmlns:xlink="http://www.w3.org/1999/xlink" x="0px" y="0px"
	 width="500px" height="500px" viewBox="0 0 500 500" style="enable-background:new 0 0 500 500;" xml:space="preserve">
<style type="text/css">
	.st0{fill:#EBEBEB;}
	.st1{fill:#E0E0E0;}
	.st2{fill:#F0F0F0;}
	.st3{fill:#FFFFFF;}
	.st4{fill:#FAFAFA;}
	.st5{fill:#263238;}
	.st6{fill:#7952B3;stroke:#263238;stroke-width:1.004;stroke-miterlimit:10;}
	.st7{opacity:0.3;}
	.st8{fill:#613D99;stroke:#263238;stroke-width:1.004;stroke-miterlimit:10;}
	.st9{opacity:0.1;enable-background:new    ;}
	.st10{fill:#7952B3;}
	.st11{fill:#2F55D4;}
	.st12{opacity:0.1;}
	.st13{opacity:0.2;}
	.st14{fill:#7952B3;stroke:#000000;stroke-width:0.25;stroke-miterlimit:10;}
	.st15{fill:#455A64;}
	.st16{fill:#F5F5F5;}
	.st17{fill:#543889;stroke:#263238;stroke-width:1.004;stroke-miterlimit:10;}
	.st18{fill:#915543;}
	.st19{fill:#753A2F;}
</style>
<g id="freepik--background-complete--inject-96">
	<path class="st0" d="M205.6,68l-95.2,123.7l256-63.6L223.9,63.4C217.5,60.5,209.9,62.4,205.6,68z"/>
	<path class="st1" d="M109.1,192.6l96.1-124.9c4.4-5.8,12.3-7.7,18.9-4.7l144,65.2L109.1,192.6z M217.6,62.6
		c-4.5,0-8.8,2.1-11.5,5.7l0,0l-94.3,122.5l253.1-62.9l-141.2-64C221.7,63,219.7,62.6,217.6,62.6L217.6,62.6z"/>
	<path class="st2" d="M110.4,191.7l256.9-63.9l0,0L401.9,267c1.4,5.7-2.1,11.6-7.8,13L158,338.7c-5.7,1.4-11.6-2.1-13-7.8
		L110.4,191.7L110.4,191.7z"/>
	<path class="st3" d="M351.5,135.4l-89,90.9L128,196.1l-15.4-71.3c-1.8-7.7,2.9-15.3,10.6-17.2l194.6-48.4
		c7.7-1.9,15.5,2.8,17.4,10.5c0,0,0,0,0,0L351.5,135.4z"/>
	<path class="st1" d="M250.3,219.2L144.6,329.7l0,0c1.6,6.3,8,10.2,14.3,8.6c0,0,0,0,0,0L393.2,280c6.3-1.6,10.2-8,8.6-14.3
		l-0.2-0.9l-138.2-48.8C258.8,214.5,253.7,215.7,250.3,219.2z"/>
	
		<rect x="140.2" y="127.4" transform="matrix(0.9704 -0.2414 0.2414 0.9704 -26.4168 47.205)" class="st1" width="78.4" height="8"/>
	
		<rect x="143.8" y="135.6" transform="matrix(0.9704 -0.2414 0.2414 0.9704 -26.9894 59.8743)" class="st1" width="174.1" height="9.1"/>
	
		<rect x="149.2" y="157" transform="matrix(0.9704 -0.2414 0.2414 0.9704 -32.0111 61.7988)" class="st1" width="174.1" height="9.1"/>
	<polygon class="st1" points="323.1,164.6 317.8,169.9 176,206.9 157.5,202.6 156.8,200.6 325.2,158.7 325.9,161.6 	"/>
	<polygon class="st1" points="286.8,201.5 223,217.4 203.4,212.9 298.9,189.2 	"/>
	<path class="st4" d="M246.4,223.2c0,0-0.1,0.1-0.2,0.3l-0.8,0.8l-2.9,3.1l-10.9,11.5c-9.2,9.7-22,23.1-36.2,37.8
		s-27.1,27.9-36.6,37.4c-4.7,4.7-8.6,8.5-11.3,11.2l-3.1,3l-0.8,0.8c-0.1,0.1-0.2,0.2-0.3,0.3c0.1-0.1,0.2-0.2,0.3-0.3l0.8-0.8
		l3-3.1l11.2-11.3c9.4-9.5,22.3-22.8,36.5-37.5s27-28,36.3-37.7l11-11.4l3-3.1l0.8-0.8C246.3,223.3,246.4,223.2,246.4,223.2z"/>
	<path class="st4" d="M401.6,264.8c0,0.1-29.5-10.1-65.8-22.9s-65.7-23.2-65.6-23.4s29.5,10.1,65.8,22.8S401.6,264.7,401.6,264.8z"
		/>
	<path class="st4" d="M355.8,131.1c-0.1,0.1-0.1,0.2-0.2,0.3L355,132l-2.4,2.6l-8.8,9.6c-7.5,8.1-17.9,19.1-29.6,31.2
		s-22.5,22.8-30.3,30.6l-9.3,9.1l-2.6,2.4l-0.7,0.6c-0.2,0.1-0.2,0.2-0.3,0.2c0.1-0.1,0.1-0.2,0.2-0.2l0.6-0.7l2.5-2.5l9.2-9.2
		c7.8-7.8,18.4-18.6,30.1-30.7s22.1-23,29.7-31l9-9.5l2.5-2.6l0.6-0.7C355.6,131.2,355.7,131.1,355.8,131.1z"/>
	<path class="st4" d="M246.4,223.2c-0.1,0-0.2,0-0.4-0.1l-1-0.2l-4-1c-3.4-0.9-8.4-2.1-14.5-3.5c-12.3-2.9-29.3-6.7-48.2-10.7
		s-35.9-7.9-48.1-10.9c-6.1-1.5-11.1-2.8-14.5-3.7l-3.9-1.1l-1-0.3c-0.1,0-0.2-0.1-0.3-0.1l0.3,0.1l1,0.2l4,1
		c3.4,0.9,8.4,2.1,14.5,3.5c12.3,2.9,29.3,6.7,48.2,10.7s35.9,7.9,48.1,10.9c6.1,1.5,11.1,2.8,14.5,3.7l3.9,1.1l1,0.3L246.4,223.2z"
		/>
	<path class="st1" d="M351.5,135.4c0,0-0.1-0.3-0.3-1l-0.7-2.8c-0.6-2.5-1.6-6.2-2.8-10.9l-10.1-40.1c-0.5-2.1-1.1-4.3-1.6-6.5
		c-0.3-1.1-0.5-2.2-0.8-3.4c-0.1-0.6-0.3-1.1-0.5-1.7c-0.2-0.6-0.4-1.1-0.6-1.6c-2-4.6-6.3-7.7-11.3-8.3c-1.3-0.2-2.5-0.2-3.8,0
		c-1.3,0.2-2.5,0.6-3.8,0.9l-7.9,2L291,66l-72.9,18.2l-73,18.1l-16.4,4.1l-4,1c-1.3,0.3-2.6,0.7-3.8,1.2c-2.4,1-4.4,2.7-5.9,4.8
		c-0.7,1-1.3,2.1-1.8,3.3c-0.4,1.2-0.7,2.4-0.8,3.6c-0.3,2.4,0.4,4.8,0.9,7.1c1,4.7,2,9.1,2.9,13.4c3.7,17.1,6.6,30.9,8.6,40.5
		c1,4.8,1.8,8.5,2.3,11c0.3,1.3,0.4,2.2,0.6,2.9s0.2,1,0.2,1s-0.1-0.3-0.2-1s-0.4-1.6-0.6-2.9c-0.6-2.5-1.4-6.2-2.4-11
		c-2.1-9.6-5.1-23.4-8.8-40.4c-0.9-4.3-1.9-8.7-2.9-13.4c-0.5-2.3-1.2-4.7-0.9-7.3c0.1-1.3,0.4-2.5,0.8-3.7c0.5-1.2,1.1-2.4,1.8-3.4
		c0.8-1.1,1.7-2,2.7-2.9c1-0.9,2.2-1.6,3.4-2.1c1.3-0.5,2.5-0.9,3.9-1.2l4-1l16.4-4.1l73-18.2l73-18.1l16.4-4.1l7.9-1.9
		c1.3-0.3,2.5-0.7,3.9-0.9c3.9-0.6,7.9,0.4,11,2.8c2,1.5,3.5,3.5,4.5,5.7c0.3,0.5,0.5,1.1,0.6,1.7c0.2,0.6,0.3,1.1,0.5,1.7
		c0.3,1.1,0.5,2.3,0.8,3.4c0.5,2.2,1.1,4.4,1.6,6.5l9.9,40.2c1.1,4.7,2,8.4,2.7,10.9c0.3,1.3,0.5,2.2,0.7,2.9
		S351.5,135.4,351.5,135.4z"/>
</g>
<g id="freepik--Floor--inject-96">
	<path class="st5" d="M452,449c0,0.1-90.4,0.3-202,0.3S48,449.2,48,449s90.4-0.3,202-0.3S452,448.9,452,449z"/>
</g>
<polygon class="st6" points="239.7,82.7 229.8,90.2 230.3,104.6 221.3,97.4 216.3,101.7 197.3,78.2 "/>
<path class="st6" d="M226.1,93.3c0,0.4,4.2,11.3,4.2,11.3l-9.1-7.2L226.1,93.3z"/>
<g class="st7">
	<path d="M226.1,93.3c0,0.4,4.2,11.3,4.2,11.3l-9.1-7.2L226.1,93.3z"/>
</g>
<polygon class="st8" points="197.3,78.2 226.1,93.3 230.3,104.6 229.8,90.2 "/>
<polygon class="st9" points="197.3,78.2 226.1,93.3 230.3,104.6 229.8,90.2 "/>
<path class="st5" d="M277.3,272.2c-1.8-0.1-3.5-0.5-5.1-1.3C273.9,271,275.6,271.5,277.3,272.2z"/>
<path class="st5" d="M285.4,274.2c0,0.1-0.8,0.1-1.6-0.1s-1.5-0.5-1.5-0.6s0.8-0.1,1.6,0.1S285.5,274.1,285.4,274.2z"/>
<path class="st5" d="M251.7,102.7c-0.9,0-1.8-0.1-2.6-0.4c-0.9-0.1-1.7-0.4-2.5-0.8c0.9-0.1,1.8,0,2.6,0.3
	C250.1,101.9,250.9,102.2,251.7,102.7z"/>
<path class="st5" d="M261.4,106.8c-1.7-0.6-3.3-1.3-4.7-2.4c0.9,0.1,1.8,0.4,2.5,0.9C260.5,106,261.4,106.7,261.4,106.8z"/>
<path class="st5" d="M269.7,113.2c-0.1,0.1-1-0.6-2.1-1.6s-2-1.7-1.9-1.9c0.9,0.3,1.6,0.8,2.3,1.5
	C269.1,112.2,269.9,113.1,269.7,113.2z"/>
<path class="st5" d="M276.1,121.6c-0.1,0.1-0.8-0.9-1.6-2.1c-0.6-0.7-1-1.5-1.3-2.3c0.1-0.1,1,0.8,1.8,2
	C275.6,119.8,276,120.7,276.1,121.6z"/>
<path class="st5" d="M279.8,131.4c-0.4-0.8-0.7-1.6-0.9-2.5c-0.3-0.8-0.5-1.7-0.5-2.6c0.5,0.7,0.9,1.6,1.1,2.4
	C279.7,129.6,279.9,130.5,279.8,131.4z"/>
<path class="st5" d="M280.3,141.9c-0.2-0.9-0.2-1.8-0.1-2.6c-0.1-0.9,0-1.8,0.2-2.6c0.3,0.8,0.4,1.7,0.3,2.6
	C280.8,140.2,280.7,141.1,280.3,141.9z"/>
<path class="st5" d="M277.6,152.1c0.1-0.9,0.4-1.7,0.7-2.5c0.2-0.9,0.5-1.7,1-2.4c0,0.9-0.1,1.8-0.5,2.6
	C278.6,150.6,278.2,151.4,277.6,152.1z"/>
<path class="st5" d="M271.5,160.6c-0.1-0.1,0.7-1,1.6-2.1s1.7-2,1.8-1.9c-0.3,0.9-0.8,1.6-1.4,2.3
	C272.5,160,271.6,160.7,271.5,160.6z"/>
<path class="st5" d="M262.6,166.3c0.7-0.6,1.4-1,2.3-1.4c0.7-0.5,1.6-0.9,2.4-1.1c-0.6,0.7-1.3,1.2-2.2,1.6
	C264.4,165.9,263.5,166.2,262.6,166.3z"/>
<path class="st5" d="M252.4,168.5c0.8-0.3,1.7-0.5,2.6-0.5c0.9-0.2,1.8-0.3,2.6-0.2c-0.8,0.4-1.7,0.7-2.6,0.7
	C254.2,168.8,253.3,168.7,252.4,168.5z"/>
<path class="st5" d="M242.1,166.5c1.7,0.4,3.4,0.9,5,1.5c-0.9,0.1-1.8,0-2.6-0.4C243.6,167.5,242.8,167.1,242.1,166.5z"/>
<path class="st5" d="M234.8,159.3c0.1-0.1,0.6,1,1.4,2.2s1.6,2,1.5,2.1s-1.1-0.6-1.9-1.8C235.2,161.1,234.8,160.2,234.8,159.3z"/>
<path class="st5" d="M239.2,151.1c0,0.2-1.1,0.5-2.2,1.3s-1.8,1.8-1.9,1.7s0.3-1.3,1.6-2.2C237.4,151.4,238.3,151.1,239.2,151.1z"/>
<path class="st5" d="M248.3,154.9c-0.1,0.1-0.8-0.9-1.8-1.9s-2.1-1.4-2-1.6c0.9,0.1,1.8,0.5,2.4,1.2
	C247.6,153.2,248.1,154,248.3,154.9z"/>
<path class="st5" d="M248.6,165.1c0.1-0.9,0.2-1.7,0.5-2.6c0.1-0.9,0.2-1.7,0.5-2.6c0.3,0.9,0.3,1.8,0,2.7
	C249.5,163.5,249.2,164.4,248.6,165.1z"/>
<path class="st5" d="M241.8,172.9c-0.1-0.1,0.8-0.9,1.9-1.8s2-1.7,2.1-1.6s-0.6,1.1-1.7,2S241.8,173.1,241.8,172.9z"/>
<path class="st5" d="M232.4,177.8c0.7-0.6,1.4-1.1,2.3-1.4c0.8-0.5,1.6-0.7,2.5-0.9C235.8,176.6,234.1,177.4,232.4,177.8
	L232.4,177.8z"/>
<path class="st5" d="M223,182.6c-0.1-0.1,0.9-0.8,2.1-1.6c0.7-0.5,1.6-0.9,2.5-1c0.1,0.1-0.9,0.8-2.2,1.5
	C224.7,182,223.9,182.4,223,182.6z"/>
<path class="st5" d="M215,189.4c-0.1-0.1,0.6-1.1,1.6-2.1c0.6-0.7,1.3-1.2,2.1-1.6c0.1,0.1-0.7,1-1.7,2S215.2,189.5,215,189.4z"/>
<path class="st5" d="M209,198.1c0.2-0.9,0.5-1.7,1.1-2.4c0.8-1.3,1.6-2.1,1.7-2.1c-0.3,0.8-0.7,1.6-1.2,2.4
	C209.8,197.1,209.1,198.1,209,198.1z"/>
<path class="st5" d="M205.2,207.9c-0.1-0.9,0.1-1.8,0.5-2.6c0.2-0.9,0.6-1.7,1.1-2.4C206.5,204.6,205.9,206.3,205.2,207.9
	L205.2,207.9z"/>
<path class="st5" d="M203.8,218.3c-0.4-1.8-0.2-3.6,0.4-5.3c0.2,0.9,0.2,1.8,0,2.6C204.2,216.6,204.1,217.5,203.8,218.3z"/>
<path class="st5" d="M205.2,228.7c-0.4-0.8-0.7-1.6-0.8-2.5c-0.3-0.9-0.4-1.8-0.2-2.6c0.4,0.8,0.6,1.7,0.8,2.5
	C205.1,226.9,205.2,227.8,205.2,228.7z"/>
<path class="st5" d="M209.2,238.4c-0.1,0.1-0.8-0.9-1.5-2.2c-0.5-0.8-0.8-1.6-0.9-2.5c0.6,0.7,1,1.4,1.3,2.3
	C208.7,236.7,209,237.6,209.2,238.4z"/>
<path class="st5" d="M215.6,246.9c-0.1,0.1-1-0.7-2-1.8c-0.6-0.6-1.1-1.4-1.4-2.2c0.1-0.1,0.9,0.8,1.9,1.9S215.7,246.8,215.6,246.9z
	"/>
<path class="st5" d="M223.7,253.6c-0.9-0.2-1.7-0.7-2.3-1.3c-1.2-0.9-2-1.7-1.9-1.8c0.8,0.3,1.6,0.8,2.3,1.4
	C222.8,252.7,223.8,253.4,223.7,253.6z"/>
<path class="st5" d="M233.2,258.1c-0.9,0-1.8-0.2-2.6-0.6c-0.9-0.2-1.7-0.7-2.3-1.3c0.9,0.1,1.7,0.4,2.5,0.8
	C231.6,257.2,232.4,257.6,233.2,258.1z"/>
<path class="st5" d="M238.5,259.5c0,0.1-0.1,0.3-0.1,0.3s-0.1-0.1,0-0.3s0.1-0.3,0.1-0.3S238.5,259.3,238.5,259.5z"/>
<rect x="220.6" y="229.1" transform="matrix(0.312 -0.9501 0.9501 0.312 -68.8742 374.6245)" class="st10" width="7.2" height="11.5"/>
<g class="st7">
	<rect x="220.6" y="229.1" transform="matrix(0.312 -0.9501 0.9501 0.312 -68.8742 374.6245)" width="7.2" height="11.5"/>
</g>
<path class="st11" d="M230.8,233.3c-2,1-4.2,1.9-6.3,2.6l-0.2,0.1l-0.1-0.2l-0.2-0.2c-1.5-1.8-2.9-3.8-4.1-5.9
	c1.6,1.7,3.2,3.6,4.5,5.5l0.2,0.2l-0.3-0.1C226.4,234.5,228.6,233.8,230.8,233.3z"/>
<g class="st12">
	<path d="M230.8,233.3c-2,1-4.2,1.9-6.3,2.6l-0.2,0.1l-0.1-0.2l-0.2-0.2c-1.5-1.8-2.9-3.8-4.1-5.9c1.6,1.7,3.2,3.6,4.5,5.5l0.2,0.2
		l-0.3-0.1C226.4,234.5,228.6,233.8,230.8,233.3z"/>
</g>
<path class="st11" d="M223,233.9c-0.8,0.7-1.6,1.2-2.6,1.6c-0.9,0.5-1.8,0.9-2.8,1.1c0.8-0.7,1.6-1.2,2.6-1.6
	C221.1,234.4,222,234,223,233.9z"/>
<g class="st12">
	<path d="M223,233.9c-0.8,0.7-1.6,1.2-2.6,1.6c-0.9,0.5-1.8,0.9-2.8,1.1c0.8-0.7,1.6-1.2,2.6-1.6C221.1,234.4,222,234,223,233.9z"/>
</g>
<path class="st11" d="M228.8,240.1c-0.6-0.8-1.1-1.6-1.4-2.5c-0.7-1.5-1.1-2.8-0.9-2.8c0.6,0.8,1.1,1.6,1.4,2.5
	C228.3,238.2,228.6,239.2,228.8,240.1z"/>
<g class="st12">
	<path d="M228.8,240.1c-0.6-0.8-1.1-1.6-1.4-2.5c-0.7-1.5-1.1-2.8-0.9-2.8c0.6,0.8,1.1,1.6,1.4,2.5
		C228.3,238.2,228.6,239.2,228.8,240.1z"/>
</g>
<rect x="249.3" y="249.2" transform="matrix(0.312 -0.9501 0.9501 0.312 -73.0344 427.2291)" class="st10" width="18.4" height="29.6"/>
<path class="st11" d="M275.4,259.9c-0.4,0.2-0.8,0.4-1.3,0.6l-3.5,1.4c-3,1.1-7.1,2.7-11.7,4.4l-0.2,0.1l-0.1-0.2l-0.5-0.6
	c-3.1-4-5.8-7.7-7.8-10.4l-2.3-3.2c-0.3-0.4-0.6-0.8-0.8-1.2c0.4,0.3,0.7,0.7,1,1.1l2.4,3.1c2.1,2.6,4.9,6.3,7.9,10.3l0.5,0.6
	l-0.3-0.1c4.6-1.7,8.8-3.2,11.8-4.2l3.6-1.2C274.5,260.1,274.9,260,275.4,259.9z"/>
<g class="st13">
	<path d="M275.4,259.9c-0.4,0.2-0.8,0.4-1.3,0.6l-3.5,1.4c-3,1.1-7.1,2.7-11.7,4.4l-0.2,0.1l-0.1-0.2l-0.5-0.6
		c-3.1-4-5.8-7.7-7.8-10.4l-2.3-3.2c-0.3-0.4-0.6-0.8-0.8-1.2c0.4,0.3,0.7,0.7,1,1.1l2.4,3.1c2.1,2.6,4.9,6.3,7.9,10.3l0.5,0.6
		l-0.3-0.1c4.6-1.7,8.8-3.2,11.8-4.2l3.6-1.2C274.5,260.1,274.9,260,275.4,259.9z"/>
</g>
<path class="st11" d="M255.4,261.4c-2.2,1.4-4.5,2.6-6.8,3.6c-2.3,1.2-4.6,2.3-7.1,3.1c2.2-1.4,4.5-2.6,6.8-3.6
	C250.6,263.3,253,262.3,255.4,261.4z"/>
<g class="st13">
	<path d="M255.4,261.4c-2.2,1.4-4.5,2.6-6.8,3.6c-2.3,1.2-4.6,2.3-7.1,3.1c2.2-1.4,4.5-2.6,6.8-3.6
		C250.6,263.3,253,262.3,255.4,261.4z"/>
</g>
<path class="st11" d="M270.1,277.6c-1.2-2.1-2.3-4.4-3.2-6.7c-1.1-2.2-2-4.5-2.7-6.9c1.2,2.1,2.3,4.4,3.2,6.7
	C268.5,272.9,269.4,275.2,270.1,277.6z"/>
<g class="st13">
	<path d="M270.1,277.6c-1.2-2.1-2.3-4.4-3.2-6.7c-1.1-2.2-2-4.5-2.7-6.9c1.2,2.1,2.3,4.4,3.2,6.7
		C268.5,272.9,269.4,275.2,270.1,277.6z"/>
</g>
<path class="st14" d="M248.8,255c-2,1.4-4.7,1-6.1-0.9c-1.4-2-1-4.7,0.9-6.1c2-1.4,4.7-1,6.1,0.9C251.2,250.8,250.8,253.6,248.8,255
	C248.8,255,248.8,255,248.8,255z"/>
<path class="st3" d="M249,250.6c-0.9,0.7-1.9,1.3-2.9,1.8l-0.7,0.4l-0.1,0.1l-0.1-0.1c-0.5-0.8-0.9-1.5-1.2-2.4
	c0.6,0.7,1,1.4,1.4,2.2l-0.2-0.1l0.7-0.4C246.9,251.6,247.9,251.1,249,250.6z"/>
<rect x="243.6" y="230.7" transform="matrix(0.312 -0.9501 0.9501 0.312 -55.6438 400.1488)" class="st10" width="9.6" height="15.5"/>
<g class="st13">
	<rect x="243.6" y="230.7" transform="matrix(0.312 -0.9501 0.9501 0.312 -55.6438 400.1488)" width="9.6" height="15.5"/>
</g>
<path class="st11" d="M257.3,236.3c-0.2,0.1-0.4,0.2-0.6,0.3l-1.8,0.7c-1.6,0.6-3.7,1.4-6.1,2.3h-0.1l-0.1-0.1l-0.2-0.3
	c-1.6-2.1-3-4.1-4.1-5.5l-1.2-1.6c-0.2-0.2-0.3-0.4-0.4-0.6c0.2,0.2,0.4,0.4,0.5,0.6l1.3,1.6c1.1,1.4,2.5,3.3,4.1,5.4l0.3,0.3h-0.2
	c2.4-0.9,4.6-1.7,6.2-2.2l1.9-0.6C256.8,236.5,257.1,236.4,257.3,236.3z"/>
<g class="st13">
	<path class="st11" d="M257.3,236.3c-0.2,0.1-0.4,0.2-0.6,0.3l-1.8,0.7c-1.6,0.6-3.7,1.4-6.1,2.3h-0.1l-0.1-0.1l-0.2-0.3
		c-1.6-2.1-3-4.1-4.1-5.5l-1.2-1.6c-0.2-0.2-0.3-0.4-0.4-0.6c0.2,0.2,0.4,0.4,0.5,0.6l1.3,1.6c1.1,1.4,2.5,3.3,4.1,5.4l0.3,0.3h-0.2
		c2.4-0.9,4.6-1.7,6.2-2.2l1.9-0.6C256.8,236.5,257.1,236.4,257.3,236.3z"/>
</g>
<path class="st11" d="M246.8,237.1c-1.1,0.7-2.3,1.3-3.6,1.9c-1.2,0.6-2.4,1.2-3.7,1.6c1.1-0.7,2.3-1.4,3.6-1.9
	C244.3,238.1,245.6,237.6,246.8,237.1z"/>
<g class="st13">
	<path class="st11" d="M246.8,237.1c-1.1,0.7-2.3,1.3-3.6,1.9c-1.2,0.6-2.4,1.2-3.7,1.6c1.1-0.7,2.3-1.4,3.6-1.9
		C244.3,238.1,245.6,237.6,246.8,237.1z"/>
</g>
<path class="st11" d="M254.6,245.6c-0.6-1.1-1.2-2.3-1.7-3.5c-0.6-1.2-1-2.4-1.4-3.6C252.7,240.8,253.7,243.1,254.6,245.6
	L254.6,245.6z"/>
<g class="st13">
	<path class="st11" d="M254.6,245.6c-0.6-1.1-1.2-2.3-1.7-3.5c-0.6-1.2-1-2.4-1.4-3.6C252.7,240.8,253.7,243.1,254.6,245.6
		L254.6,245.6z"/>
</g>
<path class="st10" d="M139,121.6c-2.8,11.2-14.2,17.9-25.4,15.1c-11.2-2.8-17.9-14.2-15.1-25.4c2.8-11.2,14.2-17.9,25.4-15.1
	C135.1,99,141.8,110.4,139,121.6z"/>
<path class="st3" d="M126.5,105.1c0.4,0.2-2,7.1-5.3,15.6c-0.5,1.2-1,2.4-1.4,3.6l-0.3,0.6l-0.6-0.2c-6.8-2.6-11.7-4.8-11.6-5.1
	s5.3,1.3,12.1,3.8l-0.9,0.4c0.4-1.2,0.9-2.3,1.4-3.6C123.1,111.7,126.1,105,126.5,105.1z"/>
<path class="st6" d="M395.6,417.1c3.7-1.8,7.9-2.3,12-1.5c2.2,0.4,4.5,1,5.9,2.6s1.8,4.5,0.1,5.9c-1.1,0.7-2.4,1.1-3.7,1
	c-3.2,0-6.7-0.6-9.2,1.3c-1.5,1.1-2.4,2.9-4.1,3.4c-1.8,0.4-3.6-0.4-4.5-2c-0.8-1.6-1-3.4-0.5-5.2
	C391.9,420.3,393.5,418.2,395.6,417.1z"/>
<g class="st13">
	<path class="st3" d="M395.6,417.1c3.7-1.8,7.9-2.3,12-1.5c2.2,0.4,4.5,1,5.9,2.6s1.8,4.5,0.1,5.9c-1.1,0.7-2.4,1.1-3.7,1
		c-3.2,0-6.7-0.6-9.2,1.3c-1.5,1.1-2.4,2.9-4.1,3.4c-1.8,0.4-3.6-0.4-4.5-2c-0.8-1.6-1-3.4-0.5-5.2
		C391.9,420.3,393.5,418.2,395.6,417.1z"/>
</g>
<path class="st6" d="M387.3,400.9c2.2,3.2,6.6,2.1,8.6,0.2s2.9-4.8,3.6-7.5c1.8-6.1,3.5-12.6,2.2-18.9c-0.3-1.9-1.2-3.7-2.4-5.1
	c-1.3-1.5-3.3-2.1-5.2-1.7c-2.2,0.6-3.5,2.7-4.5,4.8c-2.9,6-4.4,12.6-4.4,19.3C385.2,395.1,385.5,398.4,387.3,400.9"/>
<path class="st6" d="M381.1,405.5c2.4-2.9,2.9-7.1,1.8-10.7c-1.2-3.6-3.4-6.8-6.3-9.2c-3.3-2.9-7.2-5.2-11.3-6.6
	c-1.6-0.7-3.4-1-5.1-0.9c-1.8,0.1-3.4,1.1-4.3,2.6c-1.2,2.3,0,5,1.2,7.3c2.2,4,4.7,7.8,7.4,11.3c2.2,2.9,4.8,5.7,8.2,7
	s6.9,1.1,8.7-1.2"/>
<g class="st12">
	<path d="M381.1,405.5c2.4-2.9,2.9-7.1,1.8-10.7c-1.2-3.6-3.4-6.8-6.3-9.2c-3.3-2.9-7.2-5.2-11.3-6.6c-1.6-0.7-3.4-1-5.1-0.9
		c-1.8,0.1-3.4,1.1-4.3,2.6c-1.2,2.3,0,5,1.2,7.3c2.2,4,4.7,7.8,7.4,11.3c2.2,2.9,4.8,5.7,8.2,7s6.9,1.1,8.7-1.2"/>
</g>
<path class="st5" d="M387.1,449.1c0.1-0.5,0.2-1,0.2-1.5c0.1-1.1,0.2-2.4,0.4-4c0.2-1.9,0.5-3.9,0.9-5.8c0.5-2.3,1.2-4.6,2.1-6.9
	c0.9-2.2,2-4.3,3.5-6.2c1.2-1.5,2.7-2.8,4.4-3.7c1.2-0.6,2.4-1,3.7-1.2c0.5,0,1-0.1,1.4-0.2c-0.5-0.1-1-0.1-1.5,0
	c-1.3,0.1-2.7,0.4-3.9,1c-1.8,0.9-3.4,2.1-4.7,3.7c-1.5,1.9-2.7,4-3.6,6.3c-0.9,2.3-1.6,4.6-2.1,7c-0.4,1.9-0.6,3.9-0.8,5.9
	c-0.1,1.7-0.2,3-0.2,4C387.1,448.1,387.1,448.6,387.1,449.1z"/>
<path class="st5" d="M387.4,446c0-0.2,0-0.4,0-0.7v-1.9c0-1.7,0-4.1,0.1-7.1c0.1-6,0.7-14.2,1.7-23.3s2.3-17.2,3.5-23
	c0.3-1.5,0.6-2.8,0.8-3.9s0.5-2.2,0.7-3s0.3-1.4,0.5-1.9c0.1-0.2,0.1-0.4,0.1-0.7c-0.1,0.2-0.2,0.4-0.2,0.6l-0.6,1.9
	c-0.3,0.8-0.5,1.8-0.8,2.9s-0.6,2.5-0.9,3.9c-1.6,7.6-2.9,15.3-3.7,23c-1,9.1-1.4,17.3-1.5,23.3c0,3,0,5.4,0.1,7.1
	c0,0.8,0.1,1.4,0.1,1.9C387.3,445.5,387.4,445.8,387.4,446z"/>
<path class="st5" d="M387.4,430.1c0.1-0.7,0.1-1.3,0-2c-0.1-1.8-0.3-3.6-0.6-5.4c-1-6-2.7-11.8-5.1-17.3c-2.3-5.6-5.6-10.8-9.7-15.2
	c-0.7-0.8-1.5-1.5-2.3-2.1c-0.4-0.3-0.7-0.6-1-0.8l-0.9-0.6c-0.5-0.4-1.1-0.8-1.7-1.1c1.9,1.5,3.8,3.2,5.5,5c4,4.5,7.2,9.6,9.5,15.1
	c1.3,3,2.4,6.1,3.3,9.3c0.9,2.9,1.5,5.6,1.9,7.9s0.6,4.1,0.8,5.4C387.2,428.8,387.3,429.4,387.4,430.1z"/>
<g id="freepik--Device--inject-96">
	<polygon class="st15" points="235.4,298.3 277.2,298.3 293.8,251.9 291.5,251.9 275,296 235.4,296.2 	"/>
</g>
<g id="freepik--Desk--inject-96">
	<polygon class="st5" points="216.9,304.1 218.4,449.2 222.7,449.2 220.9,303 	"/>
	<path class="st5" d="M306.5,302.7c-0.6,2.8,3.8,146.8,3.8,146.8h4l-3.3-146.8H306.5z"/>
	<polygon class="st5" points="355.4,298.3 177.4,298.3 177.4,305.6 192.1,305.6 182.5,448.7 186.7,449 196.3,305.6 340.4,305.6 
		347.4,449 351.6,449 344.6,305.6 355.4,305.6 	"/>
</g>
<path class="st6" d="M255,443.7v-11l-20.6-0.2l-0.2,16.1l1.3,0.1c5.7,0.4,28.9,1.5,32.7,0.4C272.4,447.9,255,443.7,255,443.7z"/>
<path class="st16" d="M241.6,448.5c-0.3-1.7-1.2-3.3-2.6-4.4c-1.4-1.1-3.1-1.6-4.8-1.5l-0.1,5.8L241.6,448.5z"/>
<path class="st16" d="M263.5,446c0,0,6.1,1.8,5.3,2.8s-24.3,0.8-34.7-0.3v-0.5l27.4,0.5C261.6,448.7,262.3,446.1,263.5,446z"/>
<path class="st5" d="M233.9,448.1h0.4l1,0.1l3.7,0.2c3.2,0.1,7.5,0.3,12.4,0.4c4.8,0.1,9.2,0,12.4-0.1l3.8-0.1l1,0h0.4
	c-0.1,0-0.2,0-0.4,0h-1h-3.8c-3.2,0-7.5,0-12.4,0s-9.2-0.2-12.4-0.3l-3.8-0.1h-1L233.9,448.1z"/>
<path class="st5" d="M261.6,449c0.2-0.6,0.4-1.2,0.7-1.8c0.4-0.5,0.8-1,1.3-1.4C262.4,446.3,261.6,447.6,261.6,449L261.6,449z"/>
<path class="st5" d="M255.6,445.9c0.1,0,0.4-0.3,0.7-0.8c0.3-0.5,0.5-0.9,0.5-0.9s-0.4,0.3-0.7,0.8
	C255.8,445.2,255.7,445.5,255.6,445.9z"/>
<path class="st5" d="M253.9,445c0.1,0,0.4-0.2,0.7-0.5s0.6-0.6,0.6-0.7s-0.4,0.2-0.7,0.5S253.9,444.9,253.9,445z"/>
<path class="st5" d="M252.9,443c0.3,0.1,0.7,0.2,1.1,0.1c0.4,0,0.7,0,1.1-0.1c-0.3-0.1-0.7-0.2-1.1-0.1
	C253.6,442.9,253.2,442.9,252.9,443z"/>
<path class="st5" d="M252.5,441.6c0.7,0.4,1.6,0.5,2.4,0.2C254.2,441.8,253.3,441.7,252.5,441.6z"/>
<path class="st5" d="M256.3,444.1c0.4,0.1,0.9,0.1,1.3,0c0.5-0.1,1-0.1,1.4-0.3c0.3-0.1,0.6-0.2,0.8-0.3c0.2-0.1,0.3-0.2,0.3-0.4
	c0-0.2,0-0.4-0.2-0.5c-1-0.5-2.3-0.2-3,0.7c-0.2,0.3-0.4,0.6-0.5,0.9c0,0.2,0,0.4,0,0.4c0.1-0.4,0.3-0.8,0.6-1.1
	c0.3-0.3,0.7-0.6,1.1-0.7c0.5-0.2,1.1-0.1,1.6,0.1c0.2,0.2,0.1,0.4-0.1,0.5c-0.2,0.1-0.5,0.2-0.8,0.3c-0.4,0.1-0.9,0.3-1.4,0.3
	C256.8,444,256.3,444,256.3,444.1z"/>
<path class="st5" d="M256.6,444.1c0.2-0.3,0.2-0.6,0.2-0.9c0-0.4-0.2-0.7-0.4-1c-0.2-0.4-0.6-0.7-1.1-0.7c-0.3,0.1-0.5,0.3-0.4,0.6
	c0,0.2,0.1,0.4,0.2,0.6c0.2,0.3,0.4,0.6,0.6,0.8c0.2,0.2,0.5,0.4,0.8,0.5c0,0-0.3-0.2-0.6-0.7c-0.2-0.2-0.4-0.5-0.5-0.8
	c-0.2-0.3-0.3-0.8,0-0.8s0.7,0.3,0.9,0.6c0.2,0.3,0.3,0.6,0.4,0.9C256.6,443.5,256.7,443.8,256.6,444.1z"/>
<path class="st5" d="M234.4,442.5c0,0,0.6,0,1.5,0.1c1.2,0.2,2.4,0.6,3.3,1.4c0.9,0.8,1.6,1.8,2,3c0.3,0.9,0.3,1.5,0.4,1.5
	s0-0.1,0-0.4c0-0.4-0.1-0.8-0.2-1.1c-0.7-2.5-2.9-4.3-5.5-4.5c-0.4,0-0.8,0-1.1,0C234.6,442.4,234.5,442.5,234.4,442.5z"/>
<path class="st5" d="M236.6,434c-0.2,2.8-0.3,5.6-0.2,8.5c0.2-1.4,0.2-2.8,0.2-4.2C236.7,436.8,236.7,435.4,236.6,434z"/>
<path class="st5" d="M244.2,446.5c1,0.2,2,0.4,3,0.3c1,0.1,2,0,3-0.2c0-0.1-1.4,0-3,0S244.3,446.5,244.2,446.5z"/>
<path class="st5" d="M240.2,446.5c0,0,0.1,0.3,0.2,0.6s0.2,0.6,0.3,0.6s0.1-0.3-0.1-0.7S240.3,446.5,240.2,446.5z"/>
<path class="st5" d="M238.7,444.6c0,0,0.1,0.3,0.3,0.5s0.4,0.4,0.5,0.3s-0.1-0.3-0.3-0.5S238.8,444.5,238.7,444.6z"/>
<path class="st5" d="M236.5,443.7c0,0.1,0.3,0.1,0.6,0.2s0.5,0.3,0.6,0.2s-0.1-0.3-0.5-0.5S236.5,443.6,236.5,443.7z"/>
<path class="st5" d="M235,443.3c0,0.1,0.1,0.2,0.3,0.2s0.3,0.1,0.4,0s-0.1-0.2-0.3-0.2S235,443.2,235,443.3z"/>
<path class="st6" d="M295.5,432.6l-4.5-10.1l-18.9,8.3l6.4,14.8l1.2-0.4c5.3-2,27-10.5,30-13.1C313.1,429.2,295.5,432.6,295.5,432.6
	z"/>
<path class="st16" d="M285.4,442.5c-1-1.5-2.5-2.6-4.2-3c-1.7-0.4-3.5-0.2-5,0.6l2.3,5.3L285.4,442.5z"/>
<path class="st16" d="M304.3,431.2c0,0,6.3-0.9,6,0.4s-21.8,10.7-31.7,14l-0.1-0.4l25.2-10.8C303.6,434.4,303.2,431.8,304.3,431.2z"
	/>
<path class="st5" d="M278.1,445.3l0.3-0.1l1-0.4l3.5-1.4c2.9-1.2,7-2.8,11.4-4.8s8.4-3.8,11.2-5.1l3.4-1.6l0.9-0.5
	c0.1,0,0.2-0.1,0.3-0.2l-0.3,0.1l-0.9,0.4l-3.4,1.6c-2.9,1.3-6.9,3.1-11.3,5.1s-8.5,3.6-11.4,4.8l-3.5,1.4l-0.9,0.4L278.1,445.3z"/>
<path class="st5" d="M303.8,434.7c-0.1-0.6-0.1-1.3-0.1-1.9c0.1-0.6,0.3-1.2,0.6-1.8c-0.5,0.5-0.8,1.1-0.8,1.8
	C303.3,433.4,303.4,434.1,303.8,434.7z"/>
<path class="st5" d="M297,434.3c0.1,0,0.2-0.4,0.3-1s0.1-1,0-1s-0.2,0.4-0.3,1C296.9,433.6,296.9,434,297,434.3z"/>
<path class="st5" d="M295.1,434.2c0.1,0,0.3-0.3,0.5-0.7s0.3-0.8,0.2-0.8s-0.3,0.3-0.5,0.7S295,434.1,295.1,434.2z"/>
<path class="st5" d="M293.3,432.8c0.4,0,0.7-0.1,1-0.3c0.5-0.2,1-0.5,0.9-0.5s-0.5,0.1-1,0.3S293.3,432.7,293.3,432.8z"/>
<path class="st5" d="M292.5,431.7c0.4,0.1,0.9,0,1.2-0.2c0.4-0.1,0.8-0.3,1.1-0.6c-0.4,0.1-0.8,0.2-1.1,0.4
	C293.2,431.4,292.8,431.5,292.5,431.7z"/>
<path class="st5" d="M296.9,432.4c0.4-0.1,0.8-0.3,1.2-0.5c0.4-0.2,0.8-0.5,1.2-0.9c0.2-0.2,0.4-0.4,0.6-0.6
	c0.1-0.1,0.2-0.3,0.1-0.5c0-0.2-0.2-0.4-0.4-0.4c-1.3-0.1-2.5,1-2.5,2.3c0,0.2,0,0.3,0,0.5c0,0.1,0,0.2,0.1,0.4c0-0.4,0-0.9,0.1-1.3
	c0.1-0.4,0.4-0.8,0.7-1.1c0.4-0.4,0.9-0.6,1.5-0.5c0.3,0,0.3,0.3,0.1,0.5c-0.2,0.2-0.3,0.4-0.5,0.6c-0.3,0.3-0.7,0.6-1.1,0.9
	C297.3,432.1,296.9,432.3,296.9,432.4z"/>
<path class="st5" d="M297.2,432.3c0-0.3-0.1-0.6-0.2-0.9c-0.2-0.3-0.4-0.6-0.7-0.8c-0.4-0.3-0.9-0.3-1.3-0.2
	c-0.2,0.2-0.3,0.5-0.1,0.7c0.1,0.2,0.3,0.3,0.4,0.5c0.3,0.2,0.6,0.4,0.9,0.5c0.3,0.1,0.6,0.2,0.9,0.2c0,0-0.3-0.1-0.8-0.4
	c-0.3-0.1-0.6-0.3-0.8-0.5c-0.3-0.2-0.6-0.6-0.3-0.8c0.3-0.1,0.7,0,1,0.2c0.3,0.2,0.5,0.4,0.7,0.6C297,431.7,297.1,432,297.2,432.3z
	"/>
<path class="st5" d="M276.2,440c0,0,0.5-0.3,1.4-0.6c2.4-0.7,5-0.1,6.7,1.8c0.6,0.7,0.9,1.2,1,1.2c0-0.1-0.1-0.3-0.2-0.4
	c-0.2-0.3-0.4-0.6-0.6-0.9c-0.8-1-1.9-1.7-3.1-2c-1.2-0.3-2.5-0.3-3.7,0.1c-0.3,0.1-0.7,0.3-1,0.5C276.3,439.9,276.2,440,276.2,440z
	"/>
<path class="st5" d="M274.8,431.3c0.4,1.4,0.9,2.7,1.5,4c0.5,1.3,1.1,2.6,1.8,3.9c-0.4-1.3-0.9-2.7-1.5-4
	C276,433.8,275.4,432.5,274.8,431.3z"/>
<path class="st5" d="M286.9,439.6c1-0.2,2-0.5,2.9-0.9c0.9-0.4,1.8-0.8,2.7-1.4c0-0.1-1.2,0.5-2.8,1.2S286.9,439.5,286.9,439.6z"/>
<path class="st5" d="M283.2,441.2c0,0.1,0.2,0.2,0.5,0.5s0.4,0.5,0.5,0.4s0-0.3-0.3-0.6S283.2,441.1,283.2,441.2z"/>
<path class="st5" d="M281.1,440.1c0,0.1,0.2,0.2,0.5,0.3s0.5,0.1,0.6,0.1s-0.2-0.2-0.5-0.3S281.1,440,281.1,440.1z"/>
<path class="st5" d="M278.7,440.2c0,0.1,0.3,0,0.6-0.1s0.6,0,0.6,0s-0.2-0.3-0.6-0.2S278.7,440.1,278.7,440.2z"/>
<path class="st5" d="M277.1,440.4c0,0.1,0.2,0.1,0.3,0.1s0.3-0.1,0.3-0.1s-0.2-0.1-0.3-0.1S277.1,440.4,277.1,440.4z"/>
<path class="st17" d="M108.5,359.1L93.6,247.9c-0.3-2.6,1.5-4.9,4-5.3c0.3,0,0.6-0.1,1,0l35.9,3c3.3,0.3,5.9,2.9,6.2,6.2l8.7,105.3
	L108.5,359.1z"/>
<g class="st13">
	<path d="M108.5,359.1L93.6,247.9c-0.3-2.6,1.5-4.9,4-5.3c0.3,0,0.6-0.1,1,0l35.9,3c3.3,0.3,5.9,2.9,6.2,6.2l8.7,105.3L108.5,359.1z
		"/>
</g>
<path class="st5" d="M143.1,195.7c-0.3-4.2-1.4-8.4-2-12.6s-0.7-8.6,0.9-12.5c2.1-4.4,5.8-7.8,10.3-9.5c4.5-1.6,9.4-2.2,14.2-1.6
	c0.9,0,1.7,0.2,2.5,0.6c0.8,0.4,1.3,1.1,1.4,2c0,0.9-0.6,1.6-1.5,1.6c0,0-0.1,0-0.1,0c1.8,0.2,3.6,0.6,5.4,1.1
	c0.7,0.2,1.3,0.6,1.7,1.3c0.3,0.8,0.3,1.7-0.2,2.4c-0.5,0.7-1.1,1.2-1.8,1.7c0.9-0.2,1.8,0.4,1.9,1.3c0,0,0,0,0,0
	c0.1,0.9-0.1,1.8-0.7,2.5c-0.5,0.7-1.2,1.3-1.7,2c-2.2,2.9-1.7,6.9-1.2,10.4"/>
<path class="st18" d="M143.5,220.6l20.2-0.4c0.3-2.3,0.7-11.4,0.7-11.4s8.4-0.8,9.1-9.1s0.4-27.7,0.4-27.7l0,0
	c-9.4-4.8-20.7-4-29.4,1.9l-1.3,0.9L143.5,220.6z"/>
<path class="st5" d="M171,186.4c-0.5-0.5-0.5-1.3,0-1.7c0.5-0.5,1.3-0.5,1.7,0c0.5,0.5,0.5,1.2,0,1.7
	C172.3,186.9,171.5,186.9,171,186.4C171,186.5,171,186.5,171,186.4z"/>
<path class="st5" d="M173.1,184.4c-0.1,0.1-0.9-0.5-2.1-0.6s-2,0.5-2.1,0.3s0.1-0.3,0.5-0.6c1.1-0.7,2.4-0.6,3.4,0.3
	C173.1,184.1,173.2,184.4,173.1,184.4z"/>
<path class="st5" d="M159.8,184.6c0.6,0.4,0.7,1.1,0.3,1.7c-0.4,0.6-1.1,0.7-1.7,0.3s-0.7-1.1-0.3-1.7c0,0,0,0,0,0
	C158.5,184.4,159.2,184.2,159.8,184.6C159.8,184.6,159.8,184.6,159.8,184.6z"/>
<path class="st5" d="M160.6,184.7c-0.1,0.1-0.9-0.6-2.1-0.6s-2,0.5-2.1,0.3s0.1-0.3,0.5-0.6c1.1-0.7,2.4-0.6,3.4,0.3
	C160.5,184.3,160.6,184.6,160.6,184.7z"/>
<path class="st5" d="M164.6,194.5c0.6-0.2,1.2-0.3,1.9-0.3c0.3,0,0.6-0.1,0.6-0.2c0-0.3,0-0.6-0.2-0.9c-0.3-0.8-0.5-1.6-0.8-2.4
	c-1.1-3.4-1.8-6.2-1.6-6.3s1.2,2.7,2.2,6.1c0.3,0.8,0.5,1.6,0.7,2.4c0.2,0.4,0.2,0.8,0.1,1.3c-0.1,0.2-0.3,0.4-0.6,0.4
	c-0.2,0-0.3,0-0.5,0C165.9,194.7,165.2,194.6,164.6,194.5z"/>
<path class="st3" d="M160.8,195.5c-1.1-0.8,3.2,2,5.6,2c-0.9,1.2-2.5,1.6-3.8,1C160,197.4,160.8,195.5,160.8,195.5z"/>
<path class="st19" d="M164.4,208.6c-3.9-0.2-7.6-1.5-10.7-3.8c0,0,2.2,6.2,10.6,5.9L164.4,208.6z"/>
<path class="st5" d="M142.8,181l0.4,10.9c0,0,3.8-1.2,4.1-1.3s-0.1-13.3-0.1-13.3s-0.5-5,2.7-6.1c3.4-1.2,4.9,1.2,9.7,2
	c15.9,2.7,14.8-2.2,14.8-2.2s2-2.1-2.1-4.5s-14.3-3.2-19.9-1.2c-11,3.8-11.7,7.6-11.7,10.9C140.8,180.8,142.8,181,142.8,181z"/>
<path class="st18" d="M144.7,182.1c-0.2-0.1-6.2-0.9-5.6,6.3s7.6,4.2,7.6,4S144.7,182.1,144.7,182.1z"/>
<path class="st19" d="M144.2,190c0,0-0.1,0.1-0.3,0.2c-0.3,0.1-0.6,0.2-0.9,0.1c-1-0.5-1.6-1.5-1.6-2.6c-0.1-0.6,0-1.2,0.2-1.8
	c0.1-0.5,0.4-0.8,0.9-1c0.3-0.1,0.6,0,0.8,0.3c0.1,0.2,0.1,0.3,0.1,0.4s0.1-0.1,0.1-0.4c0-0.2-0.2-0.3-0.3-0.4
	c-0.2-0.1-0.5-0.2-0.7-0.1c-0.6,0.2-1,0.6-1.2,1.2c-0.3,0.6-0.3,1.3-0.3,2c0.2,1.4,1,2.7,2,2.9c0.4,0.1,0.8,0,1.1-0.3
	C144.2,190.2,144.2,190.1,144.2,190z"/>
<path class="st18" d="M224.1,278c0,0,10-0.5,12,0.4c3.5,1.5,13.8,17.7,13.2,17.7c-1.6,0-4.8,0-4.8,0l-16-6.1l-3.8,1L224.1,278z"/>
<path class="st5" d="M267.1,324.4c0,0,29.9,103.6,30,103.1s-26.8,12.9-26.8,12.9l-18.1-74.9L267.1,324.4z"/>
<polygon class="st15" points="269.7,441 298,427.2 296.8,423.4 268.2,437.3 "/>
<path class="st15" d="M265.9,402.9c-0.1,0-0.5-0.6-0.7-1.4s-0.3-1.6-0.2-1.6s0.5,0.6,0.7,1.4S266.1,402.9,265.9,402.9z"/>
<path class="st15" d="M267.8,409c-0.1,0-0.5-0.6-0.7-1.4s-0.4-1.5-0.2-1.6s0.5,0.6,0.7,1.4S267.9,408.9,267.8,409z"/>
<path class="st15" d="M269.7,415c-0.1,0-0.5-0.6-0.8-1.4s-0.4-1.5-0.2-1.6s0.5,0.6,0.8,1.4S269.9,415,269.7,415z"/>
<path class="st15" d="M271.7,421c-0.1,0-0.5-0.6-0.8-1.4s-0.4-1.5-0.3-1.6s0.5,0.6,0.8,1.4S271.9,421,271.7,421z"/>
<path class="st15" d="M273.8,427c-0.1,0-0.5-0.6-0.8-1.4s-0.4-1.5-0.3-1.6s0.5,0.6,0.8,1.4S274,426.9,273.8,427z"/>
<path class="st15" d="M276,432.9c-0.1,0-0.5-0.6-0.8-1.4s-0.4-1.5-0.3-1.6s0.5,0.6,0.8,1.4S276.2,432.9,276,432.9z"/>
<path class="st15" d="M274.4,435.4c-0.2-0.3-0.4-0.7-0.6-1.1c-0.4-0.7-0.8-1.8-1.4-3.1c-1.1-2.6-2.5-6.3-3.9-10.4s-2.5-7.9-3.4-10.6
	c-0.4-1.3-0.7-2.4-1-3.2c-0.1-0.4-0.2-0.8-0.3-1.2c0.2,0.4,0.4,0.7,0.5,1.1c0.3,0.8,0.7,1.8,1.1,3.2l3.5,10.5
	c1.4,4.1,2.7,7.8,3.7,10.5l1.2,3.1C274.2,434.6,274.3,435,274.4,435.4z"/>
<path class="st5" d="M127.5,317.2c0.3-5.5-2.9,30.1,24.5,31.1s83.3,0.5,83.3,0.5l-6.6,90.3h32.8l6.9-96.1c0,0,3.5-27.8-15.6-31.4
	c-11.9-2.2-86.1-2.9-86.1-2.9L127.5,317.2z"/>
<polygon class="st15" points="228,439.3 262.6,439.3 262.6,433.9 228,434 "/>
<path class="st15" d="M173.9,344c0.1,0,0.2,0,0.4,0l1-0.1l4-0.2l14.9-0.6l50.1-1.7h0.3v0.3c-0.4,3.7-0.8,7.6-1.1,11.5
	c-0.4,5.6-0.9,11.2-1.3,16.5s-1,10.4-1.5,15.3c-1,9.7-1.9,18.5-2.7,25.9s-1.4,13.3-1.9,17.5c-0.2,2-0.4,3.6-0.5,4.8
	c-0.1,0.5-0.1,0.9-0.1,1.2c0,0.1,0,0.3-0.1,0.4c0-0.1,0-0.3,0-0.4c0-0.3,0.1-0.7,0.1-1.2c0.1-1.1,0.3-2.7,0.4-4.8
	c0.4-4.1,1-10.1,1.7-17.5s1.6-16.2,2.6-25.9c0.5-4.9,1-10,1.5-15.3s0.8-10.8,1.3-16.5c0.3-4,0.7-7.9,1.2-11.5l0.3,0.3l-50.1,1.5
	l-14.9,0.4l-4,0.1h-1C174.2,344.1,174,344,173.9,344z"/>
<path class="st15" d="M177.1,340.1c0,0.1-0.7,0.3-1.6,0.3s-1.6-0.1-1.6-0.2s0.7-0.3,1.6-0.3S177.1,339.9,177.1,340.1z"/>
<path class="st15" d="M183.4,339.9c0,0.1-0.7,0.3-1.6,0.3s-1.6-0.1-1.6-0.2s0.7-0.3,1.6-0.3S183.4,339.8,183.4,339.9z"/>
<path class="st15" d="M189.7,339.8c0,0.2-0.7,0.3-1.6,0.3s-1.6-0.1-1.6-0.2s0.7-0.3,1.6-0.3S189.7,339.6,189.7,339.8z"/>
<path class="st15" d="M196.1,339.6c0,0.2-0.7,0.3-1.6,0.3s-1.6-0.1-1.6-0.2s0.7-0.3,1.6-0.3S196.1,339.5,196.1,339.6z"/>
<path class="st15" d="M202.4,339.5c0,0.1-0.7,0.3-1.6,0.3s-1.6-0.1-1.6-0.2s0.7-0.3,1.6-0.3S202.4,339.3,202.4,339.5z"/>
<path class="st15" d="M208.7,339.4c0,0.1-0.7,0.3-1.6,0.3s-1.6-0.1-1.6-0.2s0.7-0.3,1.6-0.3S208.7,339.2,208.7,339.4z"/>
<path class="st15" d="M215.1,339.2c0,0.1-0.7,0.3-1.6,0.3s-1.6-0.1-1.6-0.2s0.7-0.3,1.6-0.3S215,339,215.1,339.2z"/>
<path class="st15" d="M221.4,339c0,0.1-0.7,0.3-1.6,0.3s-1.6-0.1-1.6-0.2s0.7-0.3,1.6-0.3S221.4,338.9,221.4,339z"/>
<path class="st15" d="M227.7,338.9c0,0.1-0.7,0.3-1.6,0.3s-1.6-0.1-1.6-0.2s0.7-0.3,1.6-0.3S227.7,338.8,227.7,338.9z"/>
<path class="st15" d="M234,338.8c0,0.1-0.7,0.3-1.6,0.3s-1.6-0.1-1.6-0.2s0.7-0.3,1.6-0.3S234,338.6,234,338.8z"/>
<path class="st15" d="M240.4,338.6c0,0.1-0.7,0.3-1.6,0.3s-1.6-0.1-1.6-0.2s0.7-0.3,1.6-0.3S240.4,338.5,240.4,338.6z"/>
<path class="st15" d="M246.7,338.5c0,0.2-0.7,0.3-1.6,0.3s-1.6-0.1-1.6-0.2s0.7-0.3,1.6-0.3S246.7,338.3,246.7,338.5z"/>
<path class="st15" d="M246.7,344.2c-0.2,0-0.2-0.7-0.1-1.6s0.3-1.6,0.4-1.5s0.2,0.7,0.1,1.6S246.8,344.2,246.7,344.2z"/>
<path class="st15" d="M246.1,350.5c-0.1,0-0.2-0.7-0.1-1.6s0.3-1.6,0.4-1.5s0.2,0.7,0.1,1.6S246.2,350.5,246.1,350.5z"/>
<path class="st15" d="M245.4,356.8c-0.1,0-0.2-0.7-0.1-1.6s0.3-1.6,0.4-1.5s0.2,0.7,0.1,1.6S245.6,356.8,245.4,356.8z"/>
<path class="st15" d="M244.8,363.1c-0.1,0-0.2-0.7-0.1-1.6s0.3-1.6,0.4-1.5s0.2,0.7,0.1,1.6S245,363.1,244.8,363.1z"/>
<path class="st15" d="M244.2,369.4c-0.1,0-0.2-0.7-0.1-1.6s0.3-1.6,0.4-1.5s0.2,0.7,0.1,1.6S244.4,369.4,244.2,369.4z"/>
<path class="st15" d="M243.6,375.7c-0.1,0-0.2-0.7-0.1-1.6s0.3-1.6,0.4-1.5s0.2,0.7,0.1,1.6S243.8,375.7,243.6,375.7z"/>
<path class="st15" d="M243,382c-0.2,0-0.2-0.7-0.1-1.6s0.3-1.6,0.4-1.5s0.2,0.7,0.1,1.6S243.1,382,243,382z"/>
<path class="st15" d="M242.4,388.3c-0.1,0-0.2-0.7-0.1-1.6s0.3-1.6,0.4-1.5s0.2,0.7,0.1,1.6S242.5,388.3,242.4,388.3z"/>
<path class="st15" d="M241.7,394.6c-0.1,0-0.2-0.7-0.1-1.6s0.3-1.6,0.4-1.5s0.2,0.7,0.1,1.6S241.9,394.6,241.7,394.6z"/>
<path class="st15" d="M241.1,400.9c-0.1,0-0.2-0.7-0.1-1.6s0.3-1.6,0.4-1.5s0.2,0.7,0.1,1.6S241.3,400.9,241.1,400.9z"/>
<path class="st15" d="M240.5,407.2c-0.1,0-0.2-0.7-0.1-1.6s0.3-1.6,0.4-1.5s0.2,0.7,0.1,1.6S240.6,407.2,240.5,407.2z"/>
<path class="st15" d="M239.9,413.5c-0.2,0-0.2-0.7-0.1-1.6s0.3-1.6,0.4-1.5s0.2,0.7,0.1,1.6S240,413.5,239.9,413.5z"/>
<path class="st15" d="M239.3,419.8c-0.1,0-0.2-0.7-0.1-1.6s0.3-1.6,0.4-1.5s0.2,0.7,0.1,1.6S239.4,419.8,239.3,419.8z"/>
<path class="st15" d="M238.6,426.1c-0.1,0-0.2-0.7-0.1-1.6s0.3-1.6,0.4-1.5s0.2,0.7,0.1,1.6S238.8,426.1,238.6,426.1z"/>
<path class="st15" d="M238,432.4c-0.1,0-0.2-0.7-0.1-1.6s0.3-1.6,0.4-1.5s0.2,0.7,0.1,1.6S238.2,432.4,238,432.4z"/>
<path class="st15" d="M237.7,435.8c-0.1,0-0.3-0.1-0.3-0.1s0.1-0.1,0.3-0.1s0.3,0.1,0.3,0.1S237.9,435.8,237.7,435.8z"/>
<path class="st5" d="M239.8,344.6c-0.6,0.9-1.3,1.7-2.1,2.4c-0.7,0.8-1.6,1.4-2.5,1.9C236.4,347.2,238,345.7,239.8,344.6z"/>
<path class="st5" d="M242.1,345.8c-1.1,0.8-2.3,1.4-3.5,1.9c-1.2,0.6-2.4,1.1-3.8,1.4c1.1-0.8,2.3-1.4,3.5-1.9
	C239.5,346.5,240.8,346.1,242.1,345.8z"/>
<path class="st15" d="M175.3,274.1c0,0-3.4-35.9-9.3-51.6l1.2-0.9l-1.8-6.2l-22.3-2.7l0.3,4.8c-3.3,1.5-6,4-7.6,7.2
	c-8,16.9-4,36.7-8.3,73.4c0,0-5,17.2,0.2,22.6l48.6-11.3l-2.3-11.1c21.2-0.4,56.1-4.3,56.1-4.3l-1-20.1
	C229.1,274,177,274.3,175.3,274.1"/>
<path class="st1" d="M165.3,215.4c0.7,1.3,1.2,2.6,1.6,4c0.2,0.5,0.4,1.1,0.4,1.7c0,0.3-0.1,0.6-0.3,0.8c-0.2,0.2-0.4,0.3-0.6,0.4
	c-0.8,0.3-1.3,0.1-1.3,0s0.5-0.1,1.1-0.4c0.3-0.2,0.6-0.5,0.6-0.9c-0.1-0.5-0.3-1-0.5-1.6C165.9,218.2,165.5,216.8,165.3,215.4z"/>
<path class="st5" d="M170.6,242.1c0,0.2-9,0.3-20,0.3s-20-0.1-20-0.3s9-0.3,20-0.3S170.6,242,170.6,242.1z"/>
<path class="st5" d="M168.6,232c0,0.1-7.9,0.3-17.7,0.3s-17.7-0.1-17.7-0.3s7.9-0.3,17.7-0.3S168.6,231.9,168.6,232z"/>
<path class="st5" d="M165.6,223.1c0,0.1-6.6,0.3-14.7,0.3s-14.6-0.1-14.6-0.3s6.6-0.3,14.6-0.3S165.6,223,165.6,223.1z"/>
<path class="st5" d="M165.4,216.8c-3.7,0.3-7.5,0.4-11.2,0.3c-3.7,0.1-7.5,0-11.2-0.3c0-0.1,5-0.3,11.2-0.3S165.4,216.7,165.4,216.8
	z"/>
<path class="st5" d="M172.1,251.8c0,0.1-9.5,0.3-21.1,0.3s-21.1-0.1-21.1-0.3s9.5-0.3,21.1-0.3S172.1,251.7,172.1,251.8z"/>
<path class="st5" d="M173.8,261.6c0,0.1-9.9,0.3-22,0.3s-22-0.1-22-0.3s9.9-0.3,22-0.3S173.8,261.5,173.8,261.6z"/>
<path class="st5" d="M174.9,270.6c0,0.2-10.1,0.3-22.6,0.3s-22.6-0.1-22.6-0.3s10.1-0.3,22.6-0.3S174.9,270.5,174.9,270.6z"/>
<path class="st5" d="M224.1,280.5c0,0.1-21.3,0.3-47.6,0.3s-47.6-0.1-47.6-0.3s21.3-0.3,47.6-0.3S224.1,280.3,224.1,280.5z"/>
<path class="st5" d="M224.4,288.3c0,0.2-21.5,0.3-47.9,0.3s-47.9-0.1-47.9-0.3s21.5-0.3,47.9-0.3S224.4,288.2,224.4,288.3z"/>
<path class="st5" d="M173.2,298.1c0,0.2-10.3,0.3-22.9,0.3s-22.9-0.1-22.9-0.3s10.3-0.3,22.9-0.3S173.2,297.9,173.2,298.1z"/>
<path class="st5" d="M175.6,307.1c0,0.1-11.1,0.3-24.9,0.3s-24.9-0.1-24.9-0.3s11.2-0.3,24.9-0.3S175.6,306.9,175.6,307.1z"/>
<path class="st5" d="M133.2,309.5c-0.2,0-0.3-17.5-0.3-39.1s0.1-39.1,0.3-39.1s0.3,17.5,0.3,39.1S133.3,309.5,133.2,309.5z"/>
<path class="st5" d="M145.2,308.5c-0.1,0-0.3-21.4-0.3-47.8s0.1-47.8,0.3-47.8s0.3,21.4,0.3,47.8S145.3,308.5,145.2,308.5z"/>
<path class="st5" d="M158.4,307.1c-0.1,0-0.3-20.6-0.3-46s0.1-46,0.3-46s0.3,20.6,0.3,46S158.6,307.1,158.4,307.1z"/>
<path class="st5" d="M169.6,309.4c-0.1,0-0.3-16.2-0.3-36.1s0.1-36.1,0.3-36.1s0.3,16.2,0.3,36.1S169.8,309.4,169.6,309.4z"/>
<path class="st5" d="M181.4,274c0.1,1.2,0.2,2.3,0.1,3.5c0,2.2,0,5.2-0.1,8.5s-0.2,6.3-0.3,8.5c0,1.2-0.1,2.3-0.3,3.5
	c-0.1-1.2-0.2-2.3-0.1-3.5c0-2.2,0-5.2,0.1-8.5s0.2-6.3,0.3-8.5C181.1,276.4,181.2,275.2,181.4,274z"/>
<path class="st5" d="M194,274.5c0.1,1.1,0.2,2.2,0.1,3.3c0,2,0,4.8-0.1,7.9s-0.2,5.9-0.3,7.9c0,1.1-0.1,2.2-0.3,3.3
	c-0.1-1.1-0.2-2.2-0.1-3.3c0-2,0-4.8,0.1-7.9s0.2-5.9,0.3-7.9C193.7,276.7,193.8,275.6,194,274.5z"/>
<path class="st5" d="M206.5,274.3c0.1,1.1,0.2,2.1,0.1,3.2c0,2,0,4.7-0.1,7.7s-0.2,5.7-0.3,7.7c0,1.1-0.1,2.1-0.3,3.2
	c-0.1-1.1-0.2-2.1-0.1-3.2c0-2,0-4.7,0.1-7.7s0.2-5.7,0.3-7.7C206.3,276.4,206.3,275.3,206.5,274.3z"/>
<path class="st5" d="M219.1,273.9c0.1,1,0.2,2.1,0.1,3.1c0,1.9,0,4.5-0.1,7.5s-0.2,5.5-0.3,7.5c0,1-0.1,2.1-0.3,3.1
	c-0.1-1-0.2-2.1-0.1-3.1c0-1.9,0-4.5,0.1-7.5s0.2-5.6,0.3-7.5C218.8,275.9,218.9,274.9,219.1,273.9z"/>
<path class="st5" d="M170.9,278.6c0.9-2.2,2.6-4.1,4.7-5.2c-0.7,0.9-1.5,1.8-2.4,2.6C172.5,276.9,171.7,277.7,170.9,278.6z"/>
<path class="st5" d="M173.8,278.8c-0.4-2,0.3-4.2,2-5.5c0.1,0.1-0.7,1.1-1.3,2.6S174,278.8,173.8,278.8z"/>
<path class="st5" d="M225,293.9c-0.6-3.2-0.9-6.4-1.1-9.6c-0.4-3.2-0.6-6.4-0.6-9.6c0.6,3.2,1,6.4,1.1,9.6
	C224.8,287.5,225,290.7,225,293.9z"/>
<path class="st5" d="M225.6,278.5c0,0.1-0.3,0.3-0.3,0.8c0,0.3,0.1,0.5,0.3,0.7c0.2,0.2,0.6,0.3,0.8,0.1c0.3-0.1,0.5-0.4,0.5-0.7
	c0-0.3-0.2-0.5-0.4-0.7c-0.4-0.3-0.8-0.2-0.8-0.3s0.4-0.4,1,0c0.4,0.2,0.6,0.6,0.7,1c0,0.5-0.3,1-0.8,1.2c-0.5,0.2-1.1,0.1-1.4-0.3
	c-0.3-0.3-0.4-0.7-0.3-1.1C225.1,278.5,225.6,278.4,225.6,278.5z"/>
<path class="st5" d="M175.2,274h0.3l0.7,0.1c0.6,0.1,1.6,0.1,2.9,0.2c2.5,0.1,6.2,0.1,10.9,0.1c9.4-0.1,22.9-0.4,39-1h0.2v0.2
	c0.3,6.2,0.7,13,1,20.2v0.2H230c-2.6,0.5-5.1,0.7-7.8,1l-8.1,0.7c-5.5,0.5-11.1,0.9-16.9,1.3l-21.1,1.4l0,0
	c-6.1-0.4-12.1-2.6-16.2-6.6c-2-1.9-3.7-4.3-4.7-6.9c-1-2.5-1.8-5-2.4-7.6c-2.5-10-4-19.1-5.3-26.7c-0.6-3.8-1.1-7.2-1.5-10.2
	c-0.5-2.5-0.8-5.1-0.9-7.7c-0.1-1.6,0.3-3.3,1-4.7c0.3-0.5,0.6-0.9,1-1.3c-0.4,0.4-0.7,0.9-0.9,1.4c-0.7,1.5-1,3.1-0.9,4.7
	c0.2,2.6,0.5,5.1,1,7.6c0.5,3,1,6.4,1.6,10.2c1.3,7.5,2.9,16.6,5.4,26.6c0.6,2.6,1.4,5.1,2.4,7.5c1,2.6,2.6,4.9,4.6,6.8
	c4,3.9,9.9,6.1,15.9,6.5l0,0l21.1-1.4l16.9-1.3l8.1-0.7c2.6-0.3,5.3-0.5,7.7-0.9l-0.2,0.3c-0.3-7.1-0.7-14-1-20.2l0.3,0.2
	c-16.1,0.6-29.6,0.9-39,0.9c-4.7,0-8.4-0.1-10.9-0.2c-1.3-0.1-2.2-0.1-2.9-0.3l-0.7-0.1C175.4,274,175.3,274,175.2,274z"/>
<path class="st5" d="M175.2,274c-0.2-0.5-0.4-1-0.5-1.6c-0.3-1-0.7-2.5-1.2-4.3c-1-3.7-2.1-8.8-3.4-14.4s-2.4-10.8-3.3-14.4l-1-4.4
	c-0.2-0.5-0.3-1.1-0.3-1.6c0.2,0.5,0.4,1,0.5,1.6c0.3,1,0.7,2.5,1.2,4.3c1,3.7,2.2,8.8,3.5,14.4c1.3,5.6,2.3,10.7,3.2,14.4
	c0.4,1.8,0.7,3.3,1,4.4C175,272.9,175.1,273.5,175.2,274z"/>
<path class="st5" d="M165.4,215.8c0,0.4,0,0.7-0.1,1.1c-0.1,0.7-0.3,1.7-0.5,3c-0.1,0.7-0.2,1.4-0.4,2.1c-0.1,0.5-0.5,0.8-0.9,1
	c-0.4,0.1-0.9,0.1-1.3,0c-1.6-0.3-3.4-0.8-5.3-1.3c-3.8-1-7.1-2.1-9.5-2.9l-2.9-0.9c-0.3-0.1-0.7-0.2-1-0.4c0.4,0,0.7,0.1,1.1,0.2
	c0.7,0.2,1.7,0.4,2.9,0.7c2.5,0.6,5.8,1.7,9.6,2.7c1.9,0.5,3.6,1,5.3,1.3c0.4,0.1,0.7,0.1,1.1,0.1c0.3-0.1,0.5-0.4,0.6-0.7
	c0.2-0.6,0.3-1.4,0.5-2c0.3-1.2,0.5-2.2,0.6-2.9C165.2,216.6,165.3,216.2,165.4,215.8z"/>
<polygon class="st5" points="147.9,354.3 154.9,449.1 157.8,448.4 156.7,356.3 "/>
<polygon class="st5" points="118.3,357.5 97.1,449 100.9,449 131.3,357.5 "/>
<polygon class="st5" points="174.4,357.5 203.4,449 206.5,449 183.5,357.5 "/>
<polygon class="st5" points="178.3,363.7 113.4,406.1 113.4,408.4 180.1,363.7 "/>
<polygon class="st5" points="123.3,363.7 193.6,411 193.6,407.4 125.3,361.6 "/>
<path class="st6" d="M108.6,359.1l83.6-1.5c3-0.1,5.3-2.5,5.2-5.4c0-0.2,0-0.4,0-0.6l0,0c-0.3-2.7-2.6-4.8-5.4-4.7l-84.8,1.4
	L108.6,359.1z"/>
<g class="st13">
	<path d="M108.6,359.1l83.6-1.5c3-0.1,5.3-2.5,5.2-5.4c0-0.2,0-0.4,0-0.6l0,0c-0.3-2.7-2.6-4.8-5.4-4.7l-84.8,1.4L108.6,359.1z"/>
</g>
<path class="st6" d="M100.1,294.5l8.4,64.6l65.9-1.6l-0.2-39.3c0.1-6.1-4.8-11.1-10.8-11.2c-0.4,0-0.8,0-1.2,0l-50.3,4.5l-6.6-68.5
	l-6.7-0.6c-2.6-0.2-4.8,1.8-5,4.3c0,0.3,0,0.7,0,1L100.1,294.5z"/>
</svg>
