<?xml version="1.0" encoding="utf-8"?>
<!-- Generator: Adobe Illustrator 23.0.5, SVG Export Plug-In . SVG Version: 6.00 Build 0)  -->
<svg version="1.1" id="Layer_1" xmlns="http://www.w3.org/2000/svg" xmlns:xlink="http://www.w3.org/1999/xlink" x="0px" y="0px"
	 width="500px" height="500px" viewBox="0 0 500 500" style="enable-background:new 0 0 500 500;" xml:space="preserve">
<style type="text/css">
	.st0{fill:#7952B3;}
	.st1{opacity:0.7;fill:#FFFFFF;enable-background:new    ;}
	.st2{fill:#FFFFFF;}
	.st3{opacity:0.2;enable-background:new    ;}
	.st4{fill:#2F55D4;}
	.st5{opacity:0.6;fill:#FFFFFF;enable-background:new    ;}
	.st6{fill:none;stroke:#263238;stroke-linecap:round;stroke-linejoin:round;}
	.st7{fill:#263238;}
	.st8{fill:none;stroke:#263238;stroke-width:2;stroke-linecap:round;stroke-linejoin:round;}
	.st9{fill:none;stroke:#FFFFFF;stroke-width:0.5;stroke-linecap:round;stroke-linejoin:round;}
	.st10{opacity:0.38;fill:#FFFFFF;enable-background:new    ;}
</style>
<path class="st0" d="M214.9,117.9c-9.3-9.2-17.8-18.9-31.3-23.1c-28-8.7-61.2-3.4-83.8,16.3c-31.3,27.3-38.6,73.2-33.6,110.5
	c5.7,42.2,23.3,83,52.7,114.6c32.1,34.5,77.1,57,124.6,68.2c25.7,6,52.7,9,79.2,5s52.6-15.3,70.9-34.3
	c25.4-26.4,32.9-64.2,30.4-99.1c-1.8-24.5-8.6-49.4-25.7-67.4c-31.9-33.4-84.5-35.9-126.1-54c-17-7.4-33.2-16.5-47.5-27.9
	C221.2,124,218,121,214.9,117.9z"/>
<path class="st1" d="M214.9,117.9c-9.3-9.2-17.8-18.9-31.3-23.1c-28-8.7-61.2-3.4-83.8,16.3c-31.3,27.3-38.6,73.2-33.6,110.5
	c5.7,42.2,23.3,83,52.7,114.6c32.1,34.5,77.1,57,124.6,68.2c25.7,6,52.7,9,79.2,5s52.6-15.3,70.9-34.3
	c25.4-26.4,32.9-64.2,30.4-99.1c-1.8-24.5-8.6-49.4-25.7-67.4c-31.9-33.4-84.5-35.9-126.1-54c-17-7.4-33.2-16.5-47.5-27.9
	C221.2,124,218,121,214.9,117.9z"/>
<path class="st2" d="M390.5,172.3l2.7-5.8c0,0,0-0.2,0-0.5l0,0c0,0-0.3-9.8-0.8-12.9c-0.3-2.3-1.3-2.6-1.8-2.6
	c-0.7-0.6-1.4-1-2.2-1.4c-2.2-1.3-4.5-2.5-6.9-3.6c-2.4-1.2-4.4-1.9-5.2-0.6c-0.4,0.6-0.7,1.1-0.9,1.8c-0.1,0.2-0.1,0.3-0.2,0.5v0.1
	c-0.2,0.5-0.3,1-0.4,1.5l-3.4,2.5l-1,0.5l2,10.4l5.9,6.9c0,0,0,0.3-0.1,0.7c-0.7,3.3-2.3,6.3-4.5,8.9c-0.8,0.8-1.6,1.6-2.4,2.5
	c-0.3,0.3-0.5,0.5-0.8,0.7c-4.3,3.7-5.9,6.6-6.6,8.8v0.1c-3-2.8-6.1-5.4-9.4-7.9c-0.7-0.6-7.4-6.4-12.1-10.9l-3.6-5.9
	c1.2,2.1-0.9-1.8-1.1-2.2c-2.1-4.7-3-9.9-5.5-14.5c-3.7-7-12.2-12.3-20.5-13.4l4-9l-3.9-1.6c0.1,0.1,0.2,0.2,0.4,0.2
	c0.9,0.3,2.6,0.9,4.7,1.6c13.8,5.3,17.7,2,18,1.7c1.1-0.6,1.7-1.8,1.6-3l-1.2-17.4c0-0.4,0.1-0.9,0.4-1.2l3-3.3
	c0.5-0.6,0.6-1.4,0.1-2l-4.1-5.8c-0.2-0.3-0.3-0.7-0.3-1.1l0.5-4.3c0-0.3,0-0.6-0.2-0.9l-5.6-10.8c1.1-0.6,2.1-1.4,2.8-2.4
	c3.1-5,3-8.1,0.9-9.3s-6.3,6-16.6,3.7c-5.2-1.1-16.1,9.1-20.1,17.2l4.3-9.8c-4.3,5.7-6.7,7.4-5.8,10c-0.1,0.1-0.3,0.2-0.5,0.3
	c-3.7,2.9-4,5.9-4,5.9c-1,3.5,0.4,8.7,6.3,15.6l-10.5,14c-0.8-0.5-1.7-0.9-2.6-1c-4.3-0.7-10.5,1.5-12.5,2.3
	c-1.1-0.3-2.1-0.5-3.1-0.7c-2.9-1-5.9-1.5-9-1.6c-3.2-0.3-6.4-0.2-9.5,0.5c-1.8,0.5-3.6,1.1-5.3,1.9c-1.6,0.6-3,1.4-4.5,2.2
	c-1.5,0.8-2.9,1.7-4.2,2.7c-4.1,2.9-7.8,6.3-11,10.2l-3.3,3.9c-1.2,1.3-2.4,2.5-3.6,3.8c-5.3,5.5-11,10.5-17.1,15.2
	c-5.8,3.5-12,6.4-18.5,8.4c-4.5,1.4-9.2,2.7-13.9,3.8c-5,1.1-10.1,2-15.2,3c-2.6,0.4-5.3,1-7.8,1.6c-2.8,0.6-5.6,1.3-8.3,2
	c-3.3,0.7-6.5,1.7-9.6,2.9c-0.9,0.3-1.8,0.7-2.7,1c0.6,0.1,1.2,0.3,1.8,0.5c3.5,1.5,6.7,3.5,9.5,6.1c3.1,3.8,5,8.4,5.5,13.3
	c-0.1,4.3-1.5,9.2-2.6,14c-1.5,5.1-2.8,9.6-0.8,13.5c0.5,1.2,1.1,2.3,2,3.3c1.2,1.4,2.5,2.7,4.1,3.7c2.8,2.2,6,4.3,8.5,6.9
	c1.8,2.9,3.4,5.9,4.7,9c0.7,2.2,1.5,4.2,2.5,6.2c0.4,1,0.9,2,1.4,3c0.3,0.6,0.6,1.1,0.9,1.6c3.1,4.8,7.4,8.7,12.4,11.3
	c4.5,2.9,9.7,4.6,15.1,4.9l0,0c-0.4,1.8-0.6,3.6-0.8,5.5c-3.6,1-7.1,2.3-10.4,4c-6.4,2.6-14.2,6.5-19.1,10.9
	c-3.9,3.5-7.3,7.6-9.9,12.2c-3.1,5.2-5.5,10.8-7.2,16.6c-0.8,2.3-1.4,4.6-2.1,6.8l-0.1-0.1c0,0.3-0.1,0.5-0.1,0.8
	c-0.8,2.7-1.6,5.4-2.4,7.8c-3.3,7.5-8.7,15-11.3,18.9l0,0c-1.4,1.8-2.8,3.5-4.3,5.2c-3.2,3.5-7.3,7.7-10.4,11.3
	c-1,1.1-1.9,2.2-2.7,3.4c-0.7,0.9-1.2,1.8-1.7,2.8c-2.4,5.5,2.9,9.4,6.6,14.1c0,0,0.1,0.1,0.1,0.1c1.2,2.5,1.9,5.1,2.2,7.8
	c-0.1,2.5,0.1,4.9,0.7,7.3c0.6,1.9,1.7,3.6,3.1,5c1.8,2,4,3.7,6.4,5c1.2,0.7,2.4,1.4,3.7,1.9c3.7,1.5,16.1,1.4,18.9-3.4
	c0.2-0.3,0.3-0.6,0.5-0.9c0.3-0.6,0.5-1.2,0.6-1.9c0.3-1.9-0.4-3.8-1.9-5c-0.1,0.1,0.3,0.4,0.3,0.5c-4.4-6.5-16.1-14.1-16-20.8
	c0.2-12.6,7.9-21.4,16.6-29.6c8.5-8,18.9-9.3,26.8-17.8c5.1-5.4,10.7-11,14.1-22.3c20.6-6.3,25.7-23.2,25.7-23.2
	c2.1-0.9,3.9-1.7,5.8-2.6c5.6,8.5,9.7,14.1,10.3,13.8l45.4-30.5c1,1.2,10,11.8,18.7,14.6l0.3,0.1l9.1,4.6c-1.6,5.5-9.2,7.1-9.2,7.1
	v0.1l-0.7,0.1c-1.6-0.1-10.7,0-18.5,8.5c-3.7,3.6-8.6,10.1-12.2,15.2c-3,4.2-5.1,7.2-5.1,7.2c-1.4,0.3-2.7,0.7-4,1.2
	c-8.4,3-9.2,6.7-8.7,8.7c0,0.3,0,0.7,0.1,1c0.3,1.1,1,2.2,1.8,3c0.9,1,1.9,1.9,2.9,2.7c1.6,1.4,2.9,3,3.9,4.8c1,2.7,1.8,5.5,2.4,8.3
	c1.3,5.5,7.8,17.8,16.8,18.3c2.2,0.2,4.3,0,6.5-0.5c1.5-0.3,2.9-0.8,3.1-2c0-0.1,0.1-0.2,0.1-0.3c0,0-0.1-0.1-0.1-0.3
	c-0.1-0.3-0.1-0.6-0.3-0.9c-1.2-2.3-2.6-4.5-4.1-6.6c-2.5-4.8-4.2-9.9-5.1-15.1c0-0.3-0.1-0.7-0.1-1c-0.2-1.5-0.4-3.2-0.5-4.9
	c0-0.2,0-0.4,0-0.5c-0.1-2.6,0.4-5.2,1.5-7.5c1.7-2.8,4.9-4.3,7.9-5c2.2-0.5,4.9-1.3,7.9-2.1c3.7-0.9,7.3-2.1,10.9-3.5
	c12.1-4.3,24.6-10.2,26.9-16c3.5-9.1,10.5-19,10.5-19c-3.5-22.8-20.9-48.3-20.9-48.3l46.9-31.7c0.4-0.3-1.3-3.6-4.3-8.8l0.8,1.3l0,0
	l0,0c3.1,1.8,8.7,2.6,12,2.9l0.7,0.1c0.5,0.1,1,0.1,1.6,0.1c3.6-3.2,6.8-9.1,8.9-15c2.9-6.9,4.8-14.2,5.6-21.7
	c0.5-3.5,0.7-7.1,0.4-10.6C390.7,174.8,390.6,173.6,390.5,172.3z M295.1,112.6c0.4-0.6,0.7-1.2,1.1-1.7l0,0l0.1-0.3
	c1.1-1.8,1.7-2.9,1.7-2.9l-0.4-0.1l0.1-0.3l0.3,0.4C297.2,109.4,296.3,111.1,295.1,112.6z"/>
<path class="st0" d="M369.2,184c0,0,3.7,12.3,19.4,8.8c0,0,3.2-8,1.5-20.2l2.9-6.2c0,0-0.9-9.7-0.7-11.1s0.2-4.4-4.4-6.3
	s-10.2-6.6-11.8-4.1s-1.4,3.8-1.4,3.8l-4,2.9l1.5,10.6l5.9,6.9c0,0-0.8,6.3-3.9,9C372.3,179.9,370.6,181.8,369.2,184z"/>
<path class="st3" d="M385,193.6c0,0,3.8-16.3,1.3-25.9c0,0,5.5-5.1,3.9-17.1c0,0,1.6-0.4,2,2.6S393,166,393,166l-2.7,6.2
	c0,0-0.2,14.1-1.1,19.7C389.2,191.9,389,193.1,385,193.6z"/>
<path class="st4" d="M310.8,138.9l50.6,74c0,0,3,3.1,10.3,4.4c0,0,10.8-12,13.2-23.8l4-0.8c0,0-4.6,23.3-13,30.7
	c0,0-10.1-0.5-14.6-3.1l-50.9-80.6L310.8,138.9z"/>
<path class="st5" d="M310.8,138.9l50.6,74c0,0,3,3.1,10.3,4.4c0,0,10.8-12,13.2-23.8l4-0.8c0,0-4.6,23.3-13,30.7
	c0,0-10.1-0.5-14.6-3.1l-50.9-80.6L310.8,138.9z"/>
<path class="st6" d="M311.7,136.3c8.6,0.6,16.2,5.6,20.3,13.1c2.4,4.6,3.3,9.8,5.5,14.5c3.5,7.8,10.1,13.8,16.9,19.1
	c4.3,3.3,8.7,6.5,12,10.8c1.7,2.2,2.9,4.6,3.6,7.3"/>
<path class="st6" d="M363.8,190.7c0.7-2.2,2.4-5,6.6-8.7c7.2-6.3,7.7-12.8,7.7-12.8l-5.9-6.9l-2-10.4l4.3-2.2c0,0,0.3-3.8,2.4-4.9
	s12.3,4.9,14.5,6.6c1.4,1.1,0.6,6.6,1.5,14.7c-1.5,3.5-2.7,6.2-2.7,6.2c2.6,30.9-14.4,51.3-14.4,51.3c-5-0.3-9.9-1.3-14.6-3.1"/>
<path class="st6" d="M375.6,153.2l3.1,2.8c0.4,0.4,0.9,0.8,1.5,1.1c0.8,0.6,1.7,1,2.7,1.1c0.8,0,1.6-0.1,2.4-0.4
	c0.7-0.3,2.2-3,2.4-3.7"/>
<path class="st6" d="M369.1,183.3c0,0,3.2,13.7,20.2,9.2"/>
<path class="st6" d="M381.8,145.9c-1.7,0.7-3.1,2.1-3.7,3.8c-0.8,1.7-0.9,3.8-0.1,5.6"/>
<path class="st6" d="M386.6,148.2c-2.2,0.7-3.9,2.2-4.8,4.3c-0.7,1.6-0.9,3.4-0.4,5.1"/>
<path class="st6" d="M380.7,157.5c1.1,0.6,2.1,1.4,3,2.3c1.8,2.1,2.2,5,2.5,7.7"/>
<path class="st6" d="M374.5,149.6c0,0,3.3-2,3.8-0.9"/>
<path class="st0" d="M161.8,361.3c0,0-19.1-5-21.9-21.5c-2.6,8-6.4,15.7-11.1,22.7c-7.5,10.8-22.3,23.1-22.3,27.4s0.8,7,4.7,10.6
	s4.3,13.2,4.4,15.4c0.6,4.7,3.2,9,7.1,11.7c5.6,4,14.5,5.6,21.1,2.9s6.1-7.8,3.9-10.2s-15.5-14.7-16-18.8s0.9-12.5,5.4-19.2
	S152.4,365.4,161.8,361.3z"/>
<path class="st6" d="M315.7,127.3c0,0-4.1,6.7-5.3,12.5"/>
<path class="st4" d="M319.6,82.2c1.4,4.1,2.6,8.6,1.2,12.8c-0.9,2.5-2.6,4.7-3.5,7.2c-1,2.7-0.9,5.7-0.8,8.6
	c0.2,3.9,0.4,8.1,2.9,11.2c3.5,4.5,10.1,4.8,15.4,7.1c0,0-3.5,3.9-18.1-1.7l-5-1.8l-2.6,12.1c0,0-1.6-2.6-4-2.2s-8.9,5.2-8.9,5.2
	s-3.7-3.7-4.5-6.2s-3.1-8.4-5.7-9.8c0,0,11-13.3,12.2-16.9c0,0-6.2-8.2,0.9-11.4s11.1,5,11.1,5l-2.5-10.7l9.6-8.1L319.6,82.2z"/>
<path class="st5" d="M319.6,82.2c1.4,4.1,2.6,8.6,1.2,12.8c-0.9,2.5-2.6,4.7-3.5,7.2c-1,2.7-0.9,5.7-0.8,8.6
	c0.2,3.9,0.4,8.1,2.9,11.2c3.5,4.5,10.1,4.8,15.4,7.1c0,0-3.5,3.9-18.1-1.7l-5-1.8l-2.6,12.1c0,0-1.6-2.6-4-2.2s-8.9,5.2-8.9,5.2
	s-3.7-3.7-4.5-6.2s-3.1-8.4-5.7-9.8c0,0,11-13.3,12.2-16.9c0,0-6.2-8.2,0.9-11.4s11.1,5,11.1,5l-2.5-10.7l9.6-8.1L319.6,82.2z"/>
<path class="st6" d="M328.6,78.8l5.9,11.4c0.1,0.3,0.2,0.6,0.2,0.9l-0.5,4.3c0,0.4,0.1,0.8,0.3,1.1l4.1,5.8c0.4,0.6,0.4,1.4-0.1,2
	l-3,3.3c-0.3,0.3-0.4,0.7-0.4,1.2l1.2,17.4c0.1,1.4-0.7,2.7-2,3.2c-1.4,0.5-3,0.7-4.5,0.8c-5.2,0.2-15.1-3.3-17.7-4.3
	c-0.4-0.1-0.7-0.5-0.9-0.9l-4.3-10.2"/>
<path class="st6" d="M306.3,101.5c0,0-3-6.7-5.6-6s-5.6,3-5.6,6.1s4.8,8.4,6.8,8.8c1.5,0.2,3,0.1,4.4-0.3"/>
<path class="st7" d="M330.2,96.7c0,1-0.4,1.8-0.9,1.8s-0.9-0.8-0.8-1.8s0.4-1.8,0.9-1.8S330.2,95.7,330.2,96.7z"/>
<path class="st6" d="M326.6,108.5c0,2.2,1.6,4.1,3.7,4.5"/>
<path class="st8" d="M330.4,90.4c0,0-4.5-3.9-7.1,3.3"/>
<path class="st6" d="M297.1,107.6l0.8,0.2c0,0-6.1,11.1-12.2,16.9"/>
<path class="st6" d="M299.3,109c0,0-2.5,19.1,1,27.9"/>
<path class="st6" d="M294.9,90.3c0,0-4.1-8.1,1.7-15.7"/>
<path class="st6" d="M296.4,88.9c-7.9-0.4-10.2,9-10.2,9"/>
<path class="st7" d="M332.5,67.7c-2.1-1.2-6.3,6-16.6,3.7c-6.6-1.4-22.4,2.9-21.5,17.3c0,0-12.1,7,1.7,22.1l1.8-4.1
	c0,0-5.7-6.1-0.8-9.3c4.4-2.7,4.9-2.4,9.1,4.2c0,0,1.4,2.9,4.1,2.1s2.6-1.9,1.5-4.7c-0.4-1-1.1-2.7-1.6-4.6
	c2.5-0.7,8.4-3.3,8.4-11.5V83c5.3-1.5,11.4-3.2,13.2-6.1C334.7,72,334.6,68.9,332.5,67.7z"/>
<path class="st9" d="M297.2,88.4c-0.8-4.5,2.3-8.9,6.3-11.1s8.7-2.5,13.3-2.6c2.9,0.1,5.8-0.1,8.6-0.7c1-0.2,2-0.6,2.9-1"/>
<path class="st9" d="M299.4,90.8c0.6-3.5,3.4-6.3,6.9-7c1.8-0.3,3.7,0,5.5-0.4s3.6-1.8,3.6-3.6"/>
<path class="st6" d="M253.9,170.2l47.9-34.1c2.2-1.6,5.3-1.1,6.8,1.1c0.1,0.1,0.2,0.2,0.2,0.4c0,0,58.1,88.8,55.9,90.2l-133.9,90.1
	c-2.3,1.4-55.7-86.2-55.7-86.2c-1.4-2.2-0.8-5.1,1.3-6.6l25.4-18.4"/>
<path class="st4" d="M288.9,278.4c2.4,5.8,7.6,9.9,12.8,13.4s10.6,7,14.1,12.2s4.1,12.9-0.2,17.4c-0.8,1-2,1.5-3.3,1.4
	c-2.8-0.6-2.3-5.2-4.6-6.9c-3.5,4.9-10.7,6.8-14.7,7.4l2.1-9.4c0,0,5.3-0.6,9.3-6.3c0,0-0.2-2.5-9.4-5.5s-18.8-14.8-18.8-14.8
	L288.9,278.4z"/>
<path class="st5" d="M288.9,278.4c2.4,5.8,7.6,9.9,12.8,13.4s10.6,7,14.1,12.2s4.1,12.9-0.2,17.4c-0.8,1-2,1.5-3.3,1.4
	c-2.8-0.6-2.3-5.2-4.6-6.9c-3.5,4.9-10.7,6.8-14.7,7.4l2.1-9.4c0,0,5.3-0.6,9.3-6.3c0,0-0.2-2.5-9.4-5.5s-18.8-14.8-18.8-14.8
	L288.9,278.4z"/>
<path class="st0" d="M304.1,341.5c0,0-14.8-7.7-9.5-27.4c0,0-10.1-0.9-18.7,8.5s-17.3,22.4-17.3,22.4s-12.8,3.9-12.6,8.8
	s3.8,7.1,6.3,9.1s3.6,6.5,4.9,12c1.3,5.5,7.8,17.8,16.8,18.3s9.6-2.8,9.6-2.8s-1.9-3.4-4.4-7.5s-5.9-14-5.9-21.9s3.1-11.3,8.6-12.6
	S297.4,345.1,304.1,341.5z"/>
<path class="st6" d="M276.6,287.6c-1.5-1.6,9.1,11.2,20.3,15.1c11,3.9,11,9.4,11,9.4"/>
<path class="st6" d="M317.8,259.6c0,0,17.4,25.4,20.9,48.2c0,0-7,9.9-10.5,19s-33.2,18.7-45.6,21.7c-3.4,0.8-6.8,2.5-8.4,5.7
	c-1.8,3.6-0.9,8.4-0.5,12.3c0.4,4.2,1.5,8.4,3.1,12.3c1.7,3.8,4.5,6.8,6.2,10.4c1.4,3-2.2,3.4-4.5,3.7
	c-13.8,1.9-20.6-13.2-22.3-21.9s-9.6-10.8-10.4-15.1c-1.6-7.9,12.6-11,12.6-11c-0.3,0.6,10.5-15.8,17.3-22.4c2.6-2.6,5.5-5.1,9-6.4
	s7.6-1.5,11.4-2.5s7.6-3.2,8.4-6.8"/>
<path class="st6" d="M294.7,314.2c0,0-7.1,17.9,9.8,27.4"/>
<path class="st6" d="M281.3,284.3c5.3,6.5,12.1,11.5,19.9,14.5"/>
<path class="st6" d="M296.9,317.2c-3.3,0.2-6.5,0.9-9.6,2c-3.1,1.1-5.9,3.1-8,5.6"/>
<path class="st3" d="M293.2,323.6c-6.1,2.3-11.9,5-17.5,8.3c-5.6,3.2-10.4,7.7-14.1,13.1c-0.4,0.7-0.9,1.4-1.4,2
	c-1.3,1.3-3.3,1.7-5.1,2.4c-3.9,1.5-8.6,7.6-8.5,7.2c0,0-5.8-7,11.9-11.7c0,0,9.1-13.2,15.1-19.9s9.5-9.8,20.6-10.9L293.2,323.6z"/>
<path class="st0" d="M294,141.7l1.2-1.1c-1.6-2.3-3.1-4.8-4.3-7.3c-1.3-3-2.8-8.9-7.9-9.7s-13,2.5-13,2.5s-11.3-4.3-21.1-2
	c0,0-13.5,3.3-25,17.1s-20.5,24.2-42.4,31.2s-48.7,9.4-56.9,14.4c0,0,15.2,5.2,16.2,17.7s-7.3,22.1-3.4,29.7s11.1,9.2,14.3,13.5
	s7.1,14.6,8.9,18.6s13.6,16.3,28.4,17.7c0,0,2.9-13.4,6.6-19l-20.4-33.4c0,0-2.4-3.7,1.6-7s25-17.9,25-17.9s-3.4-6.4-4.1-11.5
	c-0.5-3.2-2-6.1-4.4-8.3c0,0,2.4-7.3,7.9-11.6s16.1-14.4,20.7-20.9s14.9-25.8,33.8-28.1c3.7,1.3,7.2,3.3,10.2,5.9
	C271.1,136.6,281.1,144.3,294,141.7z"/>
<path class="st3" d="M189,284c0,0-12.6,0-23.3-11.7s-8-17.6-12.8-23.2s-13.4-9.1-15.5-14.9s2.7-19.9,3.4-24.8s-2.5-19.1-16.1-22.6
	c0,0,15.9-5.8,29.7-7.9s33.2-7.3,42.2-12.5s24.1-20.8,27-24.2s13.7-14.8,22-16.8c6.7-1.6,10.3,0.8,10.3,0.8s-16,3.4-24.5,14.1
	c-6.9,8.5-8.2,15.2-17.4,23.9s-17.3,12.8-20.5,21.8c0,0,3.4,4.9,3.9,7.9s4.7,12.7,4.7,12.7l-25.4,18.4c0,0-4,2.3-1.2,7.2
	s20.4,33,20.4,33S188.7,279.1,189,284z"/>
<path class="st10" d="M271,125.9c0,0,10.5-3.6,13.9-1.6s10.4,16.8,10.4,16.8l-1.9,1.6c0,0-14.7-1.4-20-5.2s-12-11.9-24.1-12.8
	C249.3,124.8,256.1,122,271,125.9z"/>
<path class="st6" d="M247.8,124.7c-13.2,3.8-17.3,10.4-24.4,17.4c-5.2,5.2-9.9,10.8-15.3,15.8c-22.4,20.7-55.8,17.7-84.3,28.8
	c8.5,1.5,15.2,8.2,16.6,16.8c1.6,9.2-6.4,22.7-2.7,31.3c2.4,5.6,9.1,7.8,13.4,12.2c5,5.2,6,12.9,9.4,19.2
	c5.7,10.4,16.6,15.9,28.4,17.8"/>
<path class="st6" d="M195.1,189.5c-1.6,1.6-3.1,3.4-4.6,5.1c-7.9,8.3-18.9,12.9-29.6,17.3"/>
<path class="st6" d="M197.9,197c-5.9,7-14.2,10.4-22.3,14.8s-16.2,10.1-19.3,18.8"/>
<path class="st6" d="M275.4,130.5c-10.2-11.8-30-5.1-30-5.1c7.6-1,13.3,0,24.5,9.4c8.7,7.3,19.2,7.7,23.2,7.4"/>
<path class="st6" d="M269.8,126.1c3.3-0.9,6.6-1.7,10-2.3c0.9-0.2,1.8-0.3,2.8-0.2c2,0.3,3.7,1.5,4.9,3.1c1.1,1.6,2,3.4,2.8,5.2
	c1.4,3,3.1,5.9,5.1,8.6"/>
<path class="st4" d="M205.4,281.3c0,0-11.8,9.5-15,25.3c-2.2-2.3-2.9-5.6-2-8.6c0,0-33,14.1-45.8,49.8l-2.8-8
	c0,0,4.4-25.2,20.4-36.4c16.1-11.3,27.9-14,27.9-14s2-17.4,7.5-23.7L205.4,281.3z"/>
<path class="st5" d="M205.4,281.4c0,0-11.8,9.5-15,25.3c-2.2-2.3-2.9-5.6-2-8.6c0,0-33,14.1-45.8,49.8l-2.8-8
	c0,0,4.4-25.2,20.4-36.4c16.1-11.3,27.9-14,27.9-14s2-17.2,7.5-23.4L205.4,281.4z"/>
<path class="st6" d="M220.6,304.1c-2,0.9-3.7,1.7-5.9,2.6c0,0-5.1,16.9-25.7,23.2c-3.5,11.3-9,16.9-14.1,22.3
	c-7.9,8.4-18.3,9.8-26.8,17.8c-8.8,8.2-16.4,16.9-16.6,29.6c-0.2,10.1,26.9,22.3,14.3,29.8s-29.5-2.8-30-12.5s-2.2-13.4-7-18.7
	c-5.4-5.9-1.3-11,3.4-16c9.7-10.3,18-19.5,24.1-32.4c4.7-13.2,7.8-32.8,22.4-45.7c9.5-8.5,29.6-14.8,29.6-14.8s0.9-13,7.5-24.1"/>
<path class="st6" d="M139.7,339c0.4-1,3,19.9,22.7,21.8"/>
<path class="st6" d="M173.9,298.7c-8,3.7-14.6,9.8-18.9,17.6"/>
<path class="st6" d="M182.7,295.7c-2.3,0.5-4.5,1.2-6.7,2.1"/>
<path class="st6" d="M121.7,422c3.9,5.7,10.9,8.5,17.6,7.1"/>
<path class="st3" d="M142.8,346.9c-3.4,9.5-8.2,18-15.7,24.8c-3.2,2.9-6.6,5.4-9.5,8.6s-5.1,7.2-5.1,11.5c0.1,2.5,0.6,4.9,1.4,7.2
	c1.2,3.7,2.3,7.5,3.5,11.2c0.7,2.6,1.7,5.2,3.1,7.5c1.5,2.2,3.5,4,5.8,5.4c3.2,2.1,7,3.2,10.8,3.2c3.8-0.1,8.4-3.1,10.6-6.3
	c0,0,3.1,2.9,0.3,7.7s-15.1,4.9-18.8,3.4s-11.7-6.4-13.3-11.8s0.7-10.6-3-15.3s-8.9-8.6-6.5-14.1s15.4-17.3,19.1-22.8
	c3.7-5.5,12.6-17.7,13.9-27.5L142.8,346.9z"/>
<polygon class="st4" points="288.4,212.3 362.4,222.9 364.2,227.6 288.6,214.4 "/>
<polygon class="st5" points="288.4,212.3 362.4,222.9 364.2,227.6 288.6,214.4 "/>
<polygon class="st4" points="249.9,242.1 226.6,312.5 230.8,317.6 250.9,244.1 "/>
<polygon class="st5" points="249.9,242.1 226.6,312.5 230.8,317.6 250.9,244.1 "/>
<polygon class="st4" points="306.4,135.7 282.3,252.1 175.2,231.6 174.7,229.9 279,246.8 "/>
<polygon class="st5" points="306.4,135.7 282.3,252.1 175.2,231.6 174.7,229.9 279,246.8 "/>
<circle class="st0" cx="299.3" cy="169.4" r="15.1"/>
<line class="st6" x1="301.5" y1="154.2" x2="306" y2="135.6"/>
<line class="st6" x1="230.7" y1="317.4" x2="251.8" y2="242.1"/>
<line class="st6" x1="286.9" y1="214.3" x2="364.5" y2="227.5"/>
<line class="st6" x1="238.3" y1="200.1" x2="275.6" y2="173.2"/>
<line class="st6" x1="240.3" y1="205.6" x2="278.5" y2="178.1"/>
<path class="st6" d="M244.6,214.6c4.3,0.3,9.2-2.7,11.6-6.2c2.4-3.5,4.4-7.5,7.9-9.9c2.4-1.4,5-2.5,7.6-3.1c2.7-0.6,5.2-1.9,7.5-3.5
	c2.1-1.8,3.4-4.7,2.6-7.3"/>
<path class="st6" d="M247.2,218.1c4.3,0.7,8.2-2.3,10.9-5.7s4.8-7.3,8.3-9.8c2.7-2.1,5.9-3.6,9.3-4.3c5.7-1,9.5-4.5,9.6-7.9"/>
<circle class="st6" cx="299.2" cy="169.2" r="15"/>
<path class="st6" d="M253.9,170.2l47.9-34.1c2.2-1.6,5.3-1.1,6.8,1.1c0.1,0.1,0.2,0.2,0.2,0.4c0,0,58.1,88.8,55.9,90.2l-133.9,90.1
	c-2.3,1.4-55.7-86.2-55.7-86.2c-1.4-2.2-0.8-5.1,1.3-6.6l25.4-18.4"/>
<line class="st6" x1="279.9" y1="242.9" x2="294.2" y2="183.6"/>
<line class="st6" x1="174.4" y1="229.9" x2="252" y2="242.1"/>
<path class="st0" d="M223.9,225.2c0,0,12.1,1.5,18-14.1c0,0,7,10.4,12.7,14.2c0,0,2.4-0.6,7.8,0.6c4.2,0.8,8.5,1.2,12.8,1.2
	c0,0-1.3,4.7-4.3,4.8c-1.9,0-3.8-0.4-5.5-1.3l-0.7,1.6l19.9,14.9c1,1.3,0.8,3.3-0.5,4.3c0,0,0,0,0,0l-14-9.7l-0.7,1.6
	c0,0,8.4,11.2,8.6,12.9s-0.2,1.9-1.5,2s-3.3-1.9-3.3-1.9l-7.5-10.8l-1.3,1.2c0,0,5.4,11,4.7,13.3s-3.8-0.9-3.8-0.9l-4.2-9.8
	c0,0,1.6,7.7-0.8,8.7s-2.6-2.1-3.3-9.4l-6.5-8.9C250.6,239.9,231.6,231.3,223.9,225.2z"/>
<polygon class="st3" points="230.7,223.8 251.7,238.3 257,248.7 251.4,240.7 223.8,226.1 "/>
<path class="st4" d="M263,130.2c-9.2,5-10.5,6.5-15.3,10.7c-6,5.3-11.5,12-12.1,19.9c-0.2,1.4,0,2.8,0.6,4c1.3,2.3,4.3,2.9,6.8,2.2
	s4.5-2.5,6.4-4.2c-0.5,0.5-0.8,2.1-1.3,2.7c-0.6,0.9-1.3,1.7-2.1,2.3c-1.9,1.4-4,2.4-6.2,3c-5.5,1.6-11.5,1.5-17.2,2.6
	c-6,1.2-10.1,4.3-13.9,8.9c-2.7,3.3,2,11.8,3.4,15.8c3.2,9.7,11.3,18.4,18.5,25.5l-6.8,1.4c0,0-18.4-9.7-22-18.5s-5.7-16.2-8.9-20.3
	c0,0,2.7-6.3,14.4-16.6s17.8-20.5,22.4-26.7c6.1-8.4,20.3-16.3,26-16.8C255.7,126.2,258.2,126.6,263,130.2z"/>
<path class="st5" d="M263.2,130.1c-9.2,5-10.6,6.6-15.4,10.8c-6,5.3-11.5,12-12.1,19.9c-0.2,1.4,0,2.8,0.6,4
	c1.3,2.3,4.3,2.9,6.8,2.2s4.5-2.5,6.4-4.2c-0.5,0.5-0.8,2.1-1.3,2.7c-0.6,0.9-1.3,1.7-2.1,2.3c-1.9,1.4-4,2.4-6.2,3
	c-5.5,1.6-11.5,1.5-17.2,2.6c-6,1.2-10.1,4.3-13.9,8.9c-2.7,3.3,2,11.8,3.4,15.8c3.2,9.7,11.3,18.4,18.5,25.5l-6.8,1.4
	c0,0-18.4-9.7-22-18.5s-5.7-16.2-8.9-20.3c0,0,2.7-6.3,14.4-16.6s17.8-20.5,22.4-26.7c6.1-8.4,21-16.2,26.7-16.7
	C258.8,127.4,261.1,128.7,263.2,130.1z"/>
<path class="st6" d="M233.1,192.3c8.3-5.6,21.5-17.2,23.8-31.5"/>
<path class="st6" d="M257.3,227.1c-7.7-4.7-13.5-11.8-16.6-20.2c-4.3-11.6-8.8-18.4-20.2-22.7"/>
<path class="st6" d="M205,205.1c3.5,5.7,8.6,10.2,14.6,13"/>
<path class="st6" d="M201.5,197.5c0.6,1.9,1.3,3.7,2.3,5.4"/>
<path class="st6" d="M223.9,225.2c0,0,13.3,0.4,18.2-14.7"/>
<path class="st6" d="M247.1,133.4c2.2-0.9,4.5-1.6,6.8-2"/>
<path class="st6" d="M229.3,149.5c3.4-6.5,8.8-11.7,15.4-15"/>
<path class="st6" d="M220.3,181.5c3.7,1,6.8,3.5,8.5,6.9"/>
<path class="st6" d="M255.4,225.7c2.6-1.2,6-0.2,7.6,0.3c2.2,0.7,10.7,1.9,12.3,1.2s-1.4,3.7-3.3,4.5s-6.6-1.1-6.6-1.1l-0.7,1.6
	c0,0,19.2,13.4,20.3,15.3s0.4,3.7-0.9,3.9s-14-9.7-14-9.7l-0.7,1.6c0,0,10,12.8,9,14.1s-3.1,0.8-4.7-0.9s-8-11-8-11l-1.3,1.2
	c0,0,5.4,12,4.7,13.3s-2.4,0.9-3.4-0.4s-4.9-11.1-4.9-11.1s1,8.3,0.4,9.2c-0.6,0.8-1.7,0.9-2.4,0.3c-0.1-0.1-0.3-0.2-0.4-0.4
	c-0.6-1-1.3-9-1.3-9l-6.5-8.9c-13.6-5.4-37.9-21.7-37.9-21.7c-12.8-10.3-14-18.7-15.5-24.2c-0.7-2.6-2-5.1-3.8-7.1
	c3.5-13.4,19.5-16.1,31.8-37.4s31.5-23.2,31.5-23.2"/>
<g>
	<g id="freepik--speed-lines--inject-38">
		<line class="st6" x1="88.2" y1="319.7" x2="65.8" y2="338.3"/>
		<line class="st6" x1="146.7" y1="271.3" x2="101.8" y2="308.5"/>
		<line class="st6" x1="87.8" y1="254.8" x2="78.9" y2="262.1"/>
		<line class="st6" x1="129.7" y1="220.1" x2="94.7" y2="249.1"/>
		<line class="st6" x1="107.8" y1="245.3" x2="86.4" y2="263"/>
		<line class="st6" x1="219.9" y1="333.1" x2="192.2" y2="356.1"/>
		<line class="st6" x1="234.8" y1="320.9" x2="223.7" y2="330"/>
		<line class="st6" x1="230.6" y1="330.9" x2="219.5" y2="340.1"/>
		<line class="st6" x1="354.6" y1="131.2" x2="347.8" y2="136.8"/>
		<line class="st6" x1="382.1" y1="108.4" x2="357.8" y2="128.5"/>
	</g>
</g>
<g id="freepik--Clouds--inject-38">
	<g id="freepik--clouds--inject-38">
		<path class="st2" d="M335.2,247.3h96.5c0,0-1-4.6-5.1-6s-7,0-7-4.8s-1.2-7.2-5.8-8.2c0,0-2.9-10.4-12.1-11.3s-15.7,0.2-17.1,5.8
			s-2.9,8.4-5.5,8.2s-7-2.9-9.2,2.2s-2.2,8-5.5,7s-10.1-5.3-15.4,3.4C349,243.4,340.3,239.8,335.2,247.3z"/>
		<path class="st2" d="M168.8,142.9H72.3c0,0,1-4.6,5.1-6s7,0,7-4.8s1.2-7.2,5.8-8.2c0,0,2.9-10.4,12.1-11.3s15.7,0.2,17.1,5.8
			s2.9,8.4,5.5,8.2s7-2.9,9.2,2.2c2.2,5.1,2.2,8,5.6,7s10.1-5.3,15.4,3.3C155,139,163.7,135.4,168.8,142.9z"/>
	</g>
</g>
</svg>
