<?xml version="1.0" encoding="utf-8"?>
<!-- Generator: Adobe Illustrator 23.0.5, SVG Export Plug-In . SVG Version: 6.00 Build 0)  -->
<svg version="1.1" id="Layer_1" xmlns="http://www.w3.org/2000/svg" xmlns:xlink="http://www.w3.org/1999/xlink" x="0px" y="0px"
	 viewBox="0 0 500 500" style="enable-background:new 0 0 500 500;" xml:space="preserve">
<style type="text/css">
	.st0{fill:#DBDBDB;}
	.st1{fill:#A6A6A6;}
	.st2{fill:#8D5DA7;}
	.st3{fill:#FFFFFF;}
	.st4{fill:#F8F8F8;}
	.st5{fill:#EBEBEB;}
	.st6{fill:#263238;}
	.st7{fill-rule:evenodd;clip-rule:evenodd;fill:#EBEBEB;}
	.st8{fill:#FF0000;}
	.st9{fill:#C7C7C7;}
	.st10{opacity:0.1;}
	.st11{opacity:0.1;enable-background:new    ;}
	.st12{fill:#455A64;}
	.st13{fill:#B68775;}
	.st14{fill:#37474F;}
	.st15{fill:#F7A9A0;}
</style>
<g>
	<path class="st0" d="M249.2,143.6l0.2,87.2c0,4.8-3.9,8.9-8.8,8.9l-138.3,0.3c-4.8,0-8.9-3.9-8.9-8.8L93.3,144
		c0-4.5,3.7-8.2,8.2-8.2l139.5-0.3C245.5,135.4,249.2,139.1,249.2,143.6z"/>
	<path class="st1" d="M227,218.6c0,4.5-3.6,8.1-8.1,8.1s-8.1-3.6-8.1-8.1s3.6-8.1,8.1-8.1C223.3,210.4,227,214.1,227,218.6z"/>
	<path class="st2" d="M237,218.5c0,4.5-3.6,8.1-8.1,8.1s-8.1-3.6-8.1-8.1s3.6-8.1,8.1-8.1C233.3,210.4,237,214,237,218.5z"/>
	<path class="st2" d="M131.1,170.8h-19.8c-2.6,0-4.7-2.1-4.7-4.7v-10.8c0-2.6,2.1-4.7,4.7-4.7h19.8c2.6,0,4.7,2.1,4.7,4.7v10.8
		C135.8,168.7,133.7,170.8,131.1,170.8z"/>
	<path class="st3" d="M231.3,161.5H218c-3,0-5.5-2.5-5.5-5.5l0,0c0-3,2.5-5.5,5.5-5.5h13.3c3,0,5.5,2.5,5.5,5.5l0,0
		C236.9,159.1,234.4,161.5,231.3,161.5z"/>
	<g>
		<path class="st4" d="M105.6,189.4l-1.2,0.7h-0.1c-0.1,0-0.2-0.1-0.2-0.1c-0.1-0.1,0-0.3,0.1-0.4l1.7-1c0.1-0.1,0.3,0,0.4,0.1
			c0,0.1,0,0.1,0,0.2v7.8c0,0.1-0.1,0.3-0.3,0.3c-0.1,0-0.3-0.1-0.3-0.3V189.4z"/>
		<path class="st4" d="M108.3,196.5l3.9-3.6c0.4-0.4,0.7-1,0.7-1.6s-0.2-1-0.6-1.5c-0.4-0.4-1-0.7-1.6-0.7c-0.6,0-1,0.2-1.5,0.6
			l-0.4,0.3c-0.1,0.1-0.3,0.1-0.4,0c-0.1-0.1-0.1-0.3,0-0.4l0.4-0.3c0.6-0.4,1.2-0.7,1.9-0.7c0.8,0,1.5,0.3,2,0.9
			c0.4,0.6,0.8,1.2,0.8,1.9c0,0.8-0.3,1.5-0.9,2l-3.4,3h4c0.1,0,0.3,0.1,0.3,0.3c0,0.1-0.1,0.3-0.3,0.3h-4.7l0,0
			c-0.1,0-0.2,0-0.2-0.1C108.1,196.8,108.1,196.6,108.3,196.5z"/>
		<path class="st4" d="M120.5,189l-2.1,2.2c0.6,0.1,1,0.3,1.5,0.8c0.6,0.6,0.8,1.3,0.8,2c0,0.8-0.2,1.5-0.9,2
			c-0.6,0.6-1.3,0.9-2,0.9s-1.5-0.2-2-0.9c-0.1-0.1-0.1-0.3,0-0.4c0.1-0.1,0.3-0.1,0.4,0c0.4,0.4,1,0.7,1.6,0.7
			c0.6,0,1.1-0.2,1.6-0.7c0.4-0.4,0.7-1,0.7-1.6s-0.2-1.1-0.7-1.6c-0.4-0.4-1-0.7-1.6-0.7c-0.1,0-0.2,0-0.2-0.1l0,0
			c-0.1-0.1-0.1-0.3,0-0.4l2.1-2.1h-3.3c-0.2,0-0.3-0.1-0.3-0.3c0-0.2,0.1-0.3,0.3-0.3h3.9c0.2,0,0.3,0.1,0.3,0.3
			C120.6,188.8,120.6,188.9,120.5,189C120.5,188.9,120.5,189,120.5,189z"/>
		<path class="st4" d="M127.6,195.2H123l0,0l0,0c-0.1,0-0.1,0-0.2-0.1c-0.1-0.1-0.1-0.3,0-0.4l4.9-6.2l0,0c0.1-0.1,0.2-0.1,0.4,0
			l0.1,0.1l0,0l0,0v5.8h0.6c0.2,0,0.3,0.1,0.3,0.3c0,0.1-0.1,0.3-0.3,0.3h-0.6v1.5c0,0.1-0.1,0.3-0.3,0.3c-0.1,0-0.3-0.1-0.3-0.3
			L127.6,195.2z M127.6,194.7v-4.9l-4,4.9H127.6z"/>
		<path class="st4" d="M138.3,196.1c-0.1-0.1-0.1-0.3,0-0.4c0.1-0.1,0.3-0.1,0.4,0c0.4,0.4,1,0.7,1.6,0.7c0.6,0,1.1-0.2,1.6-0.7
			c0.4-0.4,0.7-1,0.7-1.6c0-0.6-0.2-1.1-0.7-1.6c-0.4-0.4-1-0.7-1.6-0.7c-0.6,0-1.1,0.2-1.6,0.7c-0.1,0.1-0.3,0.1-0.4,0l-0.1-0.1
			l0,0l0,0v-0.1c0,0,0,0,0-0.1l0.4-3.4c0-0.1,0-0.2,0.1-0.2c0,0,0.1-0.1,0.2-0.1h3.9c0.2,0,0.3,0.1,0.3,0.3s-0.1,0.3-0.3,0.3h-3.7
			l-0.3,2.5c0.4-0.2,0.9-0.3,1.5-0.3c0.8,0,1.5,0.2,2,0.8c0.6,0.6,0.8,1.2,0.8,2c0,0.7-0.2,1.5-0.8,2c-0.6,0.6-1.3,0.8-2,0.8
			C139.6,196.9,138.8,196.7,138.3,196.1z"/>
		<path class="st4" d="M146.4,190.3c0.6-1,1.6-1.8,2.9-1.8c0.1,0,0.3,0.1,0.3,0.2c0,0.2-0.1,0.3-0.3,0.3c-1.2,0-1.9,0.7-2.5,1.6
			c-0.3,0.4-0.4,1.1-0.6,1.7c0.6-0.6,1.2-1,2.1-1c1.6,0,2.8,1.2,2.8,2.8c0,1.6-1.2,2.8-2.8,2.8c-1.5,0-2.8-1.2-2.8-2.7
			c0-0.2,0-0.3,0-0.6C145.6,192.5,145.8,191.3,146.4,190.3z M146.1,194.2c0,0.1,0,0.1,0,0.1v0.1c0.1,1.1,1.1,1.9,2.2,1.9
			c1.2,0,2.2-1,2.2-2.2c0-1.2-1-2.2-2.2-2.2S146.1,192.9,146.1,194.2L146.1,194.2z"/>
		<path class="st4" d="M154.2,196.5l3.1-7.4h-4c-0.1,0-0.3-0.1-0.3-0.3c0-0.1,0.1-0.3,0.3-0.3h4.5c0.1,0,0.1,0,0.2,0
			c0.1,0,0.1,0.1,0.1,0.2v0.1c0,0.1,0,0.1,0,0.1l-3.3,7.9c0,0.1-0.1,0.2-0.2,0.2h-0.1C154.3,196.8,154.2,196.7,154.2,196.5z"/>
		<path class="st4" d="M162.6,188.4c1,0,1.8,0.8,1.8,1.8c0,0.6-0.3,1.1-0.7,1.5c1,0.4,1.7,1.3,1.7,2.6c0,1.6-1.2,2.8-2.7,2.8
			s-2.8-1.2-2.8-2.7c0-1.1,0.7-2.1,1.7-2.6c-0.4-0.3-0.7-0.8-0.7-1.5C160.8,189.2,161.6,188.4,162.6,188.4z M162.6,196.3
			c1.2,0,2.1-1,2.1-2.1c0-1.2-1-2.1-2.1-2.1c-1.2,0-2.1,1-2.1,2.1C160.5,195.3,161.4,196.3,162.6,196.3z M162.6,191.3
			c0.7,0,1.2-0.6,1.2-1.2c0-0.7-0.6-1.1-1.2-1.1s-1.1,0.6-1.1,1.2C161.4,190.8,162,191.3,162.6,191.3z"/>
		<path class="st4" d="M177.7,188.4c1.5,0,2.6,1.1,2.8,2.5c0,0,0,0,0,0.1c0,0.2,0,0.4,0,0.7c0,1.1-0.2,2.4-0.8,3.4
			c-0.6,1-1.6,1.8-2.9,1.8l0,0c-0.2,0-0.3-0.1-0.3-0.2c0-0.2,0.1-0.3,0.3-0.3c1.1,0,1.9-0.7,2.5-1.6c0.3-0.6,0.4-1.1,0.6-1.7
			c-0.6,0.6-1.2,0.9-2.1,0.9c-1.6,0-2.8-1.2-2.8-2.8C174.9,189.6,176.1,188.4,177.7,188.4z M179.9,191.2c0-1.2-1-2.2-2.2-2.1
			c-1.2,0-2.2,1-2.2,2.2c0,1.2,1,2.2,2.2,2.2C178.9,193.3,179.9,192.4,179.9,191.2z"/>
		<path class="st4" d="M182.8,192.5c0-1.1,0.3-2.1,0.8-2.9c0.6-0.8,1.2-1.2,2.1-1.2c0.9,0,1.6,0.6,2.1,1.2c0.6,0.8,0.8,1.8,0.8,2.9
			c0,1.1-0.3,2.1-0.8,2.9c-0.6,0.8-1.2,1.2-2.1,1.2c-0.9,0-1.6-0.6-2.1-1.2C183,194.8,182.8,193.8,182.8,192.5z M183.3,192.5
			c0,1,0.3,2,0.7,2.6c0.4,0.7,1,1,1.6,1c0.6,0,1.1-0.3,1.6-1c0.4-0.7,0.7-1.6,0.7-2.6c0-1-0.3-2-0.8-2.6c-0.4-0.7-1-1-1.6-1
			c-0.6,0-1.2,0.3-1.6,1C183.5,190.6,183.3,191.5,183.3,192.5z"/>
		<path class="st4" d="M192.5,189.2l-1.2,0.7h-0.1c-0.1,0-0.2-0.1-0.2-0.1c-0.1-0.1,0-0.3,0.1-0.4l1.7-1c0.1-0.1,0.3,0,0.4,0.1
			c0,0.1,0,0.1,0,0.2v7.8c0,0.1-0.1,0.3-0.3,0.3c-0.1,0-0.3-0.1-0.3-0.3L192.5,189.2z"/>
		<path class="st4" d="M195.2,196.2l3.9-3.6c0.4-0.4,0.7-1,0.7-1.6c0-0.6-0.2-1-0.6-1.5c-0.4-0.4-1-0.7-1.6-0.7
			c-0.6,0-1,0.2-1.5,0.6l-0.4,0.3c-0.1,0.1-0.3,0.1-0.4,0c-0.1-0.1-0.1-0.3,0-0.4l0.4-0.3c0.6-0.4,1.2-0.7,1.9-0.7
			c0.8,0,1.5,0.3,2,0.9c0.4,0.6,0.8,1.2,0.8,1.9c0,0.8-0.3,1.5-0.9,2l-3.4,3h4c0.1,0,0.3,0.1,0.3,0.3c0,0.1-0.1,0.3-0.3,0.3h-4.7
			l0,0c-0.1,0-0.2,0-0.2-0.1C195.1,196.6,195.1,196.3,195.2,196.2z"/>
		<path class="st4" d="M214.8,188.8l-2.1,2.2c0.6,0.1,1,0.3,1.5,0.8c0.6,0.6,0.8,1.3,0.8,2c0,0.8-0.2,1.5-0.9,2
			c-0.6,0.6-1.3,0.9-2,0.9s-1.5-0.2-2-0.9c-0.1-0.1-0.1-0.3,0-0.4c0.1-0.1,0.3-0.1,0.4,0c0.4,0.4,1,0.7,1.6,0.7
			c0.6,0,1.1-0.2,1.6-0.7c0.4-0.4,0.7-1,0.7-1.6c0-0.6-0.2-1.1-0.7-1.6c-0.4-0.4-1-0.7-1.6-0.7c-0.1,0-0.2,0-0.2-0.1l0,0
			c-0.1-0.1-0.1-0.3,0-0.4l2.1-2.1h-3.3c-0.2,0-0.3-0.1-0.3-0.3c0-0.2,0.1-0.3,0.3-0.3h3.9c0.2,0,0.3,0.1,0.3,0.3
			C214.8,188.6,214.8,188.6,214.8,188.8C214.8,188.7,214.8,188.7,214.8,188.8z"/>
		<path class="st4" d="M221.8,195h-4.6l0,0l0,0c-0.1,0-0.1,0-0.2-0.1c-0.1-0.1-0.1-0.3,0-0.4l4.9-6.2l0,0c0.1-0.1,0.2-0.1,0.4,0
			l0.1,0.1l0,0l0,0v5.8h0.6c0.2,0,0.3,0.1,0.3,0.3c0,0.1-0.1,0.3-0.3,0.3h-0.6v1.5c0,0.1-0.1,0.3-0.3,0.3c-0.1,0-0.3-0.1-0.3-0.3
			L221.8,195z M221.8,194.4v-4.9l-4,4.9H221.8z"/>
		<path class="st4" d="M225.2,195.9c-0.1-0.1-0.1-0.3,0-0.4c0.1-0.1,0.3-0.1,0.4,0c0.4,0.4,1,0.7,1.6,0.7c0.6,0,1.1-0.2,1.6-0.7
			c0.4-0.4,0.7-1,0.7-1.6c0-0.6-0.2-1.1-0.7-1.6c-0.4-0.4-1-0.7-1.6-0.7c-0.6,0-1.1,0.2-1.6,0.7c-0.1,0.1-0.3,0.1-0.4,0l-0.1-0.1
			l0,0l0,0v-0.1c0,0,0,0,0-0.1l0.4-3.4c0-0.1,0-0.2,0.1-0.2c0,0,0.1-0.1,0.2-0.1h3.9c0.2,0,0.3,0.1,0.3,0.3c0,0.2-0.1,0.3-0.3,0.3
			h-3.7l-0.3,2.5c0.4-0.2,0.9-0.3,1.5-0.3c0.8,0,1.5,0.2,2,0.8c0.6,0.6,0.8,1.2,0.8,2c0,0.7-0.2,1.5-0.8,2c-0.6,0.6-1.3,0.8-2,0.8
			C226.6,196.7,225.8,196.5,225.2,195.9z"/>
		<path class="st4" d="M233.3,190.1c0.6-1,1.6-1.8,2.9-1.8c0.1,0,0.3,0.1,0.3,0.2c0,0.2-0.1,0.3-0.3,0.3c-1.2,0-1.9,0.7-2.5,1.6
			c-0.3,0.4-0.4,1.1-0.6,1.7c0.6-0.6,1.2-1,2.1-1c1.6,0,2.8,1.2,2.8,2.8c0,1.6-1.2,2.8-2.8,2.8c-1.5,0-2.8-1.2-2.8-2.7
			c0-0.2,0-0.3,0-0.6C232.5,192.3,232.7,191.1,233.3,190.1z M233.1,194c0,0.1,0,0.1,0,0.1v0.1c0.1,1.1,1.1,1.9,2.2,1.9
			c1.2,0,2.2-1,2.2-2.2c0-1.2-1-2.2-2.2-2.2C234.1,191.6,233.1,192.6,233.1,194L233.1,194z"/>
	</g>
	
		<rect x="106.7" y="211.5" transform="matrix(1 -2.596273e-03 2.596273e-03 1 -0.5533 0.3739)" class="st1" width="74" height="3.6"/>
	
		<rect x="106.7" y="219.6" transform="matrix(1 -2.595570e-03 2.595570e-03 1 -0.5742 0.3458)" class="st1" width="52.5" height="3.6"/>
	
		<rect x="170.5" y="150.5" transform="matrix(1 -2.595204e-03 2.595204e-03 1 -0.3946 0.491)" class="st1" width="37" height="3.6"/>
	<g>
		<rect x="419.9" class="st5" width="63.7" height="63.7"/>
		<g>
			<path class="st3" d="M452.8,10.2c1.2,0,2.1,1,2.1,2.1v1.1c2.9,0.3,5.5,1.3,7.8,2.8c0.8,0.4,1.5,1.2,1.5,2.5
				c0,1.6-1.2,2.8-2.8,2.8c-0.4,0-1-0.1-1.5-0.4c-1.8-1-3.5-1.8-5.2-2.2v9.7c7.6,1.9,10.9,4.9,10.9,10.3c0,5.5-4.4,9.2-10.7,9.8v3
				c0,1.2-1,2.1-2.1,2.1c-1.1,0-2.2-1-2.2-2.1v-3.1c-3.8-0.4-7.3-1.8-10.3-3.9c-0.9-0.6-1.3-1.3-1.3-2.5c0-1.6,1.2-2.8,2.8-2.8
				c0.6,0,1.2,0.2,1.7,0.6c2.4,1.7,4.7,2.9,7.4,3.4v-9.9C443.5,31.5,440,28.6,440,23c0-5.4,4.3-9.1,10.6-9.7v-1
				C450.5,11.1,451.5,10.2,452.8,10.2z M450.8,27.4v-8.9c-3.3,0.3-4.8,2-4.8,4.3C445.9,24.8,446.9,26.1,450.8,27.4z M454.8,34.4v9.2
				c3.3-0.3,4.9-1.9,4.9-4.4C459.7,37,458.6,35.6,454.8,34.4z"/>
		</g>
	</g>
	<g id="Floor">
		<g>
			<polygon class="st6" points="12.7,434.7 71.2,434.5 129.7,434.4 246.9,434.1 364,434.4 422.6,434.4 481.1,434.7 422.6,434.9 
				364,435 246.9,435.3 129.7,435 71.2,434.9 			"/>
		</g>
	</g>
	<g id="Shadow">
		<g>
			<ellipse class="st7" cx="246.9" cy="459.9" rx="246.9" ry="30.9"/>
		</g>
	</g>
	<g id="Device">
		<path class="st6" d="M453.7,60.9v361.7c0,10.7-8.5,19.3-19,19.3h-187c-10.4,0-19-8.6-19-19.3V60.9c0-10.7,8.5-19.3,19-19.3h187.1
			C445.3,41.6,453.7,50.2,453.7,60.9z"/>
		<path class="st3" d="M441.9,79.1v331.7c0,10.1-7.6,18.3-17,18.3H257.6c-9.4,0-17-8.2-17-18.3V79.1c0-20.7,7.6-25.3,17-25.3H291
			c1.9,0,3.5,2.2,3.5,4.9V60c0,6.4,3.5,6.5,7.9,6.5h77.5c4.4,0,7.9,0,7.9-6.5v-1.2c0-2.7,1.6-4.9,3.5-4.9h33.6
			C434.2,53.8,441.9,60.1,441.9,79.1z"/>
		<path class="st3" d="M351.8,58.4h-21.1c-0.7,0-1.3-0.6-1.3-1.3l0,0c0-0.7,0.6-1.3,1.3-1.3h21.1c0.7,0,1.3,0.6,1.3,1.3l0,0
			C353.1,57.7,352.6,58.4,351.8,58.4z"/>
		<path class="st8" d="M413.8,284.4c-1.8,3.4-6.2,6.3-6.2,6.3s-4.4-2.9-6.2-6.3c-2-3.7-0.9-7.6,2-7.6c3.3,0,4.2,4,4.2,4s0.9-4,4.2-4
			C414.7,276.8,415.8,280.6,413.8,284.4z"/>
		<g>
			<rect x="267.6" y="82.1" class="st0" width="16.8" height="2.8"/>
			<rect x="267.6" y="87.6" class="st0" width="16.8" height="2.8"/>
			<rect x="267.6" y="93.2" class="st0" width="16.8" height="2.8"/>
		</g>
		<g>
			<g>
				
					<rect x="366.6" y="86.8" transform="matrix(0.7971 -0.6039 0.6039 0.7971 19.3768 240.6871)" class="st0" width="2.4" height="9.4"/>
				<path class="st0" d="M367.9,83.9c1.7,2.2,1.2,5.4-0.9,7.1c-2.2,1.7-5.4,1.2-7.1-0.9c-1.7-2.2-1.2-5.4,0.9-7.1
					C363,81.3,366.2,81.7,367.9,83.9z"/>
				<path class="st3" d="M366.3,85.1c1,1.3,0.8,3.3-0.6,4.3c-1.3,1-3.3,0.8-4.3-0.6c-1-1.3-0.8-3.3,0.6-4.3S365.3,83.8,366.3,85.1z"
					/>
			</g>
		</g>
		<path class="st0" d="M393.4,89.7c-1.8,3.4-6.2,6.3-6.2,6.3s-4.4-2.9-6.2-6.3c-2-3.7-0.9-7.6,2-7.6c3.3,0,4.2,4,4.2,4s0.9-4,4.2-4
			C394.3,82.1,395.5,85.9,393.4,89.7z"/>
		<g>
			<path class="st0" d="M412.9,93.2h-10.2l-2.6-10.3h-1V82h1.7l0.6,2h14L412.9,93.2z M403.5,92.3h8.9l2-7.4h-12.7L403.5,92.3z"/>
			<polygon class="st0" points="411.2,94.8 410.5,93.2 404.8,93.2 404.3,94.8 403.4,94.6 404.1,92.3 411.1,92.3 412.1,94.5 			"/>
			<rect x="401.6" y="86" class="st0" width="12.7" height="0.9"/>
			
				<rect x="407.5" y="82.9" transform="matrix(4.449529e-03 -1 1 4.449529e-03 317.4251 496.1882)" class="st0" width="0.9" height="11.5"/>
			<rect x="402.7" y="90.4" class="st0" width="10.4" height="0.9"/>
			<rect x="407.3" y="84.6" class="st0" width="0.9" height="8.2"/>
			
				<rect x="405.5" y="88.2" transform="matrix(7.931793e-02 -0.9968 0.9968 7.931793e-02 288.7892 489.9643)" class="st0" width="8.2" height="0.9"/>
			
				<rect x="407.5" y="88.3" transform="matrix(0.1808 -0.9835 0.9835 0.1808 249.9964 477.5537)" class="st0" width="8.3" height="0.9"/>
			
				<rect x="405.5" y="84.6" transform="matrix(0.9968 -7.988893e-02 7.988893e-02 0.9968 -5.7867 32.7135)" class="st0" width="0.9" height="8.2"/>
			
				<rect x="403.4" y="84.5" transform="matrix(0.9835 -0.1809 0.1809 0.9835 -9.3694 74.5098)" class="st0" width="0.9" height="8.3"/>
			<path class="st0" d="M411.7,96c-0.8,0-1.3-0.7-1.3-1.3c0-0.8,0.7-1.3,1.3-1.3c0.8,0,1.3,0.7,1.3,1.3C413,95.5,412.5,96,411.7,96z
				 M411.7,94.1c-0.3,0-0.6,0.2-0.6,0.6s0.2,0.6,0.6,0.6s0.6-0.2,0.6-0.6C412.2,94.4,412,94.1,411.7,94.1z"/>
			<path class="st0" d="M403.8,96c-0.8,0-1.3-0.7-1.3-1.3c0-0.8,0.7-1.3,1.3-1.3c0.8,0,1.3,0.7,1.3,1.3
				C405.3,95.5,404.6,96,403.8,96z M403.8,94.1c-0.3,0-0.6,0.2-0.6,0.6s0.2,0.6,0.6,0.6c0.3,0,0.6-0.2,0.6-0.6
				C404.4,94.4,404.1,94.1,403.8,94.1z"/>
		</g>
		<circle class="st2" cx="414.8" cy="81.8" r="3.7"/>
		<g>
			<path class="st3" d="M415.4,79.6v4.2c0,0.2-0.2,0.3-0.3,0.3c-0.2,0-0.3-0.1-0.3-0.3v-3.5l-0.2,0.1c-0.1,0-0.1,0-0.2,0
				s-0.2-0.1-0.3-0.2c-0.1-0.2-0.1-0.4,0.1-0.6l0.9-0.6l0,0l0,0l0,0l0,0l0,0l0,0l0,0l0,0l0,0l0,0l0,0l0,0l0,0l0,0l0,0l0,0l0,0l0,0
				l0,0l0,0C415.4,79.5,415.4,79.5,415.4,79.6L415.4,79.6L415.4,79.6L415.4,79.6z"/>
		</g>
		<rect x="267.6" y="279.5" class="st0" width="92.6" height="2.6"/>
		<rect x="267.6" y="284.4" class="st0" width="79.6" height="2.6"/>
		<g>
			<g>
				<polygon class="st9" points="258.3,200.3 254.6,196.8 258.3,193.3 258.9,194 255.9,196.8 258.9,199.7 				"/>
				<path class="st9" d="M257.6,203.1c-3.4,0-6.2-2.8-6.2-6.2c0-3.4,2.8-6.2,6.2-6.2s6.2,2.8,6.2,6.2
					C263.7,200.3,260.9,203.1,257.6,203.1z M257.6,191.7c-2.8,0-5.1,2.2-5.1,5.1s2.2,5.1,5.1,5.1c2.8,0,5.1-2.2,5.1-5.1
					C262.6,194.1,260.4,191.7,257.6,191.7z"/>
			</g>
			<g>
				<polygon class="st9" points="424.1,200.3 423.6,199.7 426.6,196.8 423.6,194 424.1,193.3 427.8,196.8 				"/>
				<path class="st9" d="M424.9,203.1c-3.4,0-6.2-2.8-6.2-6.2c0-3.4,2.8-6.2,6.2-6.2s6.2,2.8,6.2,6.2
					C431.1,200.3,428.3,203.1,424.9,203.1z M424.9,191.7c-2.8,0-5.1,2.2-5.1,5.1s2.2,5.1,5.1,5.1s5.1-2.2,5.1-5.1
					C430,194.1,427.7,191.7,424.9,191.7z"/>
			</g>
		</g>
		<g>
			<path d="M273.4,346.6c0.2,0,0.3,0.1,0.3,0.3v0.6c1,0.1,1.7,0.4,2.5,1c0.1,0.1,0.2,0.2,0.2,0.3c0,0.2-0.1,0.3-0.3,0.3
				c-0.1,0-0.1,0-0.2-0.1c-0.7-0.6-1.3-0.8-2.1-0.9v3.9c2.1,0.4,3,1.2,3,2.6c0,1.5-1.2,2.5-3,2.6v1.1c0,0.2-0.1,0.3-0.3,0.3
				s-0.3-0.1-0.3-0.3v-1.1c-1.2-0.1-2.2-0.6-3.1-1.3c-0.1-0.1-0.1-0.1-0.1-0.3c0-0.2,0.1-0.3,0.3-0.3c0.1,0,0.2,0,0.2,0.1
				c0.8,0.7,1.7,1.1,2.7,1.2v-3.9c-2.1-0.4-2.9-1.2-2.9-2.6c0-1.5,1.2-2.5,2.9-2.5v-0.6C273.1,346.7,273.3,346.6,273.4,346.6z
				 M273.2,351.9v-3.8c-1.3,0-2.2,0.8-2.2,1.8C270.9,350.9,271.4,351.5,273.2,351.9z M273.7,352.7v3.8c1.3,0,2.2-0.8,2.2-1.9
				C276.1,353.7,275.5,353.1,273.7,352.7z"/>
			<path d="M278.6,356.6l4.6-4.2c0.6-0.4,0.8-1.1,0.8-1.9c0-0.6-0.2-1.2-0.7-1.7c-0.4-0.6-1.1-0.8-1.9-0.8c-0.6,0-1.2,0.2-1.7,0.7
				l-0.4,0.4c-0.1,0.1-0.3,0.1-0.4,0c-0.1-0.1-0.1-0.3,0-0.4l0.4-0.4c0.6-0.6,1.3-0.8,2.1-0.8c0.9,0,1.7,0.3,2.4,1
				c0.6,0.6,0.8,1.3,0.8,2.1c0,0.9-0.3,1.7-1,2.4l-3.9,3.5h4.6c0.2,0,0.3,0.1,0.3,0.3c0,0.2-0.1,0.3-0.3,0.3h-5.4l0,0
				c-0.1,0-0.2,0-0.2-0.1C278.5,357,278.5,356.7,278.6,356.6z"/>
			<path d="M286.9,352.4c0-1.3,0.3-2.5,0.9-3.4c0.6-0.9,1.5-1.5,2.5-1.5c1,0,1.8,0.6,2.5,1.5c0.6,0.9,0.9,2.1,0.9,3.4
				c0,1.3-0.3,2.5-0.9,3.4c-0.6,0.9-1.5,1.5-2.5,1.5c-1,0-1.8-0.6-2.5-1.5C287.2,354.8,286.9,353.6,286.9,352.4z M287.5,352.4
				c0,1.2,0.3,2.2,0.8,3c0.4,0.8,1.1,1.1,1.9,1.1c0.7,0,1.3-0.4,1.9-1.1c0.4-0.8,0.8-1.8,0.8-3s-0.3-2.2-0.8-3
				c-0.6-0.8-1.1-1.1-1.9-1.1c-0.7,0-1.3,0.4-1.9,1.1C287.9,350,287.5,351.1,287.5,352.4z"/>
			<path d="M297.4,355.8c0.3,0,0.7,0.3,0.7,0.7c0,0.3-0.3,0.7-0.7,0.7s-0.7-0.3-0.7-0.7C296.8,356.1,297.1,355.8,297.4,355.8z"/>
			<path d="M299.5,352.4c0-1.3,0.3-2.5,0.9-3.4s1.5-1.5,2.5-1.5c1,0,1.8,0.6,2.5,1.5c0.6,0.9,0.9,2.1,0.9,3.4c0,1.3-0.3,2.5-0.9,3.4
				c-0.6,0.9-1.5,1.5-2.5,1.5s-1.8-0.6-2.5-1.5C299.8,354.8,299.5,353.6,299.5,352.4z M300.1,352.4c0,1.2,0.3,2.2,0.8,3
				s1.1,1.1,1.9,1.1s1.3-0.4,1.9-1.1c0.4-0.8,0.8-1.8,0.8-3s-0.3-2.2-0.8-3c-0.6-0.8-1.1-1.1-1.9-1.1s-1.3,0.4-1.9,1.1
				C300.5,350,300.1,351.1,300.1,352.4z"/>
			<path d="M309.3,352.4c0-1.3,0.3-2.5,0.9-3.4s1.5-1.5,2.5-1.5s1.8,0.6,2.5,1.5c0.6,0.9,0.9,2.1,0.9,3.4c0,1.3-0.3,2.5-0.9,3.4
				c-0.6,0.9-1.5,1.5-2.5,1.5c-1,0-1.8-0.6-2.5-1.5C309.7,354.8,309.3,353.6,309.3,352.4z M310,352.4c0,1.2,0.3,2.2,0.8,3
				s1.1,1.1,1.9,1.1c0.8,0,1.3-0.4,1.9-1.1c0.4-0.8,0.8-1.8,0.8-3s-0.3-2.2-0.8-3c-0.6-0.8-1.1-1.1-1.9-1.1c-0.8,0-1.3,0.4-1.9,1.1
				C310.4,350,310,351.1,310,352.4z"/>
		</g>
		<g>
			<g>
				<path d="M273.6,112.4l-2.1,2.9c0,0.1-0.1,0.1-0.2,0.1l0,0c-0.1,0-0.1,0-0.2-0.1l-2.1-2.9v5.4c0,0.1-0.1,0.2-0.2,0.2
					s-0.2-0.1-0.2-0.2v-6.1c0-0.1,0-0.1,0.1-0.2l0,0c0.1-0.1,0.2,0,0.3,0l2.4,3.3l2.4-3.3c0.1-0.1,0.2-0.1,0.3,0c0,0,0,0,0.1,0.1
					v0.1v6.1c0,0.1-0.1,0.2-0.2,0.2c-0.1,0-0.2-0.1-0.2-0.2L273.6,112.4L273.6,112.4z"/>
				<path d="M278.2,113.4c1.2,0,2.1,1,2.1,2.2s-1,2.2-2.1,2.2c-1.2,0-2.1-1-2.1-2.2C276.1,114.6,277.1,113.4,278.2,113.4z
					 M278.2,117.6c0.9,0,1.7-0.8,1.7-1.8c0-1-0.8-1.8-1.7-1.8c-0.9,0-1.7,0.8-1.7,1.8S277.3,117.6,278.2,117.6z"/>
				<path d="M285.8,117.2c-0.4,0.6-1,0.9-1.8,0.9c-1.2,0-2.2-1-2.2-2.2s1-2.2,2.2-2.2c0.7,0,1.3,0.3,1.8,0.9v-2.6
					c0-0.1,0.1-0.2,0.2-0.2s0.2,0.1,0.2,0.2v3.9v0.1v2c0,0.1-0.1,0.2-0.2,0.2s-0.2-0.1-0.2-0.2V117.2z M285.8,115.8v-0.1
					c0-1-0.8-1.8-1.8-1.8c-1,0-1.8,0.8-1.8,1.8c0,1,0.8,1.8,1.8,1.8C285,117.6,285.8,116.8,285.8,115.8z"/>
				<path d="M287.8,115.8c0-1.2,1-2.2,2.2-2.2c1.1,0,2.1,0.9,2.2,2.1l0,0l0,0c0,0.1-0.1,0.2-0.2,0.2h-3.7c0,1,0.8,1.8,1.8,1.8
					c0.6,0,1.1-0.3,1.5-0.8c0.1-0.1,0.2-0.1,0.3-0.1c0.1,0.1,0.1,0.2,0.1,0.3c-0.3,0.7-1.1,1-1.8,1
					C288.8,118.1,287.8,117,287.8,115.8z M288.2,115.4h3.5c-0.1-0.9-0.9-1.5-1.7-1.5C289.1,113.9,288.4,114.6,288.2,115.4z"/>
				<path d="M293.6,113.7c0-0.1,0.1-0.2,0.2-0.2s0.2,0.1,0.2,0.2v1c0,0,0-0.1,0.1-0.1c0.3-0.6,0.9-1.1,1.8-1.1
					c0.1,0,0.2,0.1,0.2,0.2c0,0.1-0.1,0.2-0.2,0.2c-0.6,0-1,0.3-1.3,0.8c-0.3,0.4-0.4,0.9-0.6,1c0,0,0,0,0,0.1v2
					c0,0.1-0.1,0.2-0.2,0.2s-0.2-0.1-0.2-0.2V113.7z"/>
				<path d="M300.9,115.4c0-0.8-0.7-1.5-1.5-1.5c-0.8,0-1.3,0.7-1.5,1.5v2.5l0,0v0.1l-0.1,0.1l0,0c-0.1,0-0.1-0.1-0.1-0.1l0,0l0,0
					l0,0v-2.5v-0.1v-1.7c0-0.1,0.1-0.2,0.2-0.2s0.2,0.1,0.2,0.2v0.4c0.3-0.4,0.9-0.7,1.5-0.7c1,0,1.8,0.8,1.8,1.8v2.5
					c0,0.1-0.1,0.2-0.2,0.2s-0.2-0.1-0.2-0.2v-2.4H300.9z"/>
				<path d="M310.1,115h-3.4v2.8c0,0.1-0.1,0.2-0.2,0.2s-0.2-0.1-0.2-0.2v-6.1c0-0.1,0.1-0.2,0.2-0.2s0.2,0.1,0.2,0.2v2.8h3.4v-2.8
					c0-0.1,0.1-0.2,0.2-0.2s0.2,0.1,0.2,0.2v6.1c0,0.1-0.1,0.2-0.2,0.2s-0.2-0.1-0.2-0.2V115z"/>
				<path d="M316.6,113.7v4.2c0,0.1-0.1,0.2-0.2,0.2s-0.2-0.1-0.2-0.2v-0.7c-0.3,0.6-1,0.9-1.7,0.9c-1.2,0-2.1-1-2.1-2.2
					s1-2.2,2.1-2.2c0.7,0,1.3,0.3,1.7,0.9v-0.8c0-0.1,0.1-0.2,0.2-0.2S316.6,113.6,316.6,113.7z M316.2,115.8c0-1-0.8-1.8-1.7-1.8
					c-0.9,0-1.7,0.8-1.7,1.8c0,1,0.8,1.8,1.7,1.8C315.4,117.6,316.2,116.8,316.2,115.8z"/>
				<path d="M321.7,115.4c0-0.8-0.7-1.5-1.5-1.5c-0.8,0-1.3,0.7-1.5,1.5v2.5l0,0v0.1l-0.1,0.1l0,0c-0.1,0-0.1-0.1-0.1-0.1l0,0l0,0
					l0,0v-2.5v-0.1v-1.7c0-0.1,0.1-0.2,0.2-0.2s0.2,0.1,0.2,0.2v0.4c0.3-0.4,0.9-0.7,1.5-0.7c1,0,1.8,0.8,1.8,1.8v2.5
					c0,0.1-0.1,0.2-0.2,0.2s-0.2-0.1-0.2-0.2v-2.4H321.7z"/>
				<path d="M327.5,117.2c-0.4,0.6-1,0.9-1.8,0.9c-1.2,0-2.2-1-2.2-2.2s1-2.2,2.2-2.2c0.7,0,1.3,0.3,1.8,0.9v-2.6
					c0-0.1,0.1-0.2,0.2-0.2c0.1,0,0.2,0.1,0.2,0.2v3.9v0.1v2c0,0.1-0.1,0.2-0.2,0.2c-0.1,0-0.2-0.1-0.2-0.2V117.2z M327.5,115.8
					v-0.1c0-1-0.8-1.8-1.8-1.8c-1,0-1.8,0.8-1.8,1.8c0,1,0.8,1.8,1.8,1.8C326.8,117.6,327.5,116.8,327.5,115.8z"/>
				<path d="M330.1,115.8L330.1,115.8v-0.2v-3.9c0-0.1,0.1-0.2,0.2-0.2s0.2,0.1,0.2,0.2v2.6c0.4-0.6,1-0.9,1.8-0.9
					c1.2,0,2.2,1,2.2,2.2c0,1.2-1,2.2-2.2,2.2c-0.7,0-1.3-0.3-1.8-0.9v0.7c0,0.1-0.1,0.2-0.2,0.2s-0.2-0.1-0.2-0.2V115.8z
					 M330.6,115.8c0,1,0.8,1.8,1.8,1.8c1,0,1.8-0.8,1.8-1.8c0-1-0.8-1.8-1.8-1.8C331.4,113.9,330.6,114.7,330.6,115.8L330.6,115.8z"
					/>
				<path d="M340,113.7v4.2c0,0.1-0.1,0.2-0.2,0.2s-0.2-0.1-0.2-0.2v-0.7c-0.3,0.6-1,0.9-1.7,0.9c-1.2,0-2.1-1-2.1-2.2
					s1-2.2,2.1-2.2c0.7,0,1.3,0.3,1.7,0.9v-0.8c0-0.1,0.1-0.2,0.2-0.2S340,113.6,340,113.7z M339.6,115.8c0-1-0.8-1.8-1.7-1.8
					s-1.7,0.8-1.7,1.8c0,1,0.8,1.8,1.7,1.8S339.6,116.8,339.6,115.8z"/>
				<path d="M346.3,117.7c0,1.2-1,2.1-2.1,2.1c-0.3,0-0.7-0.1-0.9-0.2c-0.1-0.1-0.1-0.2-0.1-0.3c0-0.1,0.2-0.1,0.3-0.1
					c0.2,0.1,0.4,0.1,0.8,0.1c0.9,0,1.7-0.8,1.7-1.7V117c-0.3,0.6-1,0.9-1.7,0.9c-1.2,0-2.1-1-2.1-2.2s0.9-2.2,2.1-2.2
					c0.7,0,1.3,0.3,1.7,0.9v-0.7c0-0.1,0.1-0.2,0.2-0.2s0.2,0.1,0.2,0.2v4H346.3z M345.8,115.7c0-1-0.8-1.8-1.7-1.8
					c-0.9,0-1.7,0.8-1.7,1.8c0,1,0.8,1.8,1.7,1.8C345.1,117.6,345.8,116.7,345.8,115.7z"/>
			</g>
		</g>
		<g>
			<path d="M271.7,294.7c0.8,0,1.6,0.2,2.1,0.7c0.1,0.1,0.1,0.2,0,0.3c-0.1,0.1-0.2,0.1-0.3,0c-0.4-0.3-1.1-0.7-1.8-0.7
				c-1.7,0-2.9,1.2-2.9,2.9c0,1.6,1.3,2.8,2.9,2.8c0.7,0,1.3-0.2,1.8-0.7c0.1-0.1,0.2,0,0.3,0c0.1,0.1,0.1,0.2,0,0.3
				c-0.6,0.4-1.3,0.7-2.1,0.7c-1.9,0-3.4-1.5-3.4-3.3C268.2,296.2,269.8,294.7,271.7,294.7z"/>
			<path d="M277.4,296.8c1.2,0,2.1,1,2.1,2.2c0,1.2-1,2.2-2.1,2.2c-1.2,0-2.1-1-2.1-2.2C275.3,297.8,276.3,296.8,277.4,296.8z
				 M277.4,300.9c0.9,0,1.7-0.8,1.7-1.8c0-1-0.8-1.8-1.7-1.8c-0.9,0-1.7,0.8-1.7,1.8C275.8,300,276.5,300.9,277.4,300.9z"/>
			<path d="M281.4,295.1c0-0.1,0.1-0.2,0.2-0.2c0.1,0,0.2,0.1,0.2,0.2v6.1c0,0.1-0.1,0.2-0.2,0.2c-0.1,0-0.2-0.1-0.2-0.2V295.1z"/>
			<path d="M285.6,296.8c1.2,0,2.1,1,2.1,2.2c0,1.2-1,2.2-2.1,2.2c-1.2,0-2.1-1-2.1-2.2C283.5,297.8,284.4,296.8,285.6,296.8z
				 M285.6,300.9c0.9,0,1.7-0.8,1.7-1.8c0-1-0.8-1.8-1.7-1.8c-0.9,0-1.7,0.8-1.7,1.8C284,300,284.7,300.9,285.6,300.9z"/>
			<path d="M289.3,297c0-0.1,0.1-0.2,0.2-0.2s0.2,0.1,0.2,0.2v1c0,0,0-0.1,0.1-0.1c0.3-0.6,0.9-1.1,1.8-1.1c0.1,0,0.2,0.1,0.2,0.2
				s-0.1,0.2-0.2,0.2c-0.6,0-1,0.3-1.3,0.8c-0.3,0.4-0.4,0.9-0.6,1c0,0,0,0,0,0.1v2c0,0.1-0.1,0.2-0.2,0.2s-0.2-0.1-0.2-0.2V297z"/>
		</g>
		<rect x="279.5" y="371.8" class="st2" width="123.6" height="26.1"/>
		<g>
			<path class="st3" d="M300.6,388h-3.4l-0.7,1.8c-0.1,0.3-0.4,0.4-0.7,0.4c-0.1,0-0.2,0-0.2,0c-0.4-0.1-0.6-0.6-0.4-1l3-8.2
				c0.1-0.3,0.4-0.4,0.8-0.4s0.6,0.2,0.8,0.4l3,8.2c0.1,0.4,0,0.9-0.4,1c-0.1,0-0.1,0-0.2,0c-0.3,0-0.6-0.2-0.7-0.4L300.6,388z
				 M300,386.4l-1.1-3l-1.1,3H300z"/>
			<path class="st3" d="M304.6,389.4v-8.2c0-0.4,0.3-0.8,0.8-0.8h1.7c2.7,0,4.8,2.2,4.8,4.8c0,2.7-2.1,4.9-4.8,4.9h-1.7
				C305,390.2,304.6,389.9,304.6,389.4z M306.2,388.6h0.9c1.8,0,3.4-1.5,3.4-3.4c0-1.8-1.5-3.4-3.4-3.4h-0.9V388.6z"/>
			<path class="st3" d="M314.2,389.4v-8.2c0-0.4,0.3-0.8,0.8-0.8h1.7c2.7,0,4.8,2.2,4.8,4.8c0,2.7-2.1,4.9-4.8,4.9H315
				C314.5,390.2,314.2,389.9,314.2,389.4z M315.7,388.6h0.9c1.8,0,3.4-1.5,3.4-3.4c0-1.8-1.5-3.4-3.4-3.4h-0.9V388.6z"/>
			<path class="st3" d="M334.4,382h-2.2v7.4c0,0.4-0.3,0.8-0.8,0.8c-0.4,0-0.8-0.3-0.8-0.8V382h-2.2c-0.4,0-0.8-0.3-0.8-0.8
				c0-0.4,0.3-0.8,0.8-0.8h6c0.4,0,0.8,0.3,0.8,0.8C335.2,381.7,334.8,382,334.4,382z"/>
			<path class="st3" d="M344.4,381.7c0.9,0.9,1.5,2.1,1.5,3.5c0,1.3-0.6,2.6-1.5,3.5c-0.8,0.9-2,1.5-3.4,1.5s-2.6-0.6-3.4-1.5
				c-0.9-0.9-1.3-2.1-1.3-3.5c0-1.3,0.6-2.6,1.3-3.5c0.9-0.9,2.1-1.5,3.4-1.5C342.4,380.2,343.6,380.8,344.4,381.7z M344.3,385.2
				c0-0.9-0.3-1.8-0.9-2.5s-1.3-1-2.2-1c-0.9,0-1.7,0.3-2.2,1c-0.6,0.6-0.9,1.5-0.9,2.5c0,0.9,0.3,1.8,0.9,2.5c0.6,0.7,1.3,1,2.2,1
				c0.8,0,1.6-0.3,2.2-1C343.8,387.1,344.3,386.2,344.3,385.2z"/>
			<path class="st3" d="M352.4,385.2c0-2.8,2.4-5.1,5.2-5.1c1.2,0,2.4,0.4,3.3,1.1c0.3,0.2,0.3,0.8,0.1,1.1
				c-0.2,0.3-0.8,0.4-1.1,0.1c-0.6-0.4-1.3-0.8-2.2-0.8c-1,0-1.9,0.3-2.5,1c-0.7,0.7-1,1.5-1,2.5c0,0.9,0.3,1.8,1,2.5
				c0.7,0.6,1.6,1,2.5,1s1.6-0.2,2.2-0.8c0.3-0.2,0.8-0.2,1.1,0.1c0.2,0.3,0.2,0.9-0.1,1.1c-0.9,0.7-2,1.1-3.3,1.1
				C354.6,390.2,352.4,388,352.4,385.2z"/>
			<path class="st3" d="M368.3,388h-3.4l-0.7,1.8c-0.1,0.3-0.4,0.4-0.7,0.4c-0.1,0-0.2,0-0.2,0c-0.4-0.1-0.6-0.6-0.4-1l3-8.2
				c0.1-0.3,0.4-0.4,0.8-0.4s0.6,0.2,0.8,0.4l3,8.2c0.1,0.4,0,0.9-0.4,1c-0.1,0-0.1,0-0.2,0c-0.3,0-0.6-0.2-0.7-0.4L368.3,388z
				 M367.7,386.4l-1.1-3l-1.1,3H367.7z"/>
			<path class="st3" d="M378.8,389.1c0.1,0.4-0.1,0.8-0.4,1c0,0-0.1,0-0.3,0l0,0c-0.1,0-0.3,0-0.6-0.1c-0.2-0.1-0.3-0.3-0.4-0.4
				c-0.2-0.4-0.3-0.9-0.3-1.7c0-0.2-0.1-0.4-0.1-0.6c-0.1-0.1-0.2-0.3-0.4-0.4c-0.3-0.2-0.7-0.3-0.8-0.3h-1.7v3
				c0,0.4-0.3,0.8-0.8,0.8c-0.4,0-0.8-0.3-0.8-0.8v-8.2c0-0.4,0.3-0.8,0.8-0.8l0,0h2.5c1.7,0,3,1.3,3,3c0,0.9-0.4,1.7-1.1,2.2
				c0.2,0.1,0.3,0.3,0.4,0.6c0.2,0.4,0.4,0.9,0.4,1.5c0,0.4,0,0.7,0,0.8C378.5,388.6,378.6,388.9,378.8,389.1z M376.8,383.5
				c0-0.8-0.7-1.5-1.5-1.5h-1.7v2.9h1.7C376.2,384.9,376.8,384.3,376.8,383.5z"/>
			<path class="st3" d="M386.7,382h-2.2v7.4c0,0.4-0.3,0.8-0.8,0.8c-0.4,0-0.8-0.3-0.8-0.8V382h-2.2c-0.4,0-0.8-0.3-0.8-0.8
				c0-0.4,0.3-0.8,0.8-0.8h6c0.4,0,0.8,0.3,0.8,0.8C387.5,381.7,387.2,382,386.7,382z"/>
		</g>
		<rect x="267.6" y="123.2" class="st5" width="147.3" height="147.3"/>
		<ellipse class="st0" cx="341.2" cy="254" rx="60.5" ry="8.4"/>
		<path class="st2" d="M378,253.5h-73.6c-19.9,0-16.7-16-11.9-32.6c4.7-16.7,11.8-42,29.5-42s19.1,0,19.1,0s1.3,0,19.1,0
			c17.7,0,24.8,25.3,29.5,42C394.7,237.6,397.9,253.5,378,253.5z"/>
		<g class="st10">
			<path d="M320,179.7c0,0.4-0.3,0.8-0.8,0.8c-0.4,0-0.8-0.3-0.8-0.8c0-0.4,0.3-0.8,0.8-0.8C319.7,178.9,320,179.3,320,179.7z"/>
			<path d="M332.6,179.7c0,0.4-0.3,0.8-0.8,0.8s-0.8-0.3-0.8-0.8c0-0.4,0.3-0.8,0.8-0.8C332.3,178.9,332.6,179.3,332.6,179.7z"/>
			<path d="M345.2,179.7c0,0.4-0.3,0.8-0.8,0.8c-0.4,0-0.8-0.3-0.8-0.8c0-0.4,0.3-0.8,0.8-0.8C344.8,178.9,345.2,179.3,345.2,179.7z
				"/>
			<path d="M357.6,179.7c0,0.4-0.3,0.8-0.8,0.8c-0.4,0-0.8-0.3-0.8-0.8c0-0.4,0.3-0.8,0.8-0.8S357.6,179.3,357.6,179.7z"/>
			<path d="M307.5,195.8c0,0.4-0.3,0.8-0.8,0.8c-0.4,0-0.8-0.3-0.8-0.8s0.3-0.8,0.8-0.8C307.2,195.1,307.5,195.4,307.5,195.8z"/>
			<circle cx="319.3" cy="195.8" r="0.8"/>
			<path d="M332.6,195.8c0,0.4-0.3,0.8-0.8,0.8s-0.8-0.3-0.8-0.8s0.3-0.8,0.8-0.8C332.3,195.1,332.6,195.4,332.6,195.8z"/>
			<path d="M345.2,195.8c0,0.4-0.3,0.8-0.8,0.8c-0.4,0-0.8-0.3-0.8-0.8s0.3-0.8,0.8-0.8C344.8,195.1,345.2,195.4,345.2,195.8z"/>
			<path d="M357.6,195.8c0,0.4-0.3,0.8-0.8,0.8c-0.4,0-0.8-0.3-0.8-0.8s0.3-0.8,0.8-0.8C357.3,195.1,357.6,195.4,357.6,195.8z"/>
			<path d="M370.2,195.8c0,0.4-0.3,0.8-0.8,0.8c-0.4,0-0.8-0.3-0.8-0.8s0.3-0.8,0.8-0.8C369.9,195.1,370.2,195.4,370.2,195.8z"/>
			<path d="M313.8,187.6c0,0.4-0.3,0.8-0.8,0.8c-0.4,0-0.8-0.3-0.8-0.8c0-0.4,0.3-0.8,0.8-0.8C313.5,186.8,313.8,187.1,313.8,187.6z
				"/>
			<path d="M326.3,187.6c0,0.4-0.3,0.8-0.8,0.8c-0.4,0-0.8-0.3-0.8-0.8c0-0.4,0.3-0.8,0.8-0.8C326,186.8,326.3,187.1,326.3,187.6z"
				/>
			<path d="M338.9,187.6c0,0.4-0.3,0.8-0.8,0.8s-0.8-0.3-0.8-0.8c0-0.4,0.3-0.8,0.8-0.8C338.5,186.8,338.9,187.1,338.9,187.6z"/>
			<path d="M351.3,187.6c0,0.4-0.3,0.8-0.8,0.8c-0.4,0-0.8-0.3-0.8-0.8c0-0.4,0.3-0.8,0.8-0.8C351,186.8,351.3,187.1,351.3,187.6z"
				/>
			<path d="M363.9,187.6c0,0.4-0.3,0.8-0.8,0.8c-0.4,0-0.8-0.3-0.8-0.8c0-0.4,0.3-0.8,0.8-0.8C363.6,186.8,363.9,187.1,363.9,187.6z
				"/>
			<path d="M376.4,187.9c-0.1,0.2-0.3,0.3-0.7,0.3c-0.4,0-0.8-0.3-0.8-0.8c0-0.3,0.2-0.7,0.6-0.8
				C375.7,187.2,376.1,187.6,376.4,187.9z"/>
			<path d="M307.5,212c0,0.4-0.3,0.8-0.8,0.8c-0.4,0-0.8-0.3-0.8-0.8s0.3-0.8,0.8-0.8S307.5,211.5,307.5,212z"/>
			<circle cx="319.3" cy="212" r="0.8"/>
			<path d="M332.6,212c0,0.4-0.3,0.8-0.8,0.8s-0.8-0.3-0.8-0.8s0.3-0.8,0.8-0.8C332.3,211.2,332.6,211.5,332.6,212z"/>
			<path d="M345.2,212c0,0.4-0.3,0.8-0.8,0.8c-0.4,0-0.8-0.3-0.8-0.8s0.3-0.8,0.8-0.8C344.8,211.2,345.2,211.5,345.2,212z"/>
			<path d="M357.6,212c0,0.4-0.3,0.8-0.8,0.8c-0.4,0-0.8-0.3-0.8-0.8s0.3-0.8,0.8-0.8S357.6,211.5,357.6,212z"/>
			<path d="M370.2,212c0,0.4-0.3,0.8-0.8,0.8c-0.4,0-0.8-0.3-0.8-0.8s0.3-0.8,0.8-0.8C369.9,211.2,370.2,211.5,370.2,212z"/>
			<circle cx="382" cy="212" r="0.8"/>
			<path d="M301.3,203.6c0,0.4-0.3,0.8-0.8,0.8s-0.8-0.3-0.8-0.8s0.3-0.8,0.8-0.8S301.3,203.3,301.3,203.6z"/>
			<path d="M313.8,203.6c0,0.4-0.3,0.8-0.8,0.8c-0.4,0-0.8-0.3-0.8-0.8s0.3-0.8,0.8-0.8C313.5,203,313.8,203.3,313.8,203.6z"/>
			<path d="M326.3,203.6c0,0.4-0.3,0.8-0.8,0.8c-0.4,0-0.8-0.3-0.8-0.8s0.3-0.8,0.8-0.8C326,203,326.3,203.3,326.3,203.6z"/>
			<path d="M338.9,203.6c0,0.4-0.3,0.8-0.8,0.8s-0.8-0.3-0.8-0.8s0.3-0.8,0.8-0.8C338.5,203,338.9,203.3,338.9,203.6z"/>
			<path d="M351.3,203.6c0,0.4-0.3,0.8-0.8,0.8c-0.4,0-0.8-0.3-0.8-0.8s0.3-0.8,0.8-0.8C351,202.9,351.3,203.3,351.3,203.6z"/>
			<path d="M363.9,203.6c0,0.4-0.3,0.8-0.8,0.8c-0.4,0-0.8-0.3-0.8-0.8s0.3-0.8,0.8-0.8C363.6,202.9,363.9,203.3,363.9,203.6z"/>
			<path d="M376.5,203.6c0,0.4-0.3,0.8-0.8,0.8c-0.4,0-0.8-0.3-0.8-0.8s0.3-0.8,0.8-0.8C376.2,203,376.5,203.3,376.5,203.6z"/>
			<path d="M295,228c0,0.4-0.3,0.8-0.8,0.8c-0.4,0-0.8-0.3-0.8-0.8c0-0.4,0.3-0.8,0.8-0.8C294.6,227.2,295,227.7,295,228z"/>
			<path d="M307.5,228c0,0.4-0.3,0.8-0.8,0.8c-0.4,0-0.8-0.3-0.8-0.8c0-0.4,0.3-0.8,0.8-0.8S307.5,227.7,307.5,228z"/>
			<circle cx="319.3" cy="228" r="0.8"/>
			<path d="M332.6,228c0,0.4-0.3,0.8-0.8,0.8s-0.8-0.3-0.8-0.8c0-0.4,0.3-0.8,0.8-0.8C332.3,227.2,332.6,227.7,332.6,228z"/>
			<path d="M345.2,228c0,0.4-0.3,0.8-0.8,0.8c-0.4,0-0.8-0.3-0.8-0.8c0-0.4,0.3-0.8,0.8-0.8C344.8,227.2,345.2,227.7,345.2,228z"/>
			<path d="M357.6,228c0,0.4-0.3,0.8-0.8,0.8c-0.4,0-0.8-0.3-0.8-0.8c0-0.4,0.3-0.8,0.8-0.8S357.6,227.7,357.6,228z"/>
			<path d="M370.2,228c0,0.4-0.3,0.8-0.8,0.8c-0.4,0-0.8-0.3-0.8-0.8c0-0.4,0.3-0.8,0.8-0.8C369.9,227.2,370.2,227.7,370.2,228z"/>
			<circle cx="382" cy="228" r="0.8"/>
			<path d="M301.3,219.8c0,0.4-0.3,0.8-0.8,0.8s-0.8-0.3-0.8-0.8c0-0.4,0.3-0.8,0.8-0.8S301.3,219.4,301.3,219.8z"/>
			<path d="M313.8,219.8c0,0.4-0.3,0.8-0.8,0.8c-0.4,0-0.8-0.3-0.8-0.8c0-0.4,0.3-0.8,0.8-0.8C313.5,219,313.8,219.4,313.8,219.8z"
				/>
			<path d="M326.3,219.8c0,0.4-0.3,0.8-0.8,0.8c-0.4,0-0.8-0.3-0.8-0.8c0-0.4,0.3-0.8,0.8-0.8C326,219,326.3,219.4,326.3,219.8z"/>
			<path d="M338.9,219.8c0,0.4-0.3,0.8-0.8,0.8s-0.8-0.3-0.8-0.8c0-0.4,0.3-0.8,0.8-0.8C338.5,219,338.9,219.4,338.9,219.8z"/>
			<path d="M351.3,219.8c0,0.4-0.3,0.8-0.8,0.8c-0.4,0-0.8-0.3-0.8-0.8c0-0.4,0.3-0.8,0.8-0.8C351,219,351.3,219.4,351.3,219.8z"/>
			<path d="M363.9,219.8c0,0.4-0.3,0.8-0.8,0.8c-0.4,0-0.8-0.3-0.8-0.8c0-0.4,0.3-0.8,0.8-0.8C363.6,219,363.9,219.4,363.9,219.8z"
				/>
			<path d="M376.5,219.8c0,0.4-0.3,0.8-0.8,0.8c-0.4,0-0.8-0.3-0.8-0.8c0-0.4,0.3-0.8,0.8-0.8S376.5,219.4,376.5,219.8z"/>
			<path d="M389,219.8c0,0.4-0.3,0.8-0.8,0.8c-0.4,0-0.8-0.3-0.8-0.8c0-0.4,0.3-0.8,0.8-0.8S389,219.4,389,219.8z"/>
			<path d="M295,244.2c0,0.4-0.3,0.8-0.8,0.8c-0.4,0-0.8-0.3-0.8-0.8c0-0.4,0.3-0.8,0.8-0.8C294.6,243.4,295,243.7,295,244.2z"/>
			<path d="M307.5,244.2c0,0.4-0.3,0.8-0.8,0.8c-0.4,0-0.8-0.3-0.8-0.8c0-0.4,0.3-0.8,0.8-0.8S307.5,243.7,307.5,244.2z"/>
			<circle cx="319.3" cy="244.2" r="0.8"/>
			<path d="M332.6,244.2c0,0.4-0.3,0.8-0.8,0.8s-0.8-0.3-0.8-0.8c0-0.4,0.3-0.8,0.8-0.8C332.3,243.4,332.6,243.7,332.6,244.2z"/>
			<path d="M345.2,244.2c0,0.4-0.3,0.8-0.8,0.8c-0.4,0-0.8-0.3-0.8-0.8c0-0.4,0.3-0.8,0.8-0.8C344.8,243.4,345.2,243.7,345.2,244.2z
				"/>
			<path d="M357.6,244.2c0,0.4-0.3,0.8-0.8,0.8c-0.4,0-0.8-0.3-0.8-0.8c0-0.4,0.3-0.8,0.8-0.8S357.6,243.7,357.6,244.2z"/>
			<path d="M370.2,244.2c0,0.4-0.3,0.8-0.8,0.8c-0.4,0-0.8-0.3-0.8-0.8c0-0.4,0.3-0.8,0.8-0.8C369.9,243.4,370.2,243.7,370.2,244.2z
				"/>
			<circle cx="382" cy="244.2" r="0.8"/>
			<path d="M301.3,235.9c0,0.4-0.3,0.8-0.8,0.8s-0.8-0.3-0.8-0.8c0-0.4,0.3-0.8,0.8-0.8S301.3,235.4,301.3,235.9z"/>
			<path d="M313.8,235.9c0,0.4-0.3,0.8-0.8,0.8c-0.4,0-0.8-0.3-0.8-0.8c0-0.4,0.3-0.8,0.8-0.8C313.5,235.1,313.8,235.4,313.8,235.9z
				"/>
			<path d="M326.3,235.9c0,0.4-0.3,0.8-0.8,0.8c-0.4,0-0.8-0.3-0.8-0.8c0-0.4,0.3-0.8,0.8-0.8C326,235.1,326.3,235.4,326.3,235.9z"
				/>
			<path d="M338.9,235.9c0,0.4-0.3,0.8-0.8,0.8s-0.8-0.3-0.8-0.8c0-0.4,0.3-0.8,0.8-0.8C338.5,235.1,338.9,235.4,338.9,235.9z"/>
			<path d="M351.3,235.9c0,0.4-0.3,0.8-0.8,0.8c-0.4,0-0.8-0.3-0.8-0.8c0-0.4,0.3-0.8,0.8-0.8C351,235.1,351.3,235.4,351.3,235.9z"
				/>
			<path d="M363.9,235.9c0,0.4-0.3,0.8-0.8,0.8c-0.4,0-0.8-0.3-0.8-0.8c0-0.4,0.3-0.8,0.8-0.8C363.6,235.1,363.9,235.4,363.9,235.9z
				"/>
			<path d="M376.5,235.9c0,0.4-0.3,0.8-0.8,0.8c-0.4,0-0.8-0.3-0.8-0.8c0-0.4,0.3-0.8,0.8-0.8S376.5,235.4,376.5,235.9z"/>
			<path d="M389,235.9c0,0.4-0.3,0.8-0.8,0.8c-0.4,0-0.8-0.3-0.8-0.8c0-0.4,0.3-0.8,0.8-0.8S389,235.4,389,235.9z"/>
			<circle cx="300.5" cy="252.1" r="0.8"/>
			<path d="M313.8,252.1c0,0.4-0.3,0.8-0.8,0.8c-0.4,0-0.8-0.3-0.8-0.8c0-0.4,0.3-0.8,0.8-0.8C313.5,251.3,313.8,251.6,313.8,252.1z
				"/>
			<path d="M326.3,252.1c0,0.4-0.3,0.8-0.8,0.8c-0.4,0-0.8-0.3-0.8-0.8c0-0.4,0.3-0.8,0.8-0.8C326,251.3,326.3,251.6,326.3,252.1z"
				/>
			<path d="M338.9,252.1c0,0.4-0.3,0.8-0.8,0.8s-0.8-0.3-0.8-0.8c0-0.4,0.3-0.8,0.8-0.8C338.5,251.3,338.9,251.6,338.9,252.1z"/>
			<circle cx="350.7" cy="252.1" r="0.8"/>
			<circle cx="363.1" cy="252.1" r="0.8"/>
			<path d="M376.5,252.1c0,0.4-0.3,0.8-0.8,0.8c-0.4,0-0.8-0.3-0.8-0.8c0-0.4,0.3-0.8,0.8-0.8S376.5,251.6,376.5,252.1z"/>
			<path d="M388.1,251.3c-0.1,0.1-0.2,0.2-0.4,0.2C387.7,251.4,388,251.3,388.1,251.3z"/>
		</g>
		<circle class="st11" cx="320.9" cy="187.7" r="6.1"/>
		<circle class="st11" cx="361.6" cy="187.7" r="6.1"/>
		<circle class="st6" cx="320.9" cy="187.7" r="4.2"/>
		<circle class="st6" cx="361.6" cy="187.7" r="4.2"/>
		<path class="st2" d="M361.6,188.6c-1.2,0-2.4-1-2.4-2.4c0-1-0.8-11.7-3.5-21.9c-2.4-8.8-6.6-19.1-13.9-19.1
			c-13.5,0-18.5,34-18.5,41c0,1.2-1,2.4-2.4,2.4c-1.2,0-2.4-1-2.4-2.4c0-0.4,2.8-45.6,23.3-45.6c19.8,0,22.1,45.2,22.1,45.6
			C363.9,187.6,362.8,188.6,361.6,188.6z"/>
		<rect x="267.6" y="307.8" class="st5" width="26.3" height="26.3"/>
		<g>
			<g>
				<path class="st12" d="M287.3,330.9h-13.1c-3.6,0-2.9-2.8-2.1-5.8c0.9-2.9,2.1-7.5,5.3-7.5c3.1,0,3.4,0,3.4,0s0.2,0,3.4,0
					s4.4,4.5,5.3,7.5C290.2,328.1,290.8,330.9,287.3,330.9z"/>
				<g class="st10">
					<path d="M277,317.8c0,0.1-0.1,0.1-0.1,0.1c-0.1,0-0.1-0.1-0.1-0.1c0-0.1,0.1-0.1,0.1-0.1C276.9,317.7,277,317.8,277,317.8z"/>
					<path d="M279.2,317.8c0,0.1-0.1,0.1-0.1,0.1c-0.1,0-0.1-0.1-0.1-0.1c0-0.1,0.1-0.1,0.1-0.1
						C279.1,317.7,279.2,317.8,279.2,317.8z"/>
					<path d="M281.4,317.8c0,0.1-0.1,0.1-0.1,0.1c-0.1,0-0.1-0.1-0.1-0.1c0-0.1,0.1-0.1,0.1-0.1
						C281.4,317.7,281.4,317.8,281.4,317.8z"/>
					<path d="M283.6,317.8c0,0.1-0.1,0.1-0.1,0.1c-0.1,0-0.1-0.1-0.1-0.1c0-0.1,0.1-0.1,0.1-0.1
						C283.6,317.7,283.6,317.8,283.6,317.8z"/>
					<path d="M274.7,320.7c0,0.1-0.1,0.1-0.1,0.1c-0.1,0-0.1-0.1-0.1-0.1c0-0.1,0.1-0.1,0.1-0.1
						C274.6,320.6,274.7,320.6,274.7,320.7z"/>
					<path d="M277,320.7c0,0.1-0.1,0.1-0.1,0.1c-0.1,0-0.1-0.1-0.1-0.1c0-0.1,0.1-0.1,0.1-0.1C276.9,320.6,277,320.6,277,320.7z"/>
					<path d="M279.2,320.7c0,0.1-0.1,0.1-0.1,0.1c-0.1,0-0.1-0.1-0.1-0.1c0-0.1,0.1-0.1,0.1-0.1
						C279.1,320.6,279.2,320.6,279.2,320.7z"/>
					<path d="M281.4,320.7c0,0.1-0.1,0.1-0.1,0.1c-0.1,0-0.1-0.1-0.1-0.1c0-0.1,0.1-0.1,0.1-0.1
						C281.4,320.6,281.4,320.6,281.4,320.7z"/>
					<path d="M283.6,320.7c0,0.1-0.1,0.1-0.1,0.1c-0.1,0-0.1-0.1-0.1-0.1c0-0.1,0.1-0.1,0.1-0.1
						C283.6,320.6,283.6,320.6,283.6,320.7z"/>
					<path d="M285.9,320.7c0,0.1-0.1,0.1-0.1,0.1c-0.1,0-0.1-0.1-0.1-0.1c0-0.1,0.1-0.1,0.1-0.1
						C285.9,320.6,285.9,320.6,285.9,320.7z"/>
					<circle cx="275.6" cy="319.2" r="0.1"/>
					<circle cx="277.9" cy="319.2" r="0.1"/>
					<circle cx="280.1" cy="319.2" r="0.1"/>
					<path d="M282.5,319.2c0,0.1-0.1,0.1-0.1,0.1c-0.1,0-0.1-0.1-0.1-0.1c0-0.1,0.1-0.1,0.1-0.1
						C282.5,319.1,282.5,319.1,282.5,319.2z"/>
					<path d="M284.7,319.2c0,0.1-0.1,0.1-0.1,0.1c-0.1,0-0.1-0.1-0.1-0.1c0-0.1,0.1-0.1,0.1-0.1
						C284.7,319.1,284.7,319.1,284.7,319.2z"/>
					<path d="M287,319.3l-0.1,0.1c-0.1,0-0.1-0.1-0.1-0.1c0-0.1,0-0.1,0.1-0.1C286.9,319.1,286.9,319.2,287,319.3z"/>
					<path d="M274.7,323.6c0,0.1-0.1,0.1-0.1,0.1c-0.1,0-0.1-0.1-0.1-0.1c0-0.1,0.1-0.1,0.1-0.1
						C274.6,323.4,274.7,323.5,274.7,323.6z"/>
					<path d="M277,323.6c0,0.1-0.1,0.1-0.1,0.1c-0.1,0-0.1-0.1-0.1-0.1c0-0.1,0.1-0.1,0.1-0.1C276.9,323.4,277,323.5,277,323.6z"/>
					<path d="M279.2,323.6c0,0.1-0.1,0.1-0.1,0.1c-0.1,0-0.1-0.1-0.1-0.1c0-0.1,0.1-0.1,0.1-0.1
						C279.1,323.4,279.2,323.5,279.2,323.6z"/>
					<path d="M281.4,323.6c0,0.1-0.1,0.1-0.1,0.1c-0.1,0-0.1-0.1-0.1-0.1c0-0.1,0.1-0.1,0.1-0.1
						C281.4,323.4,281.4,323.5,281.4,323.6z"/>
					<path d="M283.6,323.6c0,0.1-0.1,0.1-0.1,0.1c-0.1,0-0.1-0.1-0.1-0.1c0-0.1,0.1-0.1,0.1-0.1
						C283.6,323.4,283.6,323.5,283.6,323.6z"/>
					<path d="M285.9,323.6c0,0.1-0.1,0.1-0.1,0.1c-0.1,0-0.1-0.1-0.1-0.1c0-0.1,0.1-0.1,0.1-0.1
						C285.9,323.4,285.9,323.5,285.9,323.6z"/>
					<path d="M288.1,323.6c0,0.1-0.1,0.1-0.1,0.1c-0.1,0-0.1-0.1-0.1-0.1c0-0.1,0.1-0.1,0.1-0.1
						C288.1,323.4,288.1,323.5,288.1,323.6z"/>
					<circle cx="273.5" cy="322" r="0.1"/>
					<circle cx="275.6" cy="322" r="0.1"/>
					<circle cx="277.9" cy="322" r="0.1"/>
					<circle cx="280.1" cy="322" r="0.1"/>
					<path d="M282.5,322c0,0.1-0.1,0.1-0.1,0.1c-0.1,0-0.1-0.1-0.1-0.1c0-0.1,0.1-0.1,0.1-0.1C282.5,321.9,282.5,322,282.5,322z"/>
					<path d="M284.7,322c0,0.1-0.1,0.1-0.1,0.1c-0.1,0-0.1-0.1-0.1-0.1c0-0.1,0.1-0.1,0.1-0.1C284.7,321.9,284.7,322,284.7,322z"/>
					<path d="M287,322c0,0.1-0.1,0.1-0.1,0.1c-0.1,0-0.1-0.1-0.1-0.1c0-0.1,0.1-0.1,0.1-0.1C287,321.9,287,322,287,322z"/>
					<path d="M272.5,326.4c0,0.1-0.1,0.1-0.1,0.1l-0.1-0.1c0-0.1,0.1-0.1,0.1-0.1S272.5,326.3,272.5,326.4z"/>
					<path d="M274.7,326.4c0,0.1-0.1,0.1-0.1,0.1c-0.1,0-0.1-0.1-0.1-0.1c0-0.1,0.1-0.1,0.1-0.1
						C274.6,326.3,274.7,326.3,274.7,326.4z"/>
					<path d="M277,326.4c0,0.1-0.1,0.1-0.1,0.1c-0.1,0-0.1-0.1-0.1-0.1c0-0.1,0.1-0.1,0.1-0.1C276.9,326.3,277,326.3,277,326.4z"/>
					<path d="M279.2,326.4c0,0.1-0.1,0.1-0.1,0.1c-0.1,0-0.1-0.1-0.1-0.1c0-0.1,0.1-0.1,0.1-0.1
						C279.1,326.3,279.2,326.3,279.2,326.4z"/>
					<path d="M281.4,326.4c0,0.1-0.1,0.1-0.1,0.1c-0.1,0-0.1-0.1-0.1-0.1c0-0.1,0.1-0.1,0.1-0.1
						C281.4,326.3,281.4,326.3,281.4,326.4z"/>
					<path d="M283.6,326.4c0,0.1-0.1,0.1-0.1,0.1c-0.1,0-0.1-0.1-0.1-0.1c0-0.1,0.1-0.1,0.1-0.1
						C283.6,326.3,283.6,326.3,283.6,326.4z"/>
					<path d="M285.9,326.4c0,0.1-0.1,0.1-0.1,0.1c-0.1,0-0.1-0.1-0.1-0.1c0-0.1,0.1-0.1,0.1-0.1
						C285.9,326.3,285.9,326.3,285.9,326.4z"/>
					<path d="M288.1,326.4c0,0.1-0.1,0.1-0.1,0.1c-0.1,0-0.1-0.1-0.1-0.1c0-0.1,0.1-0.1,0.1-0.1
						C288.1,326.3,288.1,326.3,288.1,326.4z"/>
					<circle cx="273.5" cy="325" r="0.1"/>
					<circle cx="275.6" cy="325" r="0.1"/>
					<circle cx="277.9" cy="325" r="0.1"/>
					<circle cx="280.1" cy="325" r="0.1"/>
					<path d="M282.5,325c0,0.1-0.1,0.1-0.1,0.1c-0.1,0-0.1-0.1-0.1-0.1c0-0.1,0.1-0.1,0.1-0.1C282.5,324.8,282.5,324.8,282.5,325z"
						/>
					<path d="M284.7,325c0,0.1-0.1,0.1-0.1,0.1c-0.1,0-0.1-0.1-0.1-0.1c0-0.1,0.1-0.1,0.1-0.1C284.7,324.8,284.7,324.8,284.7,325z"
						/>
					<path d="M287,325c0,0.1-0.1,0.1-0.1,0.1c-0.1,0-0.1-0.1-0.1-0.1c0-0.1,0.1-0.1,0.1-0.1C287,324.8,287,324.8,287,325z"/>
					<path d="M289.2,325c0,0.1-0.1,0.1-0.1,0.1c-0.1,0-0.1-0.1-0.1-0.1c0-0.1,0.1-0.1,0.1-0.1S289.2,324.8,289.2,325z"/>
					<circle cx="272.4" cy="329.3" r="0.1"/>
					<circle cx="274.6" cy="329.3" r="0.1"/>
					<path d="M277,329.3c0,0.1-0.1,0.1-0.1,0.1c-0.1,0-0.1-0.1-0.1-0.1c0-0.1,0.1-0.1,0.1-0.1C276.9,329.2,277,329.2,277,329.3z"/>
					<path d="M279.2,329.3c0,0.1-0.1,0.1-0.1,0.1c-0.1,0-0.1-0.1-0.1-0.1c0-0.1,0.1-0.1,0.1-0.1
						C279.1,329.2,279.2,329.2,279.2,329.3z"/>
					<circle cx="281.3" cy="329.3" r="0.1"/>
					<circle cx="283.5" cy="329.3" r="0.1"/>
					<circle cx="285.8" cy="329.3" r="0.1"/>
					<circle cx="288" cy="329.3" r="0.1"/>
					<circle cx="273.5" cy="327.9" r="0.1"/>
					<circle cx="275.6" cy="327.9" r="0.1"/>
					<circle cx="277.9" cy="327.9" r="0.1"/>
					<circle cx="280.1" cy="327.9" r="0.1"/>
					<path d="M282.5,327.9c0,0.1-0.1,0.1-0.1,0.1c-0.1,0-0.1-0.1-0.1-0.1c0-0.1,0.1-0.1,0.1-0.1
						C282.5,327.6,282.5,327.8,282.5,327.9z"/>
					<path d="M284.7,327.9c0,0.1-0.1,0.1-0.1,0.1c-0.1,0-0.1-0.1-0.1-0.1c0-0.1,0.1-0.1,0.1-0.1
						C284.7,327.6,284.7,327.8,284.7,327.9z"/>
					<path d="M287,327.9c0,0.1-0.1,0.1-0.1,0.1c-0.1,0-0.1-0.1-0.1-0.1c0-0.1,0.1-0.1,0.1-0.1C287,327.6,287,327.8,287,327.9z"/>
					<path d="M289.2,327.9c0,0.1-0.1,0.1-0.1,0.1c-0.1,0-0.1-0.1-0.1-0.1c0-0.1,0.1-0.1,0.1-0.1
						C289.1,327.6,289.2,327.8,289.2,327.9z"/>
					<circle cx="273.5" cy="330.7" r="0.1"/>
					<circle cx="275.6" cy="330.7" r="0.1"/>
					<circle cx="277.9" cy="330.7" r="0.1"/>
					<circle cx="280.1" cy="330.7" r="0.1"/>
					<path d="M282.5,330.7c0,0.1-0.1,0.1-0.1,0.1c-0.1,0-0.1-0.1-0.1-0.1c0-0.1,0.1-0.1,0.1-0.1
						C282.5,330.6,282.5,330.6,282.5,330.7z"/>
					<path d="M284.7,330.7c0,0.1-0.1,0.1-0.1,0.1c-0.1,0-0.1-0.1-0.1-0.1c0-0.1,0.1-0.1,0.1-0.1
						C284.7,330.6,284.7,330.6,284.7,330.7z"/>
					<path d="M287,330.7c0,0.1-0.1,0.1-0.1,0.1c-0.1,0-0.1-0.1-0.1-0.1c0-0.1,0.1-0.1,0.1-0.1C287,330.6,287,330.6,287,330.7z"/>
					<path d="M289.1,330.6C289,330.6,289,330.6,289.1,330.6C289,330.6,289,330.6,289.1,330.6z"/>
				</g>
			</g>
			<g>
				<path class="st11" d="M278.2,319.2c0,0.6-0.4,1.1-1.1,1.1c-0.6,0-1.1-0.4-1.1-1.1c0-0.6,0.4-1.1,1.1-1.1
					C277.7,318.1,278.2,318.7,278.2,319.2z"/>
				<path class="st11" d="M285.4,319.2c0,0.6-0.4,1.1-1.1,1.1c-0.7,0-1.1-0.4-1.1-1.1c0-0.6,0.4-1.1,1.1-1.1
					C285,318.1,285.4,318.7,285.4,319.2z"/>
				<path class="st6" d="M277.9,319.2c0,0.4-0.3,0.8-0.8,0.8c-0.4,0-0.8-0.3-0.8-0.8c0-0.4,0.3-0.8,0.8-0.8
					C277.6,318.6,277.9,318.9,277.9,319.2z"/>
				<circle class="st6" cx="284.3" cy="319.2" r="0.8"/>
				<path class="st12" d="M284.3,319.4c-0.2,0-0.4-0.2-0.4-0.4s-0.1-2.1-0.7-3.9c-0.4-1.6-1.2-3.4-2.5-3.4c-2.4,0-3.3,6.1-3.3,7.3
					c0,0.2-0.2,0.4-0.4,0.4c-0.2,0-0.4-0.2-0.4-0.4c0-0.1,0.4-8.1,4.2-8.1c3.5,0,3.9,8.1,3.9,8.1
					C284.7,319.2,284.5,319.4,284.3,319.4z"/>
			</g>
		</g>
		<g>
			<rect x="300" y="307.8" class="st5" width="26.3" height="26.3"/>
			<path class="st6" d="M326.9,334.5h-27.4v-27.4h27.4V334.5z M300.6,333.4h25.2v-25.2h-25.2V333.4z"/>
		</g>
		<path class="st2" d="M319.7,330.9h-13.1c-3.6,0-2.9-2.8-2.1-5.8c0.9-2.9,2.1-7.5,5.3-7.5c3.1,0,3.4,0,3.4,0s0.2,0,3.4,0
			s4.4,4.5,5.3,7.5C322.7,328.1,323.3,330.9,319.7,330.9z"/>
		<path d="M309.3,317.8c0,0.1-0.1,0.1-0.1,0.1c-0.1,0-0.1-0.1-0.1-0.1c0-0.1,0.1-0.1,0.1-0.1C309.3,317.7,309.3,317.8,309.3,317.8z"
			/>
		<path d="M311.6,317.8c0,0.1-0.1,0.1-0.1,0.1c-0.1,0-0.1-0.1-0.1-0.1c0-0.1,0.1-0.1,0.1-0.1C311.6,317.7,311.6,317.8,311.6,317.8z"
			/>
		<path d="M313.8,317.8c0,0.1-0.1,0.1-0.1,0.1c-0.1,0-0.1-0.1-0.1-0.1c0-0.1,0.1-0.1,0.1-0.1C313.8,317.7,313.8,317.8,313.8,317.8z"
			/>
		<path d="M316.1,317.8c0,0.1-0.1,0.1-0.1,0.1c-0.1,0-0.1-0.1-0.1-0.1c0-0.1,0.1-0.1,0.1-0.1L316.1,317.8z"/>
		<path d="M307.1,320.7c0,0.1-0.1,0.1-0.1,0.1c-0.1,0-0.1-0.1-0.1-0.1c0-0.1,0.1-0.1,0.1-0.1C307.1,320.6,307.1,320.6,307.1,320.7z"
			/>
		<path d="M309.3,320.7c0,0.1-0.1,0.1-0.1,0.1c-0.1,0-0.1-0.1-0.1-0.1c0-0.1,0.1-0.1,0.1-0.1C309.3,320.6,309.3,320.6,309.3,320.7z"
			/>
		<path d="M311.6,320.7c0,0.1-0.1,0.1-0.1,0.1c-0.1,0-0.1-0.1-0.1-0.1c0-0.1,0.1-0.1,0.1-0.1C311.6,320.6,311.6,320.6,311.6,320.7z"
			/>
		<path d="M313.8,320.7c0,0.1-0.1,0.1-0.1,0.1c-0.1,0-0.1-0.1-0.1-0.1c0-0.1,0.1-0.1,0.1-0.1C313.8,320.6,313.8,320.6,313.8,320.7z"
			/>
		<path d="M316.1,320.7c0,0.1-0.1,0.1-0.1,0.1c-0.1,0-0.1-0.1-0.1-0.1c0-0.1,0.1-0.1,0.1-0.1C316,320.6,316.1,320.6,316.1,320.7z"/>
		<path d="M318.3,320.7c0,0.1-0.1,0.1-0.1,0.1c-0.1,0-0.1-0.1-0.1-0.1c0-0.1,0.1-0.1,0.1-0.1C318.2,320.6,318.3,320.6,318.3,320.7z"
			/>
		<path d="M308.2,319.2c0,0.1-0.1,0.1-0.1,0.1c-0.1,0-0.1-0.1-0.1-0.1c0-0.1,0.1-0.1,0.1-0.1C308.2,319.1,308.2,319.1,308.2,319.2z"
			/>
		<circle cx="310.4" cy="319.2" r="0.1"/>
		<circle cx="312.6" cy="319.2" r="0.1"/>
		<circle cx="314.8" cy="319.2" r="0.1"/>
		<circle cx="317.1" cy="319.2" r="0.1"/>
		<path d="M319.4,319.3l-0.1,0.1c-0.1,0-0.1-0.1-0.1-0.1c0-0.1,0-0.1,0.1-0.1C319.3,319.1,319.3,319.2,319.4,319.3z"/>
		<path d="M307.1,323.6c0,0.1-0.1,0.1-0.1,0.1c-0.1,0-0.1-0.1-0.1-0.1c0-0.1,0.1-0.1,0.1-0.1C307.1,323.4,307.1,323.5,307.1,323.6z"
			/>
		<path d="M309.3,323.6c0,0.1-0.1,0.1-0.1,0.1c-0.1,0-0.1-0.1-0.1-0.1c0-0.1,0.1-0.1,0.1-0.1C309.3,323.4,309.3,323.5,309.3,323.6z"
			/>
		<path d="M311.6,323.6c0,0.1-0.1,0.1-0.1,0.1c-0.1,0-0.1-0.1-0.1-0.1c0-0.1,0.1-0.1,0.1-0.1C311.6,323.4,311.6,323.5,311.6,323.6z"
			/>
		<path d="M313.8,323.6c0,0.1-0.1,0.1-0.1,0.1c-0.1,0-0.1-0.1-0.1-0.1c0-0.1,0.1-0.1,0.1-0.1C313.8,323.4,313.8,323.5,313.8,323.6z"
			/>
		<path d="M316.1,323.6c0,0.1-0.1,0.1-0.1,0.1c-0.1,0-0.1-0.1-0.1-0.1c0-0.1,0.1-0.1,0.1-0.1C316,323.4,316.1,323.5,316.1,323.6z"/>
		<path d="M318.3,323.6c0,0.1-0.1,0.1-0.1,0.1c-0.1,0-0.1-0.1-0.1-0.1c0-0.1,0.1-0.1,0.1-0.1C318.2,323.4,318.3,323.5,318.3,323.6z"
			/>
		<path d="M320.6,323.6c0,0.1-0.1,0.1-0.1,0.1c-0.1,0-0.1-0.1-0.1-0.1c0-0.1,0.1-0.1,0.1-0.1C320.5,323.4,320.6,323.5,320.6,323.6z"
			/>
		<path d="M306,322c0,0.1-0.1,0.1-0.1,0.1c-0.1,0-0.1-0.1-0.1-0.1c0-0.1,0.1-0.1,0.1-0.1C306,321.9,306,322,306,322z"/>
		<path d="M308.2,322c0,0.1-0.1,0.1-0.1,0.1c-0.1,0-0.1-0.1-0.1-0.1c0-0.1,0.1-0.1,0.1-0.1C308.2,321.9,308.2,322,308.2,322z"/>
		<circle cx="310.4" cy="322" r="0.1"/>
		<circle cx="312.6" cy="322" r="0.1"/>
		<circle cx="314.8" cy="322" r="0.1"/>
		<circle cx="317.1" cy="322" r="0.1"/>
		<path d="M319.4,322c0,0.1-0.1,0.1-0.1,0.1c-0.1,0-0.1-0.1-0.1-0.1c0-0.1,0.1-0.1,0.1-0.1L319.4,322z"/>
		<path d="M305,326.4c0,0.1-0.1,0.1-0.1,0.1c-0.1,0-0.1-0.1-0.1-0.1c0-0.1,0.1-0.1,0.1-0.1S305,326.3,305,326.4z"/>
		<path d="M307.1,326.4c0,0.1-0.1,0.1-0.1,0.1c-0.1,0-0.1-0.1-0.1-0.1c0-0.1,0.1-0.1,0.1-0.1C307.1,326.3,307.1,326.3,307.1,326.4z"
			/>
		<path d="M309.3,326.4c0,0.1-0.1,0.1-0.1,0.1c-0.1,0-0.1-0.1-0.1-0.1c0-0.1,0.1-0.1,0.1-0.1C309.3,326.3,309.3,326.3,309.3,326.4z"
			/>
		<path d="M311.6,326.4c0,0.1-0.1,0.1-0.1,0.1c-0.1,0-0.1-0.1-0.1-0.1c0-0.1,0.1-0.1,0.1-0.1C311.6,326.3,311.6,326.3,311.6,326.4z"
			/>
		<path d="M313.8,326.4c0,0.1-0.1,0.1-0.1,0.1c-0.1,0-0.1-0.1-0.1-0.1c0-0.1,0.1-0.1,0.1-0.1C313.8,326.3,313.8,326.3,313.8,326.4z"
			/>
		<path d="M316.1,326.4c0,0.1-0.1,0.1-0.1,0.1c-0.1,0-0.1-0.1-0.1-0.1c0-0.1,0.1-0.1,0.1-0.1S316.1,326.3,316.1,326.4z"/>
		<path d="M318.3,326.4c0,0.1-0.1,0.1-0.1,0.1c-0.1,0-0.1-0.1-0.1-0.1c0-0.1,0.1-0.1,0.1-0.1S318.3,326.3,318.3,326.4z"/>
		<path d="M320.6,326.4c0,0.1-0.1,0.1-0.1,0.1c-0.1,0-0.1-0.1-0.1-0.1c0-0.1,0.1-0.1,0.1-0.1S320.6,326.3,320.6,326.4z"/>
		<path d="M306,325c0,0.1-0.1,0.1-0.1,0.1c-0.1,0-0.1-0.1-0.1-0.1c0-0.1,0.1-0.1,0.1-0.1C306,324.8,306,324.8,306,325z"/>
		<path d="M308.2,325c0,0.1-0.1,0.1-0.1,0.1c-0.1,0-0.1-0.1-0.1-0.1c0-0.1,0.1-0.1,0.1-0.1C308.2,324.8,308.2,324.8,308.2,325z"/>
		<circle cx="310.4" cy="325" r="0.1"/>
		<circle cx="312.6" cy="325" r="0.1"/>
		<circle cx="314.8" cy="325" r="0.1"/>
		<circle cx="317.1" cy="325" r="0.1"/>
		<path d="M319.4,325c0,0.1-0.1,0.1-0.1,0.1c-0.1,0-0.1-0.1-0.1-0.1c0-0.1,0.1-0.1,0.1-0.1S319.4,324.8,319.4,325z"/>
		<circle cx="321.5" cy="325" r="0.1"/>
		<circle cx="304.7" cy="329.3" r="0.1"/>
		<circle cx="307" cy="329.3" r="0.1"/>
		<circle cx="309.2" cy="329.3" r="0.1"/>
		<path d="M311.6,329.3c0,0.1-0.1,0.1-0.1,0.1c-0.1,0-0.1-0.1-0.1-0.1c0-0.1,0.1-0.1,0.1-0.1C311.6,329.2,311.6,329.2,311.6,329.3z"
			/>
		<path d="M313.8,329.3c0,0.1-0.1,0.1-0.1,0.1c-0.1,0-0.1-0.1-0.1-0.1c0-0.1,0.1-0.1,0.1-0.1C313.8,329.2,313.8,329.2,313.8,329.3z"
			/>
		<path d="M316.1,329.3c0,0.1-0.1,0.1-0.1,0.1c-0.1,0-0.1-0.1-0.1-0.1c0-0.1,0.1-0.1,0.1-0.1S316.1,329.2,316.1,329.3z"/>
		<path d="M318.3,329.3c0,0.1-0.1,0.1-0.1,0.1c-0.1,0-0.1-0.1-0.1-0.1c0-0.1,0.1-0.1,0.1-0.1S318.3,329.2,318.3,329.3z"/>
		<path d="M320.6,329.3c0,0.1-0.1,0.1-0.1,0.1c-0.1,0-0.1-0.1-0.1-0.1c0-0.1,0.1-0.1,0.1-0.1S320.6,329.2,320.6,329.3z"/>
		<path d="M306,327.9c0,0.1-0.1,0.1-0.1,0.1c-0.1,0-0.1-0.1-0.1-0.1c0-0.1,0.1-0.1,0.1-0.1C306,327.6,306,327.8,306,327.9z"/>
		<path d="M308.2,327.9c0,0.1-0.1,0.1-0.1,0.1c-0.1,0-0.1-0.1-0.1-0.1c0-0.1,0.1-0.1,0.1-0.1C308.2,327.6,308.2,327.8,308.2,327.9z"
			/>
		<circle cx="310.4" cy="327.9" r="0.1"/>
		<circle cx="312.6" cy="327.9" r="0.1"/>
		<circle cx="314.8" cy="327.9" r="0.1"/>
		<circle cx="317.1" cy="327.9" r="0.1"/>
		<path d="M319.4,327.9c0,0.1-0.1,0.1-0.1,0.1c-0.1,0-0.1-0.1-0.1-0.1c0-0.1,0.1-0.1,0.1-0.1C319.3,327.6,319.4,327.8,319.4,327.9z"
			/>
		<circle cx="321.5" cy="327.9" r="0.1"/>
		<path d="M306,330.7c0,0.1-0.1,0.1-0.1,0.1c-0.1,0-0.1-0.1-0.1-0.1c0-0.1,0.1-0.1,0.1-0.1C306,330.6,306,330.6,306,330.7z"/>
		<path d="M308.2,330.7c0,0.1-0.1,0.1-0.1,0.1c-0.1,0-0.1-0.1-0.1-0.1c0-0.1,0.1-0.1,0.1-0.1C308.2,330.6,308.2,330.6,308.2,330.7z"
			/>
		<circle cx="310.4" cy="330.7" r="0.1"/>
		<circle cx="312.6" cy="330.7" r="0.1"/>
		<circle cx="314.8" cy="330.7" r="0.1"/>
		<circle cx="317.1" cy="330.7" r="0.1"/>
		<path d="M319.4,330.7c0,0.1-0.1,0.1-0.1,0.1c-0.1,0-0.1-0.1-0.1-0.1c0-0.1,0.1-0.1,0.1-0.1S319.4,330.6,319.4,330.7z"/>
		<path d="M321.5,330.6L321.5,330.6L321.5,330.6z"/>
		<path class="st11" d="M310.6,319.2c0,0.6-0.4,1.1-1.1,1.1s-1.1-0.4-1.1-1.1c0-0.6,0.4-1.1,1.1-1.1S310.6,318.7,310.6,319.2z"/>
		<path class="st11" d="M317.9,319.2c0,0.6-0.4,1.1-1.1,1.1c-0.6,0-1.1-0.4-1.1-1.1c0-0.6,0.4-1.1,1.1-1.1
			C317.3,318.1,317.9,318.7,317.9,319.2z"/>
		<circle class="st6" cx="309.6" cy="319.2" r="0.8"/>
		<circle class="st6" cx="316.8" cy="319.2" r="0.8"/>
		<path class="st2" d="M316.8,319.4c-0.2,0-0.4-0.2-0.4-0.4s-0.1-2.1-0.7-3.9c-0.4-1.6-1.2-3.4-2.5-3.4c-2.4,0-3.3,6.1-3.3,7.3
			c0,0.2-0.2,0.4-0.4,0.4c-0.2,0-0.4-0.2-0.4-0.4c0-0.1,0.4-8.1,4.2-8.1c3.5,0,3.9,8.1,3.9,8.1C317.2,319.2,317,319.4,316.8,319.4z"
			/>
		<g>
			<rect x="332.5" y="307.8" class="st5" width="26.3" height="26.3"/>
			<g>
				<g>
					<path class="st1" d="M352.1,330.9H339c-3.6,0-2.9-2.8-2.1-5.8c0.9-2.9,2.1-7.5,5.3-7.5c3.1,0,3.4,0,3.4,0s0.2,0,3.4,0
						s4.4,4.5,5.3,7.5C355.1,328.1,355.6,330.9,352.1,330.9z"/>
					<g class="st10">
						<path d="M341.8,317.8c0,0.1-0.1,0.1-0.1,0.1l-0.1-0.1c0-0.1,0.1-0.1,0.1-0.1L341.8,317.8z"/>
						<path d="M344,317.8c0,0.1-0.1,0.1-0.1,0.1c-0.1,0-0.1-0.1-0.1-0.1c0-0.1,0.1-0.1,0.1-0.1L344,317.8z"/>
						<path d="M346.3,317.8c0,0.1-0.1,0.1-0.1,0.1c-0.1,0-0.1-0.1-0.1-0.1c0-0.1,0.1-0.1,0.1-0.1L346.3,317.8z"/>
						<path d="M348.5,317.8c0,0.1-0.1,0.1-0.1,0.1c-0.1,0-0.1-0.1-0.1-0.1c0-0.1,0.1-0.1,0.1-0.1L348.5,317.8z"/>
						<path d="M339.6,320.7c0,0.1-0.1,0.1-0.1,0.1c-0.1,0-0.1-0.1-0.1-0.1c0-0.1,0.1-0.1,0.1-0.1
							C339.6,320.6,339.6,320.6,339.6,320.7z"/>
						<path d="M341.8,320.7c0,0.1-0.1,0.1-0.1,0.1l-0.1-0.1c0-0.1,0.1-0.1,0.1-0.1S341.8,320.6,341.8,320.7z"/>
						<path d="M344,320.7c0,0.1-0.1,0.1-0.1,0.1c-0.1,0-0.1-0.1-0.1-0.1c0-0.1,0.1-0.1,0.1-0.1C343.9,320.6,344,320.6,344,320.7z"/>
						<path d="M346.3,320.7c0,0.1-0.1,0.1-0.1,0.1c-0.1,0-0.1-0.1-0.1-0.1c0-0.1,0.1-0.1,0.1-0.1
							C346.2,320.6,346.3,320.6,346.3,320.7z"/>
						<path d="M348.5,320.7c0,0.1-0.1,0.1-0.1,0.1c-0.1,0-0.1-0.1-0.1-0.1c0-0.1,0.1-0.1,0.1-0.1
							C348.4,320.6,348.5,320.6,348.5,320.7z"/>
						<path d="M350.8,320.7c0,0.1-0.1,0.1-0.1,0.1c-0.1,0-0.1-0.1-0.1-0.1c0-0.1,0.1-0.1,0.1-0.1
							C350.7,320.6,350.8,320.6,350.8,320.7z"/>
						<path d="M340.7,319.2c0,0.1-0.1,0.1-0.1,0.1c-0.1,0-0.1-0.1-0.1-0.1c0-0.1,0.1-0.1,0.1-0.1S340.7,319.1,340.7,319.2z"/>
						<path d="M342.9,319.2c0,0.1-0.1,0.1-0.1,0.1c-0.1,0-0.1-0.1-0.1-0.1c0-0.1,0.1-0.1,0.1-0.1S342.9,319.1,342.9,319.2z"/>
						<path d="M345.2,319.2c0,0.1-0.1,0.1-0.1,0.1c-0.1,0-0.1-0.1-0.1-0.1c0-0.1,0.1-0.1,0.1-0.1S345.2,319.1,345.2,319.2z"/>
						<path d="M347.4,319.2c0,0.1-0.1,0.1-0.1,0.1c-0.1,0-0.1-0.1-0.1-0.1c0-0.1,0.1-0.1,0.1-0.1S347.4,319.1,347.4,319.2z"/>
						<path d="M349.7,319.2c0,0.1-0.1,0.1-0.1,0.1c-0.1,0-0.1-0.1-0.1-0.1c0-0.1,0.1-0.1,0.1-0.1S349.7,319.1,349.7,319.2z"/>
						<path d="M351.8,319.3l-0.1,0.1c-0.1,0-0.1-0.1-0.1-0.1c0-0.1,0-0.1,0.1-0.1C351.7,319.1,351.8,319.2,351.8,319.3z"/>
						<path d="M339.6,323.6c0,0.1-0.1,0.1-0.1,0.1c-0.1,0-0.1-0.1-0.1-0.1c0-0.1,0.1-0.1,0.1-0.1
							C339.6,323.4,339.6,323.5,339.6,323.6z"/>
						<path d="M341.8,323.6c0,0.1-0.1,0.1-0.1,0.1l-0.1-0.1c0-0.1,0.1-0.1,0.1-0.1S341.8,323.5,341.8,323.6z"/>
						<path d="M344,323.6c0,0.1-0.1,0.1-0.1,0.1c-0.1,0-0.1-0.1-0.1-0.1c0-0.1,0.1-0.1,0.1-0.1C343.9,323.4,344,323.5,344,323.6z"/>
						<path d="M346.3,323.6c0,0.1-0.1,0.1-0.1,0.1c-0.1,0-0.1-0.1-0.1-0.1c0-0.1,0.1-0.1,0.1-0.1
							C346.2,323.4,346.3,323.5,346.3,323.6z"/>
						<path d="M348.5,323.6c0,0.1-0.1,0.1-0.1,0.1c-0.1,0-0.1-0.1-0.1-0.1c0-0.1,0.1-0.1,0.1-0.1
							C348.4,323.4,348.5,323.5,348.5,323.6z"/>
						<path d="M350.8,323.6c0,0.1-0.1,0.1-0.1,0.1c-0.1,0-0.1-0.1-0.1-0.1c0-0.1,0.1-0.1,0.1-0.1
							C350.7,323.4,350.8,323.5,350.8,323.6z"/>
						<path d="M352.9,323.6c0,0.1-0.1,0.1-0.1,0.1c-0.1,0-0.1-0.1-0.1-0.1c0-0.1,0.1-0.1,0.1-0.1
							C352.9,323.4,352.9,323.5,352.9,323.6z"/>
						<circle cx="338.3" cy="322" r="0.1"/>
						<path d="M340.7,322c0,0.1-0.1,0.1-0.1,0.1c-0.1,0-0.1-0.1-0.1-0.1c0-0.1,0.1-0.1,0.1-0.1L340.7,322z"/>
						<path d="M342.9,322c0,0.1-0.1,0.1-0.1,0.1c-0.1,0-0.1-0.1-0.1-0.1c0-0.1,0.1-0.1,0.1-0.1L342.9,322z"/>
						<path d="M345.2,322c0,0.1-0.1,0.1-0.1,0.1c-0.1,0-0.1-0.1-0.1-0.1c0-0.1,0.1-0.1,0.1-0.1L345.2,322z"/>
						<path d="M347.4,322c0,0.1-0.1,0.1-0.1,0.1c-0.1,0-0.1-0.1-0.1-0.1c0-0.1,0.1-0.1,0.1-0.1L347.4,322z"/>
						<path d="M349.7,322c0,0.1-0.1,0.1-0.1,0.1c-0.1,0-0.1-0.1-0.1-0.1c0-0.1,0.1-0.1,0.1-0.1L349.7,322z"/>
						<path d="M351.8,322c0,0.1-0.1,0.1-0.1,0.1c-0.1,0-0.1-0.1-0.1-0.1c0-0.1,0.1-0.1,0.1-0.1C351.8,321.9,351.8,322,351.8,322z"/>
						<path d="M337.3,326.4c0,0.1-0.1,0.1-0.1,0.1c-0.1,0-0.1-0.1-0.1-0.1c0-0.1,0.1-0.1,0.1-0.1
							C337.3,326.3,337.3,326.3,337.3,326.4z"/>
						<path d="M339.6,326.4c0,0.1-0.1,0.1-0.1,0.1c-0.1,0-0.1-0.1-0.1-0.1c0-0.1,0.1-0.1,0.1-0.1
							C339.6,326.3,339.6,326.3,339.6,326.4z"/>
						<path d="M341.8,326.4c0,0.1-0.1,0.1-0.1,0.1l-0.1-0.1c0-0.1,0.1-0.1,0.1-0.1S341.8,326.3,341.8,326.4z"/>
						<path d="M344,326.4c0,0.1-0.1,0.1-0.1,0.1c-0.1,0-0.1-0.1-0.1-0.1c0-0.1,0.1-0.1,0.1-0.1S344,326.3,344,326.4z"/>
						<path d="M346.3,326.4c0,0.1-0.1,0.1-0.1,0.1c-0.1,0-0.1-0.1-0.1-0.1c0-0.1,0.1-0.1,0.1-0.1S346.3,326.3,346.3,326.4z"/>
						<path d="M348.5,326.4c0,0.1-0.1,0.1-0.1,0.1c-0.1,0-0.1-0.1-0.1-0.1c0-0.1,0.1-0.1,0.1-0.1S348.5,326.3,348.5,326.4z"/>
						<path d="M350.8,326.4c0,0.1-0.1,0.1-0.1,0.1c-0.1,0-0.1-0.1-0.1-0.1c0-0.1,0.1-0.1,0.1-0.1S350.8,326.3,350.8,326.4z"/>
						<path d="M352.9,326.4c0,0.1-0.1,0.1-0.1,0.1c-0.1,0-0.1-0.1-0.1-0.1c0-0.1,0.1-0.1,0.1-0.1
							C352.9,326.3,352.9,326.3,352.9,326.4z"/>
						<circle cx="338.3" cy="325" r="0.1"/>
						<path d="M340.7,325c0,0.1-0.1,0.1-0.1,0.1c-0.1,0-0.1-0.1-0.1-0.1c0-0.1,0.1-0.1,0.1-0.1S340.7,324.8,340.7,325z"/>
						<path d="M342.9,325c0,0.1-0.1,0.1-0.1,0.1c-0.1,0-0.1-0.1-0.1-0.1c0-0.1,0.1-0.1,0.1-0.1S342.9,324.8,342.9,325z"/>
						<path d="M345.2,325c0,0.1-0.1,0.1-0.1,0.1c-0.1,0-0.1-0.1-0.1-0.1c0-0.1,0.1-0.1,0.1-0.1S345.2,324.8,345.2,325z"/>
						<path d="M347.4,325c0,0.1-0.1,0.1-0.1,0.1c-0.1,0-0.1-0.1-0.1-0.1c0-0.1,0.1-0.1,0.1-0.1S347.4,324.8,347.4,325z"/>
						<path d="M349.7,325c0,0.1-0.1,0.1-0.1,0.1c-0.1,0-0.1-0.1-0.1-0.1c0-0.1,0.1-0.1,0.1-0.1S349.7,324.8,349.7,325z"/>
						<path d="M351.8,325c0,0.1-0.1,0.1-0.1,0.1c-0.1,0-0.1-0.1-0.1-0.1c0-0.1,0.1-0.1,0.1-0.1C351.8,324.8,351.8,324.8,351.8,325z"
							/>
						<path d="M354,325c0,0.1-0.1,0.1-0.1,0.1c-0.1,0-0.1-0.1-0.1-0.1c0-0.1,0.1-0.1,0.1-0.1C354,324.8,354,324.8,354,325z"/>
						<path d="M337.3,329.3c0,0.1-0.1,0.1-0.1,0.1c-0.1,0-0.1-0.1-0.1-0.1c0-0.1,0.1-0.1,0.1-0.1
							C337.3,329.2,337.3,329.2,337.3,329.3z"/>
						<circle cx="339.4" cy="329.3" r="0.1"/>
						<circle cx="341.7" cy="329.3" r="0.1"/>
						<circle cx="343.9" cy="329.3" r="0.1"/>
						<circle cx="346.2" cy="329.3" r="0.1"/>
						<path d="M348.5,329.3c0,0.1-0.1,0.1-0.1,0.1c-0.1,0-0.1-0.1-0.1-0.1c0-0.1,0.1-0.1,0.1-0.1S348.5,329.2,348.5,329.3z"/>
						<circle cx="350.6" cy="329.3" r="0.1"/>
						<circle cx="352.8" cy="329.3" r="0.1"/>
						<circle cx="338.3" cy="327.9" r="0.1"/>
						<path d="M340.7,327.9c0,0.1-0.1,0.1-0.1,0.1c-0.1,0-0.1-0.1-0.1-0.1c0-0.1,0.1-0.1,0.1-0.1
							C340.6,327.6,340.7,327.8,340.7,327.9z"/>
						<path d="M342.9,327.9c0,0.1-0.1,0.1-0.1,0.1c-0.1,0-0.1-0.1-0.1-0.1c0-0.1,0.1-0.1,0.1-0.1
							C342.8,327.6,342.9,327.8,342.9,327.9z"/>
						<path d="M345.2,327.9c0,0.1-0.1,0.1-0.1,0.1c-0.1,0-0.1-0.1-0.1-0.1c0-0.1,0.1-0.1,0.1-0.1
							C345.1,327.6,345.2,327.8,345.2,327.9z"/>
						<path d="M347.4,327.9c0,0.1-0.1,0.1-0.1,0.1c-0.1,0-0.1-0.1-0.1-0.1c0-0.1,0.1-0.1,0.1-0.1
							C347.3,327.6,347.4,327.8,347.4,327.9z"/>
						<path d="M349.7,327.9c0,0.1-0.1,0.1-0.1,0.1c-0.1,0-0.1-0.1-0.1-0.1c0-0.1,0.1-0.1,0.1-0.1
							C349.6,327.6,349.7,327.8,349.7,327.9z"/>
						<path d="M351.8,327.9c0,0.1-0.1,0.1-0.1,0.1c-0.1,0-0.1-0.1-0.1-0.1c0-0.1,0.1-0.1,0.1-0.1
							C351.8,327.6,351.8,327.8,351.8,327.9z"/>
						<path d="M354,327.9c0,0.1-0.1,0.1-0.1,0.1c-0.1,0-0.1-0.1-0.1-0.1c0-0.1,0.1-0.1,0.1-0.1C354,327.6,354,327.8,354,327.9z"/>
						<circle cx="338.3" cy="330.7" r="0.1"/>
						<path d="M340.7,330.7c0,0.1-0.1,0.1-0.1,0.1c-0.1,0-0.1-0.1-0.1-0.1c0-0.1,0.1-0.1,0.1-0.1S340.7,330.6,340.7,330.7z"/>
						<path d="M342.9,330.7c0,0.1-0.1,0.1-0.1,0.1c-0.1,0-0.1-0.1-0.1-0.1c0-0.1,0.1-0.1,0.1-0.1S342.9,330.6,342.9,330.7z"/>
						<path d="M345.2,330.7c0,0.1-0.1,0.1-0.1,0.1c-0.1,0-0.1-0.1-0.1-0.1c0-0.1,0.1-0.1,0.1-0.1S345.2,330.6,345.2,330.7z"/>
						<path d="M347.4,330.7c0,0.1-0.1,0.1-0.1,0.1c-0.1,0-0.1-0.1-0.1-0.1c0-0.1,0.1-0.1,0.1-0.1S347.4,330.6,347.4,330.7z"/>
						<path d="M349.7,330.7c0,0.1-0.1,0.1-0.1,0.1c-0.1,0-0.1-0.1-0.1-0.1c0-0.1,0.1-0.1,0.1-0.1S349.7,330.6,349.7,330.7z"/>
						<path d="M351.8,330.7c0,0.1-0.1,0.1-0.1,0.1c-0.1,0-0.1-0.1-0.1-0.1c0-0.1,0.1-0.1,0.1-0.1
							C351.8,330.6,351.8,330.6,351.8,330.7z"/>
						<path d="M353.9,330.6C353.9,330.6,353.8,330.6,353.9,330.6C353.8,330.6,353.9,330.6,353.9,330.6z"/>
					</g>
				</g>
				<g>
					<path class="st11" d="M343,319.2c0,0.6-0.4,1.1-1.1,1.1c-0.6,0-1.1-0.4-1.1-1.1c0-0.6,0.4-1.1,1.1-1.1S343,318.7,343,319.2z"/>
					<path class="st11" d="M350.2,319.2c0,0.6-0.4,1.1-1.1,1.1c-0.6,0-1.1-0.4-1.1-1.1c0-0.6,0.4-1.1,1.1-1.1
						S350.2,318.7,350.2,319.2z"/>
					<circle class="st6" cx="341.9" cy="319.2" r="0.8"/>
					<circle class="st6" cx="349.2" cy="319.2" r="0.8"/>
					<path class="st1" d="M349.2,319.4c-0.2,0-0.4-0.2-0.4-0.4s-0.1-2.1-0.7-3.9c-0.4-1.6-1.2-3.4-2.5-3.4c-2.4,0-3.3,6.1-3.3,7.3
						c0,0.2-0.2,0.4-0.4,0.4c-0.2,0-0.4-0.2-0.4-0.4c0-0.1,0.4-8.1,4.2-8.1c3.5,0,3.9,8.1,3.9,8.1
						C349.6,319.2,349.4,319.4,349.2,319.4z"/>
				</g>
			</g>
		</g>
	</g>
	<g id="Puff">
		<g>
			<path class="st9" d="M45,466.9l164.9,0.7c40.1-31.5,44.3-78.1,15.6-106.4c-17.3-17.1-39.3-13.6-60.2-16.4c0,0,0,0-0.1,0
				c-7.3-0.9-14.4-2.7-21.2-6.2c-21.6-11.3-33.7-38.2-51.8-60.8c-2.2-2.8-4.6-5.6-7.1-8.2c-14.9-16-44.6-16.4-60.1,6
				C-14.4,332.6,3.7,417.2,45,466.9z"/>
			<path class="st0" d="M41.3,336.9c4.3,67.6,82.4,92.9,131.2,72.7c42.5-17.6,28.5-57.8-7.3-64.6c0,0,0,0-0.1,0
				c-7.3-0.9-14.4-2.7-21.2-6.2c-21.6-11.3-33.7-38.2-51.8-60.8C65.3,264,38.2,287.3,41.3,336.9z"/>
		</g>
	</g>
	<g id="Character">
		<g id="Capa_4">
		</g>
		<path class="st13" d="M196.2,477.2c-2.6-0.9-60.2-47-61.2-50.1c-0.4-1.2,5.8-10,13.6-20.3c1.7-2.2,3.5-4.6,5.3-6.9
			c11.7-15.2,24.4-31,24.4-31l38.6,30.7l-25.4,30.1l-5.6,6.6c0,0,14.2,27.5,15.1,31.1C201.6,470.9,198.7,478.2,196.2,477.2z"/>
		<path class="st3" d="M196.2,477.2c-2.6-0.9-60.2-47-61.2-50.1c-0.4-1.5,8.8-14.2,18.9-27.3l37.5,29.9l-5.6,6.6
			c0,0,14.2,27.5,15.1,31.1C201.6,470.9,198.7,478.2,196.2,477.2z"/>
		<path class="st2" d="M196.2,477.2c-2.6-0.9-60.2-47-61.2-50.1c-0.4-1.2,5.8-10,13.6-20.3l37.2,29.5c0,0,14.2,27.5,15.1,31.1
			C201.6,470.9,198.7,478.2,196.2,477.2z"/>
		<g>
			<g>
				<path class="st6" d="M197.2,474.2c-9.4-8-48.4-39.2-58.4-46.3c-0.1-0.1-0.1,0,0,0.1c9.2,8.1,48.4,39,58.3,46.4
					C197.2,474.6,197.4,474.3,197.2,474.2z"/>
				<path class="st6" d="M198.7,462.3c-2.2-1.9-5.3-2.6-7.6-2.2c-2.2,0.3-4.7,1.3-6.3,3.5c0,0.1,0.1,0.1,0.1,0.1
					c3.6-3.4,9.7-3.9,13.7-1.1C198.7,462.4,198.8,462.3,198.7,462.3z"/>
				<path class="st6" d="M188.7,440.2c-3.8-3.1-9.4-5.4-14.4-4.2c-0.2,0-0.1,0.3,0,0.3c4.9,1,9.3,2.4,13.9,4.3
					C188.8,440.9,189,440.4,188.7,440.2z"/>
				<path class="st6" d="M190.8,443.8c-3.8-3.1-9.4-5.4-14.4-4.2c-0.2,0-0.1,0.3,0,0.3c4.9,1,9.3,2.4,13.9,4.3
					C190.8,444.5,191.1,444,190.8,443.8z"/>
				<path class="st6" d="M192.9,447.3c-3.8-3.1-9.4-5.4-14.4-4.2c-0.2,0-0.1,0.3,0,0.3c4.9,1,9.3,2.4,13.9,4.3
					C192.9,447.9,193.1,447.5,192.9,447.3z"/>
				<path class="st6" d="M194.9,450.9c-3.8-3.1-9.4-5.4-14.4-4.2c-0.2,0-0.1,0.3,0,0.3c4.9,1,9.3,2.4,13.9,4.3
					C194.9,451.5,195.2,451.1,194.9,450.9z"/>
				<path class="st3" d="M148.6,420.8c-4.4-3.5-9.8,3.3-5.4,6.7C147.6,430.9,153,424.1,148.6,420.8z"/>
			</g>
			<path class="st6" d="M201.2,433.2c-0.7-3.1-4.4-3.6-7-2.8c-4.2,1.1-8.5,3.9-11.5,7.1c-0.1,0.1,0,0.1,0,0.2
				c-0.1,0.3,0,0.8,0.4,0.9c4.3,0.3,8.8,1.1,13,0.1C198.8,438.1,201.8,436.3,201.2,433.2z M189.8,437.7c-2.1-0.1-4.2-0.3-6.3-0.3
				c2.2-1.3,4.4-2.8,6.7-3.9c1.1-0.6,2.2-1.1,3.5-1.5c1.9-0.6,8.2-0.8,5.3,3.7C197.5,438.1,192.4,437.8,189.8,437.7z"/>
			<path class="st6" d="M172.1,431.2c2.9,3.3,7.2,5.1,10.9,7.2c0.3,0.2,0.8-0.1,0.9-0.4c0.1,0,0.1,0,0.1-0.1
				c-0.7-4.3-2.8-9-5.5-12.2c-1.7-2-5.1-3.8-7.4-1.5C168.8,426.2,170.4,429.3,172.1,431.2z M171.5,427.2c0-5.4,5.3-1.7,6.4-0.1
				c0.8,1,1.5,2.1,2.1,3.1c1.3,2.2,2.4,4.7,3.4,7.1c-1.8-1.1-3.6-2.1-5.4-3.3C175.9,432.7,171.5,430.2,171.5,427.2z"/>
		</g>
		<path class="st14" d="M255.8,340.5c-2.7,20.1-52.1,78.1-57.8,84.7c-0.9,1-1.3,1.5-1.3,1.5l-40.9-31.5l0.4-0.6l36.1-47.2
			l-107.5-0.7l40.8-31.7c0,0,3.3,1.9,10.2,0.9c23.7-3.5,77.2-11.1,89.7-10.7C241.8,306,258.2,322,255.8,340.5z"/>
		<path class="st6" d="M205.2,329.9c-1.3,1.5-2.5,3.1-3.7,4.7c-1.2,1.7-2.6,3.4-3.8,4.9l0,0c0.2-0.4,0.4-1,0.7-1.5
			c0.8-1.7,1.5-3.4,2.4-4.9c0.1-0.1-0.1-0.2-0.1-0.1c-1,1.6-2.1,3-2.9,4.7c-0.4,0.8-0.8,1.6-1.1,2.4c-0.2,0.4-0.3,0.9-0.6,1.3
			c-0.1,0.2-0.2,0.4-0.2,0.7c-0.6,0.8-1.1,1.6-1.7,2.4c-1.2,1.8-2.2,3.6-3.5,5.4c-0.1,0.1,0.1,0.2,0.1,0.1c1.2-1.7,2.6-3.1,3.9-4.8
			c1.2-1.7,2.5-3.4,3.7-5.1c1.1-1.7,2.4-3.4,3.5-5.1C203,333.5,204.3,331.8,205.2,329.9C205.3,329.9,205.2,329.8,205.2,329.9z"/>
		<g>
			<path class="st6" d="M90.8,229c-8.5,6.7-17,50.5-20.2,55.4c-2.4,3.5-5.3,6.9-5.2,8.8c0.1,1.9,8.3,11.5,23.8,14.4
				c15.5,3,30.7-4.4,32.2-6.3c1.6-1.9-2.6-8.6-2.4-14.6c0.1-6.1,5.5-38.9,2.2-48.6C117.6,227,100.5,221.4,90.8,229z"/>
			<path class="st6" d="M122.5,299.5c-1.8-4-2.4-8-2.4-12.4c0.1-4.8,0.7-9.5,1.2-14.4c0.6-5.1,1.1-10,1.7-15.1
				c0.4-4.5,1.1-8.9,0.3-13.4c-0.8-4.3-2.7-8.3-5.5-11.7c0,0-0.1,0-0.1,0.1c2.6,3.4,4.4,7.3,5.1,11.6c0.8,4.7,0,9.5-0.4,14.4
				c-0.6,4.9-1.1,9.9-1.7,14.8c-0.4,4.5-1,9.1-1.1,13.7c0,4.2,0.3,8.9,2.6,12.5C122.3,299.8,122.5,299.7,122.5,299.5z"/>
			<path class="st6" d="M92.1,228.8c-3.9,2.1-5.8,6.4-7.4,10.4c-2.1,5.5-4,11.1-6,16.8c-1.9,5.8-3.5,11.8-5.4,17.6
				c-1.9,5.8-4.6,10.9-8.1,16c-0.1,0.1,0.1,0.2,0.1,0.1c7.4-8.6,9.7-20.2,13-30.8c1.9-5.8,3.8-11.7,5.8-17.4
				C86,236.9,87.7,231.5,92.1,228.8C92.2,228.8,92.2,228.7,92.1,228.8z"/>
			<path class="st6" d="M95.7,227.1c-8.3,3.3-11.6,12.5-14.2,20.4c-3.1,9.4-5.4,19-8.2,28.5c-1.6,5.4-3,11.1-6.5,15.6
				c-0.1,0.1,0.1,0.3,0.2,0.2c2.7-3.1,4-7.2,5.3-11.1c1.6-4.7,2.8-9.4,4.2-14.3c2.6-9.4,4.9-19.2,9.1-28.1
				C87.7,233.7,90.9,229.3,95.7,227.1C95.8,227.2,95.8,227.1,95.7,227.1z"/>
		</g>
		<path class="st15" d="M98.2,286.5c7.3,10.4,32.2,37.6,49.5,41.6c9.5,2.1,55.5,8.6,61.8,2.9c7.4-6.7,3.9-32-1.9-32.2
			c-17.9-0.7-51,2.8-59.3,1c-3.7-0.8-23.6-13.6-44.8-23.9C95.5,271.9,93.6,279.8,98.2,286.5z"/>
		<path class="st2" d="M197.9,297.3l-3,37.9c0,0-41.7-0.7-54.4-7.8c-12.6-7.1-33.1-25.2-40.9-37.7c-7.9-12.6-5.2-19.4,10.1-11.7
			s35.9,20.1,38.6,20.8C151.1,299.5,197.9,297.3,197.9,297.3z"/>
		<path class="st6" d="M191.2,299.9c0-0.1-0.1-0.1-0.2,0c-0.6,2.6-0.7,5.3-1,7.9c-0.3,2.7-0.6,5.5-0.8,8.2c-0.4,5.4-1,10.9-1.2,16.4
			c0,0.2,0.3,0.2,0.3,0c0.8-5.4,1.2-10.8,1.8-16.2c0.2-2.7,0.4-5.4,0.7-8.1C191,305.4,191.2,302.6,191.2,299.9z"/>
		<path class="st2" d="M60.9,355.7c2.2,0.8,67.3-18.1,67.3-18.1l-7.6-22.6c0,0,3.8-7.3,2-14.3c-2.4-9.3-19.7-24.7-21-25.6
			c-5.5-3.6-10.6-3.6-15.1-1.1C67.7,284.2,60.9,355.7,60.9,355.7z"/>
		<path class="st6" d="M110.5,283.4c1.7,1.9,3.5,3.8,5.2,5.7c-0.8-1.5-1.6-2.8-2.5-4.3c0,0,0-0.1,0,0c1.2,1.7,2.4,3.4,3.3,5.3
			c1.2,1.5,2.5,2.9,3.6,4.6c1.3,1.9,2.4,4,2.9,6.3c0.6,2.2,0.6,4.7,0.2,7c-0.4,2.7-1.2,5.3-2.2,7.8c-0.1,0.3-0.6,0.1-0.4-0.2
			c1.2-4.4,2.6-9.1,1.6-13.7c-1-4.5-3.8-8.4-6.6-12c-1.7-2.1-3.4-4.4-5.3-6.3C110.3,283.5,110.4,283.3,110.5,283.4z"/>
		<path class="st13" d="M90.5,275.4c0.2,1.2,5.7,8.9,11.1,8.8c1.8-0.1,1.8-9.7,1.8-9.7l0.2-0.7l2.4-9.9l-13.1-8.6
			C92.9,255.3,90.4,274.9,90.5,275.4z"/>
		<path class="st6" d="M106,264l-2.4,9.9c-2.8-1.1-8.9-4.3-11.7-11.8c0.4-3.4,0.8-6.2,0.8-6.6l0,0l1.7,1L106,264z"/>
		<path class="st13" d="M121.5,251.8c-1.1,17.7-11.9,19.1-15.7,18.9c-3.5-0.2-15.3-1.5-16.1-19.2c-0.7-17.7,7.9-22.9,15.8-22.8
			C113.6,228.7,122.5,234,121.5,251.8z"/>
		<g>
			<path class="st6" d="M118.8,250c-0.4-0.1-0.8-0.2-1.1-0.4c-0.4-0.1-0.8-0.2-1.1-0.7c-0.1-0.2-0.1-0.6,0.1-0.8
				c0.4-0.4,1-0.3,1.6-0.1c0.6,0.2,1,0.4,1.3,1C119.8,249.6,119.4,250.3,118.8,250z"/>
			<path class="st6" d="M107.2,248.6c0.4,0,0.8-0.1,1.2-0.1c0.4,0,0.9,0,1.2-0.3c0.2-0.1,0.2-0.6,0.1-0.8c-0.3-0.4-0.9-0.6-1.5-0.6
				c-0.6,0-1.1,0.2-1.6,0.6C106.3,247.8,106.6,248.6,107.2,248.6z"/>
			<g>
				<g>
					<path class="st6" d="M109.3,251.5C109.3,251.5,109.3,251.6,109.3,251.5c-0.2,1.3-0.6,2.7-1.7,2.9v0.1
						C109.1,254.5,109.4,252.7,109.3,251.5z"/>
					<path class="st6" d="M108.4,250.1c-1.9-0.3-2.5,3.5-0.7,3.8C109.4,254.3,110,250.5,108.4,250.1z"/>
				</g>
				<path class="st6" d="M107.6,250.3c-0.3,0.1-0.8,0.6-1.1,0.4c-0.4,0-0.8-0.4-1-0.9h-0.1c-0.1,0.8,0,1.6,0.8,1.8
					c0.7,0.2,1.3-0.3,1.6-1.1C107.8,250.4,107.7,250.1,107.6,250.3z"/>
			</g>
			<g>
				<g>
					<path class="st6" d="M115.9,252.3l0.1,0.1c-0.2,1.2-0.3,2.6,0.8,3.1v0.1C115.5,255.2,115.6,253.3,115.9,252.3z"/>
					<path class="st6" d="M117.3,251.2c1.9,0.1,1.5,4-0.3,3.9C115.1,254.9,115.6,251,117.3,251.2z"/>
				</g>
				<path class="st6" d="M118.1,251.5c0.3,0.2,0.6,0.7,0.9,0.7c0.4,0.1,0.8-0.3,1.1-0.7c0,0,0.1,0,0,0c-0.1,0.8-0.4,1.5-1.1,1.6
					c-0.7,0-1.1-0.7-1.1-1.3C117.8,251.6,117.9,251.4,118.1,251.5z"/>
			</g>
			<path class="st6" d="M107.7,261.9c0.2,0.3,0.4,0.8,0.9,0.9c0.4,0.1,0.9,0,1.3,0c0,0,0.1,0,0,0.1c-0.4,0.4-1.1,0.6-1.7,0.3
				c-0.6-0.2-0.7-0.7-0.7-1.2C107.5,261.9,107.6,261.9,107.7,261.9z"/>
			<g>
				<path class="st6" d="M113.3,258.2c0,0,0,1.8-0.1,2.7c0,0.1-0.2,0.1-0.6,0.1l0,0c-1.6,0-2.9-0.7-3.7-2c0-0.1,0.1-0.1,0.1-0.1
					c1,1,2.2,1.3,3.5,1.6c0.1-0.2-0.1-3.1,0-3.1c0.4,0,1.3,0.4,1.9,0.7c0.1-3.8-0.4-7.6-0.2-11.3c0-0.1,0.2-0.1,0.2,0
					c0.8,3.9,0.8,8.3,0.8,12.2C115.2,259.4,113.6,258.5,113.3,258.2z"/>
			</g>
		</g>
		<g>
			<path class="st6" d="M89.6,252.4c4.3-1,5.3-5.1,5.3-5.1c5.3-1,8.6-4.2,9-4.5c-0.2,0.3-1.6,2.8-2.4,3.9
				c11.6,0.3,16.7-7.4,16.7-7.4c2.8,4.4,3,6.9,3.4,8.1c0,0,1.6-6.7-1-12.1c-3-6.5-9.1-6.6-9.1-6.6s-8.1-4.4-16.3,1.5
				C86.3,236.4,89.6,252.4,89.6,252.4z"/>
			<path class="st6" d="M110.3,246.8c-2,0.6-4,0.9-6.2,0.9l0,0c3.3-0.2,6.5-1.2,9.2-3.1c1.1-0.8,2.2-1.8,3.1-2.8
				c1-1.1,1.9-2.5,2.4-3.9c0-0.1,0.2-0.1,0.1,0c-0.4,1.5-0.9,2.9-1.8,4.2c-0.9,1.2-2,2.4-3.3,3.1
				C112.9,245.9,111.7,246.4,110.3,246.8"/>
		</g>
		<path class="st13" d="M92.4,253c0,0-3-6.1-5.7-5.1c-2.7,1-1,9.4,1.8,10.9c2.8,1.6,4.3-1,4.3-1L92.4,253z"/>
		<path class="st6" d="M87.3,250.3C87.3,250.3,87.3,250.4,87.3,250.3c1.9,1.2,2.7,3.3,3.1,5.4c-0.4-0.9-1.2-1.3-2.4-0.8
			c-0.1,0,0,0.1,0,0.1c0.9,0,1.5,0.2,1.9,0.9c0.3,0.6,0.6,1.2,0.7,1.8c0.1,0.2,0.4,0.1,0.3-0.1l0,0C91.5,255,90.1,250.9,87.3,250.3z
			"/>
		<path class="st15" d="M76.7,290c-5.3,29.7-0.2,51.9,4.8,54.6c13.6,7.4,46.2-7.6,55.4-10.6c3.7-1.2-13.3-29.7-17-27.9
			c-9,4.2-21.5,11.1-21.9,11.1c-1-0.1-2.1-7.6-7.4-29.8C86.4,269.7,78.9,277.9,76.7,290z"/>
		<path class="st13" d="M166.5,292.2c0.9,3.7-8.4,5.3-8.4,5.3s2.5,0.8,3.7,3c1.3,2.6-2.1,5.8-2.1,5.8s2.4,1.3,3.4,3.8
			c1,2.6-1.9,6.4-1.9,6.4s1.6,2.5,0.9,5.3c-1.1,4.8-8.5,6.6-12.8,8.8c-4.6,2.2-12.2,3-15.7,4.6l-15.1-27.5c0,0,14.5-15.4,22.8-17.7
			C145.8,288.6,165.1,286.4,166.5,292.2z"/>
		<g>
			<path class="st6" d="M157.9,297.3c-5.2-0.2-10.4,0.8-15.6,1.8c-0.1,0-0.1,0.2,0,0.2c5.1-1.1,10.4-0.9,15.5-1.8
				C158,297.5,158,297.3,157.9,297.3z"/>
			<path class="st6" d="M159.5,306c-1.2,0-2.4,0.3-3.5,0.7c-1.2,0.3-2.5,0.7-3.7,1c-2.5,0.7-4.8,1.5-7.2,2.4c-0.1,0-0.1,0.2,0,0.2
				c2.5-0.7,4.8-1.3,7.3-2c1.2-0.3,2.5-0.6,3.7-0.9c1.1-0.2,2.4-0.4,3.5-1C159.7,306.2,159.6,306,159.5,306z"/>
			<path class="st6" d="M161.1,316.6c-1,0-2.1,0.4-3.1,0.8c-1.1,0.3-2.2,0.7-3.3,1c-2.2,0.7-4.4,1.3-6.6,1.9c-0.1,0-0.1,0.2,0,0.2
				c2.2-0.6,4.5-1.1,6.9-1.8c1.1-0.3,2.2-0.6,3.4-0.9C159.1,317.5,160.3,317.3,161.1,316.6L161.1,316.6z"/>
		</g>
		<path class="st2" d="M119,306l15.6,33.4c0,0-48.4,14.2-54.9,5.6c-6.5-8.5-6.1-35.3-3-53.7c3-18.5,11.3-18.9,15.1-2.1
			c3.6,16.7,5.8,27.3,6.4,27.2C98.6,316.2,119,306,119,306z"/>
		<g>
			<path class="st6" d="M112.5,310.5c0-0.1-0.2,0-0.1,0.1c0.9,2.5,2,4.9,3.1,7.3c1.1,2.5,2.2,4.9,3.5,7.5c2.4,4.9,4.6,10,7.2,14.7
				c0.1,0.2,0.3,0,0.3-0.1c-2-5.1-4.4-10-6.6-14.9c-1.1-2.5-2.2-4.8-3.5-7.3C115.1,315.3,114,312.8,112.5,310.5z"/>
			<path class="st6" d="M109,345.5c-1.3,0-2.7,0.4-4,0.7s-2.8,0.4-4.2,0.7c-2.7,0.3-5.5,0.7-8.2,0.7c-2.7,0.1-9.4-0.3-11.5-2.2
				c-1.8-1.7-3-4.3-3.5-6.1c-0.8-3.1-1.2-6.3-1.7-9.5c-0.9-6.7-0.9-13.6-0.7-20.3c0.1-1.9,0.2-3.8,0.3-5.6c0.1-1.9,0.3-3.8,0.4-5.7
				c0-0.1-0.1-0.1-0.1,0c-0.7,3-1,6.2-1.2,9.3c-0.1-1.9-0.3-3.9-0.3-5.8c0-0.1-0.2-0.1-0.2,0c0,2-0.1,4.2,0,6.2
				c0,1.1,0.1,2.4,0.3,3.5c-0.1,2.6-0.2,5.3-0.2,7.9c0.1,6.9,0.6,13.9,2.4,20.4c0.8,2.9,2,5.7,4.7,7.2c1.6,0.9,4.3,1.5,6.4,1.7
				c4.7,0.3,9.3,0,13.9-0.9c1.2-0.2,2.6-0.6,3.8-0.8c1.2-0.2,2.6-0.4,3.7-1C109.1,345.5,109,345.5,109,345.5z"/>
			<g>
				<path class="st6" d="M119.5,306.2L119.5,306.2L119.5,306.2z"/>
				<path class="st6" d="M118.8,305.3c-3.6,1.8-7.2,3.6-10.7,5.4c-1.8,0.9-3.5,1.8-5.3,2.7c-1.7,0.9-4.9,2.6-4.9,2.6
					c0-0.8-0.7-3.1-1-4.6c-0.3-1.7-0.8-3.3-1.1-4.9c-0.1-0.4-0.2-0.8-0.3-1.2c-0.1-0.8-0.1-1.6-0.2-2.4c-0.1-1.2-0.2-2.6-0.4-3.8
					h-0.1c-0.1,1.2-0.1,2.4,0,3.6c-0.6-2-1.1-3.9-1.7-5.8c0-0.1-0.1,0-0.1,0c0.7,3.3,1.3,6.6,2,9.9c0.3,1.6,0.8,3.1,1.2,4.7
					c0.4,1.6,1.2,5.1,1.5,5.1c1.8-0.7,3.6-1.6,5.3-2.4c1.8-0.9,3.6-1.8,5.4-2.7c3.5-1.8,7.1-3.5,10.4-5.5l0.2,0.4
					c0.1,0.1,0.2-0.1,0.1-0.2C119.3,306,119,305.3,118.8,305.3z"/>
				<polygon class="st6" points="119.5,306.2 119.5,306.2 119.5,306.3 				"/>
			</g>
		</g>
		<g>
			<polygon class="st6" points="149.6,338.2 195.2,338.2 215.2,273.7 169.6,273.7 			"/>
			<polygon class="st12" points="151.7,338.2 197.5,338.2 217.5,273.7 171.9,273.7 			"/>
			<path class="st3" d="M189.4,303.9c-0.7,2.5-3.1,4.4-5.6,4.4c-2.5,0-3.9-2-3.3-4.4c0.7-2.5,3.1-4.4,5.6-4.4
				S190.1,301.5,189.4,303.9z"/>
		</g>
		<path class="st13" d="M210.4,296.3c2.2,4,8.1,9.1,8.8,12.6c0.6,3-2,4.3-2,4.3s3.5,1.6,3.6,4.7c0,1.7-2.6,3.1-2.6,3.1
			s2.8,1.3,2.6,4.2c-0.1,2.2-2.7,3.4-2.7,3.4s2,2.5,1.2,4.8c-1.7,4.6-21.1,5.7-24.5-1.3c-1.6-3.3,3.1-3.3,3.1-3.3s-6.9-1.7-7.2-5.6
			c-0.3-4,5.8-3.6,5.8-3.6s-6.6-1.7-6.5-5.8c0.1-4.4,6.2-2.9,6.2-2.9s-4.5-2.7-3.7-5.8c1.3-5.3,11,1,15.3-0.2L210.4,296.3z"/>
		<g>
			<path class="st6" d="M217.7,328.9C217.8,328.8,217.8,328.9,217.7,328.9c-6.3,2-13.8,2.1-20,0c-0.2-0.1-0.2-0.4,0.1-0.4
				C204.5,329.4,210.7,329.8,217.7,328.9z"/>
			<path class="st6" d="M218.2,321c0.1,0,0.1,0.1,0,0.1c-6.5,1.9-14.9,1.9-21.9-1.5c-0.2-0.1-0.3-0.4,0-0.3
				C201.1,321.2,212.1,321.9,218.2,321z"/>
			<path class="st6" d="M195.9,310.5c6.7,2.9,13.8,3.4,21,2.9c0.1,0,0.1,0.1,0,0.1c-3.5,1.2-8.2,1.1-11.8,0.7
				c-3.5-0.4-6.5-1.5-9.3-3.5C195.7,310.6,195.7,310.4,195.9,310.5z"/>
		</g>
		<path class="st13" d="M345.5,425c-0.9,2.6-47.2,60-50.3,61.1c-1.2,0.4-10-5.8-20.3-13.7c-2.2-1.7-4.5-3.5-6.9-5.3
			c-15.2-11.7-30.9-24.5-30.9-24.5l30.8-38.5l30.1,25.5l6.6,5.6c0,0,27.5-14,31.1-14.9C339.3,419.5,346.5,422.5,345.5,425z"/>
		<path class="st3" d="M345.5,425c-0.9,2.6-47.2,60-50.3,61.1c-1.5,0.4-14-8.9-27.2-19l30-37.5l6.6,5.6c0,0,27.5-14,31.1-14.9
			C339.3,419.5,346.5,422.5,345.5,425z"/>
		<path class="st2" d="M345.5,425c-0.9,2.6-47.2,60-50.3,61.1c-1.2,0.4-10-5.8-20.3-13.7l29.7-37.2c0,0,27.5-14,31.1-14.9
			C339.3,419.5,346.5,422.5,345.5,425z"/>
		<g>
			<g>
				<path class="st6" d="M342.6,424c-8,9.4-39.3,48.3-46.5,58.2c-0.1,0.1,0,0.1,0.1,0c8.1-9.2,39.1-48.3,46.6-58.2
					C342.9,423.9,342.8,423.8,342.6,424z"/>
				<path class="st6" d="M330.7,422.5c-1.9,2.2-2.7,5.3-2.2,7.6c0.3,2.2,1.3,4.7,3.4,6.3c0.1,0,0.1-0.1,0.1-0.1
					c-3.4-3.6-3.9-9.7-1.1-13.7C330.9,422.5,330.8,422.3,330.7,422.5z"/>
				<path class="st6" d="M308.6,432.3c-3.1,3.8-5.4,9.3-4.2,14.3c0,0.2,0.3,0.1,0.3,0c1-4.9,2.4-9.3,4.4-13.9
					C309.2,432.3,308.8,432,308.6,432.3z"/>
				<path class="st6" d="M312.1,430.3c-3.1,3.8-5.4,9.3-4.2,14.3c0,0.2,0.3,0.1,0.3,0c1-4.9,2.4-9.3,4.4-13.9
					C312.8,430.2,312.4,430,312.1,430.3z"/>
				<path class="st6" d="M315.6,428.2c-3.1,3.8-5.4,9.3-4.2,14.3c0,0.2,0.3,0.1,0.3,0c1-4.9,2.4-9.3,4.4-13.9
					C316.3,428.2,315.9,428,315.6,428.2z"/>
				<path class="st6" d="M319.2,426.2c-3.1,3.8-5.4,9.3-4.2,14.3c0,0.2,0.3,0.1,0.3,0c1-4.9,2.4-9.3,4.4-13.9
					C319.9,426.2,319.4,425.9,319.2,426.2z"/>
				<path class="st3" d="M288.9,472.4c-3.5,4.4,3.3,9.8,6.7,5.4C299.1,473.4,292.4,468.1,288.9,472.4z"/>
			</g>
			<path class="st6" d="M301.6,419.9c-3.1,0.7-3.6,4.4-2.9,7c1.1,4.2,3.9,8.5,7.1,11.5c0.1,0.1,0.1,0,0.2,0c0.3,0.1,0.8,0,0.9-0.4
				c0.3-4.3,1.1-8.8,0.1-13C306.4,422.2,304.6,419.3,301.6,419.9z M306,431.2c-0.1,2.1-0.3,4.2-0.3,6.3c-1.3-2.2-2.8-4.4-3.9-6.7
				c-0.6-1.1-1.1-2.4-1.5-3.5c-0.6-1.9-0.8-8.2,3.7-5.3C306.4,423.6,306.2,428.6,306,431.2z"/>
			<path class="st6" d="M299.6,449c3.3-2.9,5.1-7.2,7.2-10.9c0.2-0.3-0.1-0.8-0.4-0.9c0-0.1,0-0.1-0.1-0.1c-4.3,0.7-9,2.7-12.2,5.5
				c-2,1.7-3.8,5.1-1.5,7.3C294.5,452.1,297.7,450.6,299.6,449z M295.4,449.5c-5.4,0-1.7-5.3-0.1-6.4c1-0.8,2.1-1.5,3.1-2
				c2.2-1.3,4.7-2.2,7.1-3.4c-1.1,1.8-2.1,3.6-3.3,5.4C301,445.1,298.4,449.5,295.4,449.5z"/>
		</g>
		<path class="st14" d="M296.4,423.9l-32,43.2L156.2,392l-10.4-7.3c0,0-2.9,2-7.4,4.5c-6.2,3.4-15.3,7.8-23.3,8.9
			c-13.5,2-35.8,1.8-47.2-13.4c-9.5-12.7-4.4-29.4-4.4-29.4l14.7-6.3c0,0,34.9-29.1,57.5-30c9.7-0.3,23.6,6.9,36.5,14.5
			C185.2,341.2,296.4,423.9,296.4,423.9z"/>
		<path class="st6" d="M145.7,384.8c0,0-2.9,2-7.4,4.5c-7.9-9.4-24.5-26.5-25-27.1L145.7,384.8z"/>
		<path class="st6" d="M91,339.3c-2.1,1.5-4.2,3-6.2,4.5c-2,1.5-4.2,2.8-6.1,4.4c-1.9,1.6-3.8,3.4-5.6,5.1c-0.9,0.9-1.8,1.7-2.6,2.6
			c-0.9,0.9-1.8,1.7-2.5,2.7c-0.1,0.1,0.1,0.2,0.1,0.1c1-0.7,1.9-1.5,2.8-2.2c1-0.8,1.9-1.7,2.9-2.5c1.9-1.6,3.8-3.1,5.6-4.7
			c1.9-1.6,3.6-3.4,5.4-4.9C86.9,342.7,89.1,341,91,339.3C91.1,339.3,91.1,339.3,91,339.3z"/>
		<path class="st6" d="M288.9,422.3c-2.1,2.2-4,4.7-6,7.1c-1.9,2.4-3.9,4.7-5.8,7.2c-3.8,4.8-7.8,9.5-11.5,14.5
			c-2,2.7-4.2,5.4-6.1,8.1c-0.1,0.1,0.1,0.2,0.2,0.1c4.2-4.6,8-9.4,11.8-14.2c3.8-4.8,7.6-9.7,11.5-14.5c2-2.7,4.2-5.3,6.1-8.1
			C289.1,422.3,288.9,422.2,288.9,422.3z"/>
		<path class="st6" d="M200,422.8c-5.4-4.3-11-8.2-16.5-12.2c-5.5-3.9-11.1-8-16.7-11.8c-1.6-1.1-3.3-2.1-4.8-3.3
			c-1.6-1.1-3.4-2.1-4.9-3.3c-0.1-0.1-0.2,0.1-0.1,0.1c1.5,1,2.8,2.2,4.3,3.4c1.3,1,2.7,2.1,4.2,3.1c2.7,2,5.4,3.9,8.2,6
			c5.5,4,11.1,8,16.7,11.8c3.1,2.2,6.4,4.4,9.7,6.5C200,423.2,200.3,422.9,200,422.8z"/>
		<path class="st6" d="M234.6,378.1c-4.9-4.2-10.3-7.9-15.5-11.7c-5.3-3.8-10.6-7.8-15.8-11.6c-5.3-3.8-10.6-7.6-15.7-11.3
			c-5.1-3.7-10.1-7.4-15.5-10.7c-2.9-1.8-6-3.5-9.1-4.9c-3-1.5-6.2-2.9-9.3-3.8c-0.1,0-0.1,0.1-0.1,0.1c2.7,1.5,5.4,2.7,8.1,4.2
			c2.7,1.5,5.3,2.9,7.9,4.5c5.4,3.3,10.3,7,15.5,10.6c10.6,7.5,21,15.2,31.6,22.6c6,4.2,11.7,8.5,17.9,12.5
			C234.6,378.5,234.9,378.3,234.6,378.1z"/>
	</g>
	<g id="Plant">
		<path class="st2" d="M478.8,360.8c-13.7,18.6-28.1,40.2-31.6,63.5c0,0.3,0.6,0.4,0.6,0.1c1.6-6.4,3.6-12.6,6.1-18.6
			c9-2.5,17.9-4.5,22.6-13.5c4.8-9.2,4.3-21.2,3.3-31.2C479.7,360.4,479.1,360.3,478.8,360.8z"/>
		<g>
			<path class="st6" d="M454,405.5c6.2-13.8,14-27.7,24.1-39.1c0.1-0.1,0.2,0,0.1,0.1c-6.6,8.1-11.6,17-16.5,25.9
				c4.5-4.6,9.5-8.8,13.8-13.6c0.1-0.1,0.2,0,0.1,0.1c-4.3,5.2-9,10.7-14.5,14.5c-1.5,2.8-3,5.5-4.5,8.3c0.3-0.2,0.8-0.4,1.1-0.6
				c0.1,0,0.1,0.1,0.1,0.1c-0.4,0.2-0.9,0.4-1.2,0.7c-0.7,1.3-1.5,2.6-2.1,3.9C454.4,406.1,453.9,405.8,454,405.5z"/>
			<path class="st6" d="M458.6,400.7c3.7-2.1,7.2-4.4,10.6-7.1c0.1-0.1,0.2,0,0.1,0.1c-3.3,2.8-6.7,5.2-10.6,7.2
				C458.6,401,458.5,400.8,458.6,400.7z"/>
		</g>
		<path class="st2" d="M445.7,420.8c0,0.3,0.6,0.2,0.4,0c0.1-7.6,0-15.4,0.1-23.1c2-3.9,6.2-6.2,9.1-9.3c2.1-2.2,3.9-4.8,5.5-7.6
			c3.6-6.5,5.6-13.8,6.4-21.2c0.8-8.2-2.4-35.3-5.7-34.4c-1.8,0.4-7.6,13.9-9.1,18.3c-2.5,7.3-4.3,14.8-5.5,22.5
			C444,384,444.2,402.6,445.7,420.8z"/>
		<g>
			<path class="st6" d="M445.6,387.6L445.6,387.6c0.4-9.8,2.7-19.5,4.7-29c2.2-10.1,4.8-19.7,10-28.8c0.1-0.1,0.3,0,0.2,0.1
				c-3.6,7-6.1,14.5-8.1,22.1c0.3-0.6,0.8-1,1.1-1.6c0.1-0.2,0.4,0,0.3,0.2c-0.6,0.8-1,1.7-1.7,2.4c0,0,0,0-0.1,0
				c-1.8,7.3-3.1,14.7-4.2,22.1c0.1-0.1,0.1-0.2,0.2-0.3c0.1-0.1,0.1,0,0.1,0.1c-0.1,0.2-0.3,0.4-0.4,0.8c-0.6,3.7-1.1,7.5-1.6,11.2
				c6.7-5.7,12.4-12.5,15.6-20.8h0.1c-3.1,8.6-8.1,16.3-15.8,21.5c-0.1,1-0.2,2-0.4,3c0,0.2-0.3,0.1-0.3,0c0-0.9,0-1.8,0.1-2.7
				C445.6,387.9,445.5,387.7,445.6,387.6z"/>
			<path class="st6" d="M448.7,373.6c5.2-7.6,9.9-15.1,13.6-23.5c0-0.1,0.2,0,0.1,0.1c-3.1,8.4-7.5,16.8-13.6,23.6
				C448.8,373.9,448.6,373.7,448.7,373.6z"/>
			<path class="st6" d="M455.6,348.2c2.1-3.7,4.4-7.4,6.3-11.2c0-0.1,0.2,0,0.1,0.1c-1.7,3.9-3.7,7.9-6.2,11.3
				C455.7,348.5,455.5,348.4,455.6,348.2z"/>
			<path class="st6" d="M454.7,349.8C454.8,349.8,454.8,349.9,454.7,349.8C454.7,349.9,454.7,349.8,454.7,349.8z"/>
		</g>
		<path class="st2" d="M440.4,398.5c-0.1,5.1-0.7,10.2-1.8,15.2c0.1,0.6,0.1,1.1,0.2,1.7c1.6-5.5,2.5-11.1,2.7-16.8
			c0.1-0.1,0.1-0.3,0-0.6l0,0c0.3-7.6-0.4-15.3-1.7-22.8c-2.4-14.2-7.5-27.6-17.4-38.2c-0.3-0.3-0.9-0.1-1.1,0.2
			c-3.9,10.1-2.6,22.1,0.8,32.2c1.8,5.4,4.5,10.7,7.8,15.3C433.5,389.3,437.7,393.4,440.4,398.5z"/>
		<g>
			<path class="st6" d="M423.7,341.6c9.3,15.2,15.8,33.1,16.6,51c0,0.3-0.6,0.4-0.6,0.1c-0.2-1.6-0.4-3.1-0.7-4.8l0,0
				c-3.8-3.7-7.9-7.6-10.6-12.2c0-0.1,0.1-0.2,0.1-0.1c3.4,3.8,6.5,7.8,10.3,11.2c-0.7-3.9-1.5-7.9-2.4-11.7
				c-0.2-0.3-0.4-0.6-0.8-0.9c-0.1-0.2,0.1-0.4,0.2-0.2c0.1,0.1,0.1,0.1,0.2,0.2c-1.3-5.3-2.9-10.4-4.8-15.5
				c-2.4-2.8-5.1-5.3-6.7-8.6c0-0.1,0.1-0.1,0.1-0.1c1.3,1.9,2.7,3.9,4.3,5.7c0.7,0.7,1.3,1.3,2,2.1c-2.1-5.4-4.6-10.7-7.6-16
				C423.2,341.6,423.6,341.4,423.7,341.6z"/>
			<path class="st6" d="M425.6,360.2c3,4,6.4,8,9.2,12.1c0.1,0.1-0.1,0.2-0.2,0.1c-3.6-3.4-6.6-8-9.2-12.1
				C425.3,360.2,425.5,360.1,425.6,360.2z"/>
			<path class="st6" d="M435.3,373.4l0.1,0.1c0.1,0.1,0,0.2-0.1,0.1l-0.1-0.1C435,373.4,435.1,373.3,435.3,373.4z"/>
		</g>
		<path class="st2" d="M409.1,370.7c0.8,7.8,4.8,17.1,9.9,23.1c2.2,2.7,4.9,4.7,8,6.2c3.5,1.7,7.1,3.7,10.7,5.1
			c1.7,4.3,2.9,8.8,3.8,13.4c0.1-0.3,0.2-0.8,0.3-1.2c-2.2-19.8-15.1-36.6-31.3-47.4C409.8,369.5,409,370,409.1,370.7z"/>
		<g>
			<path class="st6" d="M414.7,376.5c-0.1-0.1,0-0.3,0.1-0.2c8.6,6.4,16.4,15.7,20.8,25.6c0.1,0.2-0.2,0.6-0.4,0.2
				c-0.8-1.3-1.6-2.6-2.4-3.9l0,0c-3.7-0.7-7.3-3.4-10-5.8c-0.1-0.1,0-0.2,0.1-0.1c1.5,1.2,3,2.5,4.7,3.3c1.6,0.8,3.1,1.2,4.7,1.9
				c-1.3-2.2-2.8-4.3-4.3-6.3c-4-1.3-7.9-3.8-11.2-6.3c-0.1-0.1,0-0.2,0.1-0.2c3.5,2,6.9,3.9,10.4,5.6c-2.2-3-4.7-5.8-7.3-8.5
				c-1.2-0.7-2.6-1.3-3.8-2c-0.1-0.1,0-0.2,0.1-0.2c1,0.3,2,0.8,2.9,1.5C417.8,379.4,416.4,378,414.7,376.5z"/>
			<path class="st6" d="M415,383.4c0.2,0.1,0.4,0.2,0.7,0.4c0.1,0,0,0.1-0.1,0.1c-0.2-0.1-0.4-0.2-0.7-0.3
				C414.8,383.5,414.9,383.2,415,383.4z"/>
		</g>
		<g>
			<g>
				<polygon class="st12" points="467.2,461.2 422.5,461.2 426,420.4 426.8,411.4 462.8,411.4 463.6,420.4 				"/>
				<polygon class="st6" points="463.6,420.4 426,420.4 426.8,411.4 462.8,411.4 				"/>
			</g>
			<rect x="424.7" y="405.2" class="st12" width="40.2" height="8.9"/>
		</g>
	</g>
</g>
</svg>
