<?xml version="1.0" encoding="utf-8"?>
<!-- Generator: Adobe Illustrator 23.0.5, SVG Export Plug-In . SVG Version: 6.00 Build 0)  -->
<svg version="1.1" id="Layer_1" xmlns="http://www.w3.org/2000/svg" xmlns:xlink="http://www.w3.org/1999/xlink" x="0px" y="0px"
	 width="136.9px" height="79.4px" viewBox="0 0 136.9 79.4" style="enable-background:new 0 0 136.9 79.4;" xml:space="preserve">
<style type="text/css">
	.st0{fill:#FFD04C;}
	.st1{fill:#8D5DA7;}
</style>
<g>
	<g>
		<path class="st0" d="M24,7.6"/>
		<path class="st0" d="M41.2,63.6c0.6-2.7,0.4-5.2,0-7c-1.2-5.2-4.4-8.9-9.3-11c-3.3-1.5-7-2.5-10.6-3.5c-2.1-0.6-4.1-1.7-5.6-3.3
			c-1.2-1.5-2.1-3.3-2.5-5.2c-0.2-1.2-0.4-2.7-0.6-3.9c0-0.6-0.8-3.5-0.4-3.9c0.6-0.6,2.5,2.9,2.9,3.3c1.5,1.5,3.5,2.5,5.6,3.3
			c8.3,3.5,18.2,5.4,23.6,13.3c2.7,3.9,4.8,8.9,3.9,13.7c-0.8,5-3.5,10.4-6.8,13.9c-3.7,3.9-8.7,6-14.1,6.2C18,79.9,11,75.8,6,67.9
			c-4.6-6.6-5.8-14.3-6-22.2c0-0.2,0.2-0.6,0.2-0.8c0,0,0.2,0,0.6-0.2C1,45.3,1,46.2,1.2,46.8c1,8.1,3.1,15.5,8.5,21.8
			c6,6.8,16,9.1,23.4,5C36.3,71.7,40.2,66.9,41.2,63.6"/>
		<path class="st0" d="M46.2,42.7c-0.2-0.2-0.6-0.2-0.6-0.4c-2.1-4.8-7.7-7.3-12.2-8.9c-4.6-1.7-9.1-2.7-13.1-5.4
			c-2.5-1.7-4.6-3.9-5.8-6.4c-1.2-2.9-1-6-1.7-9.1l0,0c0-0.4,0.6-0.6,0.8-0.2l0.2,0.2c1,3.5,3.7,5.6,6.8,7c3.3,1.5,6.8,2.5,10.2,3.9
			c2.9,1.2,6,2.3,8.7,3.7c5.8,3.3,6.8,9.1,7,15.1C46.6,42.2,46.4,42.4,46.2,42.7z"/>
		<path class="st0" d="M47.4,29.6c0,0.4-0.4,0.6-0.8,0.4c0,0-0.2,0-0.2-0.2c-2.7-5.4-7.9-7.7-13.3-9.5c-3.7-1.2-7.7-2.5-11.4-4.1
			c-2.1-0.8-3.9-2.3-5.2-4.1c-0.4-0.6-0.8-1.5-1.2-2.3c-0.2-1-0.4-2.1-0.6-2.9c-0.2-1.2-0.4-2.3-0.6-3.3c0-0.6-0.2-1-0.2-1.7
			c0-0.4-0.2-1-0.2-1.5s0.8-0.6,1,0c1,3.1,3.1,5.2,6,6.4c3.5,1.5,7,2.7,10.6,3.9c3.9,1.5,7.9,2.9,11,5.6
			C46.2,19.7,47,24.4,47.4,29.6z"/>
	</g>
	<g>
		<g>
			<path class="st1" d="M65.5,23.9c1.3,0,2.1-0.8,2.1-2.3c0-1.5-0.8-2.1-2.1-2.1c-1.5,0-2.1,0.8-2.1,2.1
				C63.2,23.2,64,23.9,65.5,23.9z"/>
			<path class="st1" d="M72.2,23.9c1.3,0,2.1-0.8,2.1-2.3c0-1.5-0.8-2.1-2.1-2.1c-1.5,0-2.1,0.8-2.1,2.1
				C70.1,23.2,70.7,23.9,72.2,23.9z"/>
			<polygon class="st1" points="94.9,1.1 85.3,2.8 83.9,5.7 93.5,4 			"/>
			<path class="st1" d="M87,14c0.8,0,1.3-0.2,1.9-0.6c0.6,0.4,1.2,0.6,1.9,0.6c1,0,1.5-0.2,2.1-0.8c0.6-0.6,0.8-1.2,0.8-2.1V7.4
				l-0.2,0.2c-1.2,0.6-1.9,1.9-1.9,3.3v0.2c0,0.6-0.4,1-1,1c-0.6,0-1-0.2-1-0.8V8l-0.6,0.4C88.4,8.8,88,9.5,88,10.5v0.6
				c0,0.6-0.4,0.8-1,0.8c-0.6,0-1-0.4-1-1V8.6l-1.2,0.6c-0.6,0.4-1,1-1,1.7v0.2c0,0.8,0.2,1.5,0.8,2.1C85.5,13.6,86.2,14,87,14z"/>
			<path class="st1" d="M135.8,33.5c-1.5,0.8-2.3,2.3-2.3,4V41c0,2.9-1.5,4.4-4.4,4.4h-0.6c-2.9,0-4.2-1.5-4.2-4.4v-6.3
				c0-0.2-0.2-0.2-0.4-0.2l-1.2,0.6c-1.5,0.8-2.3,2.3-2.3,4v2.1c0,2.9-1.5,4.4-4.4,4.4h-0.6c-2.9,0-4.4-1.5-4.4-4.4v-5
				c0-0.2-0.2-0.2-0.4-0.2l-1.3,0.8c-1.3,0.8-2.1,2.1-2.1,3.6v0.8c0,2.9-1.3,4.4-4.2,4.4h-0.4H102h-1.3h-2.3h-2.1h-0.4h-0.2
				c-1.5,0-2.7-0.4-3.3-1.2c-0.6-0.8-1-1.9-1-3.6v-23c0-0.2-0.2-0.2-0.2-0.2l-1.3,0.8c-1.3,0.8-2.3,2.1-2.3,3.6v18.8
				c0,3.3-1.5,4.8-4.6,4.8h-2.3h-0.2c-2.9,0-4.2-1.5-4.2-4.4V27.4c0-0.2-0.2-0.2-0.2-0.2l-1.9,1c-1,0.6-1.7,1.5-1.7,2.7l0,0
				c-1.2-0.8-2.5-1.2-4.2-1.2c-2.1,0-3.8,0.8-5.4,2.3c-1.7,1.7-2.7,4-2.7,6.9c0,2.3,0.6,4.4,1.9,6.1c1.5,1.9,3.6,2.9,6.1,2.9
				c1.9,0,3.6-0.6,5.2-1.9c0,0,0.2,0,0.4,0c1.3,2.1,3.5,3.3,6.5,3.3h0.8h2.3l0,0l0,0c2.5,0,4.4-0.8,6-2.3h0.2
				c1.3,1.5,3.3,2.3,5.8,2.3H96h0.4h2.1h2.1h1.2h0.6h0.8c2.5,0,4.4-0.8,5.6-2.5c0-0.2,0.2-0.2,0.4,0c1.3,1.5,3.3,2.5,5.6,2.5h1.5
				c2.5,0,4.2-0.8,5.6-2.5c0-0.2,0.2-0.2,0.4,0c1.3,1.5,3.1,2.5,5.6,2.5h1.5c2.3,0,4-0.8,5.4-1.9c1.5-1.3,2.3-3.5,2.3-6v-8.1
				c0-0.2-0.2-0.2-0.4-0.2L135.8,33.5z M71.5,43.3c-2.5,1.9-6.3,0.6-7.3-2.5C64,40.3,64,39.5,64,38.7c0-1.7,0.4-3.1,1.2-4
				s1.9-1.5,3.3-1.5c1.5,0,2.9,0.6,4,1.7c0,0,0,0,0,0.2v6.1c0,0.2,0,0.6,0,1.2v0.2C72,42.8,71.6,43.1,71.5,43.3z"/>
		</g>
		<g>
			<path class="st1" d="M68,67.7c-1-0.6-1.9-0.8-3.1-0.8c-0.6,0-1.2,0.2-1.5,0.4c-0.4,0.2-0.6,0.6-0.6,1.2c0,0.6,0.2,1,0.6,1.2
				c0.4,0.2,1,0.6,1.9,0.8c1.3,0.4,2.3,0.8,2.9,1.3c0.8,0.6,1.2,1.5,1.2,2.7c0,1.2-0.4,1.9-1.2,2.7c-0.8,0.8-1.9,1-3.3,1
				c-1.7,0-3.3-0.6-4.6-1.5l0.8-1.3c1,0.6,2.1,1,3.5,1c1.7,0,2.5-0.6,2.5-1.9c0-0.6-0.2-1-0.6-1.2c-0.4-0.2-1-0.6-2.1-0.8
				c-2.7-0.6-4-1.9-4-3.8c0-1,0.4-1.7,1.2-2.5c0.8-0.6,1.7-1,3.1-1c1.5,0,2.9,0.4,4,1.3L68,67.7z"/>
			<path class="st1" d="M82.2,77.9h-1.9l-0.2-1.3c-1,1.2-2.3,1.5-4,1.5c-1.3,0-2.3-0.4-3.1-1c-0.8-0.8-1.2-1.7-1.2-2.9
				c0-1.3,0.6-2.5,1.7-3.1c1.2-0.8,2.7-1.2,4.8-1.2h1.5v-0.2c0-1.9-1-2.9-2.9-2.9c-1.2,0-2.3,0.4-3.5,1.2l-0.8-1.3
				c1.3-1.2,3.1-1.9,4.8-1.9c2.9,0,4.4,1.7,4.4,5.2v7.9H82.2z M79.9,71.6h-1.2c-2.9,0-4.2,0.8-4.2,2.5c0,0.8,0.2,1.2,0.6,1.7
				c0.4,0.4,1.2,0.6,1.9,0.6c0.6,0,1.2-0.2,1.7-0.6c0.6-0.4,1.2-0.8,1.3-1.3v-2.9H79.9z"/>
			<path class="st1" d="M88.7,60.2v17.7h-2.3V64.3C86.4,62.5,87.4,61,88.7,60.2L88.7,60.2z"/>
			<path class="st1" d="M102.4,77.9h-1.9l-0.2-1.3c-1,1.2-2.3,1.5-4,1.5c-1.3,0-2.3-0.4-3.1-1c-0.8-0.8-1.2-1.7-1.2-2.9
				c0-1.3,0.6-2.5,1.7-3.1c1.2-0.8,2.7-1.2,4.8-1.2h1.5v-0.2c0-1.9-1-2.9-2.9-2.9c-1.2,0-2.3,0.4-3.5,1.2L93,66.8
				c1.3-1.2,3.1-1.9,4.8-1.9c2.9,0,4.4,1.7,4.4,5.2v7.9H102.4z M100.1,71.6h-1.2c-2.9,0-4.2,0.8-4.2,2.5c0,0.8,0.2,1.2,0.6,1.7
				c0.4,0.4,1,0.6,1.7,0.6s1.3-0.2,1.9-0.6c0.6-0.4,1-0.8,1.2-1.3V71.6z"/>
			<path class="st1" d="M107,76.6L107,76.6c0-1,0.6-1.3,1.5-1.3c1,0,1.5,0.4,1.5,1.3c0,1-0.6,1.5-1.5,1.5
				C107.4,78.1,107,77.5,107,76.6z"/>
			<path class="st1" d="M121.2,67.7c-1-0.6-1.9-0.8-3.1-0.8c-0.6,0-1.2,0.2-1.5,0.4c-0.4,0.2-0.6,0.6-0.6,1.2c0,0.6,0.2,1,0.6,1.2
				c0.4,0.2,1,0.6,1.9,0.8c1.3,0.4,2.3,0.8,2.9,1.3c0.8,0.6,1.2,1.5,1.2,2.7c0,1.2-0.4,1.9-1.2,2.7c-0.8,0.8-1.9,1-3.3,1
				c-1.7,0-3.3-0.6-4.6-1.5l0.8-1.3c1,0.6,2.1,1,3.5,1c1.7,0,2.5-0.6,2.5-1.9c0-0.6-0.2-1-0.6-1.2c-0.4-0.2-1-0.6-2.1-0.8
				c-2.7-0.6-4-1.9-4-3.8c0-1,0.4-1.7,1.2-2.5c0.8-0.6,1.7-1,3.1-1c1.5,0,2.9,0.4,4,1.3L121.2,67.7z"/>
			<path class="st1" d="M135,77.9l-0.4-1.3c-0.8,1.2-2.1,1.7-3.6,1.7c-1.9,0-3.3-0.8-4.4-2.1c-1-1.2-1.3-2.5-1.3-4.2
				c0-2.3,0.6-4,1.9-5.2c1.2-1,2.3-1.5,3.8-1.5c1.3,0,2.5,0.4,3.5,1.3v-2.1c0-1.7,1-3.3,2.3-4l0,0V76C136.7,77.1,136,77.9,135,77.9
				L135,77.9z M134.4,74.1v-5c-0.2-0.6-0.6-1.2-1.2-1.5c-0.8-0.6-1.5-0.8-2.3-0.6c-1,0.2-1.7,0.6-2.3,1.3c-0.6,0.8-1,1.9-1,3.3
				c0,1.5,0.4,2.9,1.2,3.6c0.6,0.8,1.5,1.2,2.5,1.2c0.8,0,1.3-0.2,1.9-0.8C133.9,75.2,134.2,74.6,134.4,74.1z"/>
		</g>
	</g>
</g>
</svg>
