<?xml version="1.0" encoding="utf-8"?>
<!-- Generator: Adobe Illustrator 23.0.5, SVG Export Plug-In . SVG Version: 6.00 Build 0)  -->
<svg version="1.1" id="Layer_1" xmlns="http://www.w3.org/2000/svg" xmlns:xlink="http://www.w3.org/1999/xlink" x="0px" y="0px"
	 width="70px" height="40.2px" viewBox="0 0 70 40.2" style="enable-background:new 0 0 70 40.2;" xml:space="preserve">
<style type="text/css">
	.st0{fill:#FFD04C;}
	.st1{fill:#9752B3;}
</style>
<g>
	<g>
		<path class="st0" d="M58.2,4.6"/>
		<path class="st0" d="M66.5,31.6c0.3-1.3,0.2-2.5,0-3.4c-0.6-2.5-2.1-4.3-4.5-5.3c-1.6-0.7-3.4-1.2-5.1-1.7c-1-0.3-2-0.8-2.7-1.6
			c-0.7-0.7-1.1-1.5-1.2-2.5c-0.1-0.6-0.2-1.3-0.3-1.9c0-0.3-0.4-1.7-0.2-1.9c0.3-0.3,1.2,1.4,1.4,1.6c0.7,0.7,1.7,1.2,2.7,1.6
			c4,1.7,8.8,2.6,11.4,6.4c1.3,1.9,2.3,4.3,1.9,6.6c-0.4,2.4-1.7,5-3.3,6.7c-1.8,1.9-4.2,2.9-6.8,3c-4.5,0.3-7.9-1.7-10.3-5.5
			c-2.1-3.3-2.7-7-2.8-10.9c0-0.1,0.1-0.3,0.1-0.4c0,0,0.1,0,0.3-0.1c0.1,0.3,0.1,0.7,0.2,1c0.5,3.9,1.5,7.5,4.1,10.5
			c2.9,3.3,7.7,4.4,11.3,2.4C64.1,35.5,66,33.2,66.5,31.6"/>
		<path class="st0" d="M68.9,21.5c-0.1-0.1-0.3-0.1-0.3-0.2c-1-2.3-3.7-3.5-5.9-4.3c-2.2-0.8-4.4-1.3-6.3-2.6
			c-1.2-0.8-2.2-1.9-2.8-3.1C53,10,53.1,8.4,52.8,7l0,0c0-0.2,0.3-0.3,0.4-0.1L53.3,7c0.5,1.7,1.8,2.7,3.3,3.4
			c1.6,0.7,3.3,1.2,4.9,1.9c1.4,0.6,2.9,1.1,4.2,1.8c2.8,1.6,3.3,4.4,3.4,7.3C69.1,21.3,69,21.4,68.9,21.5z"/>
		<path class="st0" d="M69.5,15.2c0,0.2-0.2,0.3-0.4,0.2c0,0-0.1,0-0.1-0.1c-1.3-2.6-3.8-3.7-6.4-4.6c-1.8-0.6-3.7-1.2-5.5-2
			c-1-0.4-1.9-1.1-2.5-2C54.4,6.4,54.2,6,54,5.6s-0.2-0.9-0.3-1.4s-0.2-1.1-0.3-1.6c0-0.3-0.1-0.5-0.1-0.8c0-0.2-0.1-0.5-0.1-0.7
			s0.4-0.3,0.5,0c0.5,1.5,1.5,2.5,2.9,3.1C58.3,4.8,60,5.4,61.8,6c1.9,0.7,3.8,1.4,5.3,2.7C68.9,10.4,69.3,12.7,69.5,15.2z"/>
	</g>
	<g>
		<g>
			<path class="st1" d="M2.8,11.9c0.7,0,1.1-0.4,1.1-1.2S3.5,9.6,2.8,9.6C2,9.6,1.6,10,1.6,10.8C1.6,11.5,2,11.9,2.8,11.9z"/>
			<path class="st1" d="M6.3,11.9c0.7,0,1.1-0.4,1.1-1.2S7,9.6,6.3,9.6c-0.8,0-1.1,0.4-1.1,1.1C5.2,11.5,5.6,11.9,6.3,11.9z"/>
			<polygon class="st1" points="18.1,0 13.2,0.9 12.5,2.4 17.4,1.5 			"/>
			<path class="st1" d="M14.1,6.7c0.4,0,0.7-0.1,1-0.3c0.3,0.2,0.6,0.3,1,0.3c0.5,0,0.8-0.1,1.1-0.4c0.3-0.3,0.4-0.6,0.4-1.1V3.3
				l-0.1,0.1c-0.6,0.3-1,1-1,1.7v0.1c0,0.3-0.2,0.5-0.5,0.5c-0.3,0-0.5-0.1-0.5-0.4V3.6L15,3.9c-0.4,0.2-0.6,0.6-0.6,1.1v0.3
				c0,0.3-0.2,0.4-0.5,0.4s-0.5-0.2-0.5-0.5V3.9L13,4.2c-0.3,0.2-0.5,0.5-0.5,0.9v0.1c0,0.4,0.1,0.8,0.4,1.1
				C13.2,6.5,13.6,6.7,14.1,6.7z"/>
			<path class="st1" d="M39.4,16.9c-0.8,0.4-1.2,1.2-1.2,2.1v1.8c0,1.5-0.8,2.3-2.3,2.3h-0.3c-1.5,0-2.2-0.8-2.2-2.3v-3.3
				c0-0.1-0.1-0.1-0.2-0.1l-0.6,0.3c-0.8,0.4-1.2,1.2-1.2,2.1v1.1c0,1.5-0.8,2.3-2.3,2.3h-0.3c-1.5,0-2.3-0.8-2.3-2.3v-2.6
				c0-0.1-0.1-0.1-0.2-0.1l-0.7,0.4c-0.7,0.4-1.1,1.1-1.1,1.9v0.4c0,1.5-0.7,2.3-2.2,2.3h-0.2h-0.3h-0.6H20h-1.1h-0.2h-0.1
				c-0.8,0-1.4-0.2-1.7-0.6c-0.3-0.4-0.5-1-0.5-1.9v-12c0-0.1-0.1-0.1-0.1-0.1L15.6,9c-0.7,0.4-1.2,1.1-1.2,1.9v9.8
				c0,1.7-0.8,2.5-2.4,2.5h-1.2h-0.1c-1.5,0-2.2-0.8-2.2-2.3v-7.2c0-0.1-0.1-0.1-0.1-0.1l-1,0.5c-0.5,0.3-0.9,0.8-0.9,1.4l0,0
				C5.8,15,5,14.8,4.2,14.8c-1.1,0-2,0.4-2.8,1.2C0.5,16.9,0,18.1,0,19.6c0,1.2,0.3,2.3,1,3.2c0.8,1,1.9,1.5,3.2,1.5
				c1,0,1.9-0.3,2.7-1c0,0,0.1,0,0.2,0c0.7,1.1,1.8,1.7,3.4,1.7h0.4h1.4l0,0l0,0c1.3,0,2.3-0.4,3.1-1.2h0.1c0.7,0.8,1.7,1.2,3,1.2
				h0.4h0.2H20h1.2h0.6h0.3h0.4c1.3,0,2.3-0.4,2.9-1.3c0-0.1,0.1-0.1,0.2,0c0.7,0.8,1.7,1.3,2.9,1.3h0.8c1.3,0,2.2-0.4,2.9-1.3
				c0-0.1,0.1-0.1,0.2,0c0.7,0.8,1.6,1.3,2.9,1.3h0.8c1.2,0,2.1-0.4,2.8-1c0.8-0.7,1.2-1.8,1.2-3.1v-4.2c0-0.1-0.1-0.1-0.2-0.1
				L39.4,16.9z M5.9,22c-1.3,1-3.3,0.3-3.8-1.3C2,20.4,2,20,2,19.6c0-0.9,0.2-1.6,0.6-2.1s1-0.8,1.7-0.8c0.8,0,1.5,0.3,2.1,0.9
				c0,0,0,0,0,0.1v3.2c0,0.1,0,0.3,0,0.6v0.1C6.2,21.7,6.1,21.9,5.9,22z"/>
		</g>
		<g>
			<path class="st1" d="M4.1,34.7c-0.5-0.3-1-0.4-1.6-0.4c-0.3,0-0.6,0.1-0.8,0.2c-0.2,0.1-0.3,0.3-0.3,0.6s0.1,0.5,0.3,0.6
				s0.5,0.3,1,0.4c0.7,0.2,1.2,0.4,1.5,0.7c0.4,0.3,0.6,0.8,0.6,1.4c0,0.6-0.2,1-0.6,1.4s-1,0.5-1.7,0.5c-0.9,0-1.7-0.3-2.4-0.8
				l0.4-0.7c0.5,0.3,1.1,0.5,1.8,0.5c0.9,0,1.3-0.3,1.3-1c0-0.3-0.1-0.5-0.3-0.6s-0.5-0.3-1.1-0.4c-1.4-0.3-2.1-1-2.1-2
				c0-0.5,0.2-0.9,0.6-1.3c0.4-0.3,0.9-0.5,1.6-0.5c0.8,0,1.5,0.2,2.1,0.7L4.1,34.7z"/>
			<path class="st1" d="M11.6,40h-1l-0.1-0.7c-0.5,0.6-1.2,0.8-2.1,0.8c-0.7,0-1.2-0.2-1.6-0.5c-0.4-0.4-0.6-0.9-0.6-1.5
				c0-0.7,0.3-1.3,0.9-1.6c0.6-0.4,1.4-0.6,2.5-0.6h0.8v-0.1c0-1-0.5-1.5-1.5-1.5c-0.6,0-1.2,0.2-1.8,0.6l-0.4-0.7
				c0.7-0.6,1.6-1,2.5-1c1.5,0,2.3,0.9,2.3,2.7L11.6,40L11.6,40z M10.3,36.7H9.7c-1.5,0-2.2,0.4-2.2,1.3c0,0.4,0.1,0.6,0.3,0.9
				c0.2,0.2,0.6,0.3,1,0.3c0.3,0,0.6-0.1,0.9-0.3c0.3-0.2,0.6-0.4,0.7-0.7L10.3,36.7L10.3,36.7z"/>
			<path class="st1" d="M14.9,30.8V40h-1.2v-7.1C13.7,32,14.2,31.2,14.9,30.8L14.9,30.8z"/>
			<path class="st1" d="M22.1,40h-1L21,39.3c-0.5,0.6-1.2,0.8-2.1,0.8c-0.7,0-1.2-0.2-1.6-0.5c-0.4-0.4-0.6-0.9-0.6-1.5
				c0-0.7,0.3-1.3,0.9-1.6c0.6-0.4,1.4-0.6,2.5-0.6h0.8v-0.1c0-1-0.5-1.5-1.5-1.5c-0.6,0-1.2,0.2-1.8,0.6l-0.4-0.7
				c0.7-0.6,1.6-1,2.5-1c1.5,0,2.3,0.9,2.3,2.7V40H22.1z M20.8,36.7h-0.6c-1.5,0-2.2,0.4-2.2,1.3c0,0.4,0.1,0.6,0.3,0.9
				c0.2,0.2,0.5,0.3,0.9,0.3s0.7-0.1,1-0.3s0.5-0.4,0.6-0.7C20.8,38.2,20.8,36.7,20.8,36.7z"/>
			<path class="st1" d="M24.4,39.3L24.4,39.3c0-0.5,0.3-0.7,0.8-0.7s0.8,0.2,0.8,0.7s-0.3,0.8-0.8,0.8
				C24.6,40.1,24.4,39.8,24.4,39.3z"/>
			<path class="st1" d="M31.8,34.7c-0.5-0.3-1-0.4-1.6-0.4c-0.3,0-0.6,0.1-0.8,0.2c-0.2,0.1-0.3,0.3-0.3,0.6s0.1,0.5,0.3,0.6
				c0.2,0.1,0.5,0.3,1,0.4c0.7,0.2,1.2,0.4,1.5,0.7c0.4,0.3,0.6,0.8,0.6,1.4c0,0.6-0.2,1-0.6,1.4s-1,0.5-1.7,0.5
				c-0.9,0-1.7-0.3-2.4-0.8l0.4-0.7c0.5,0.3,1.1,0.5,1.8,0.5c0.9,0,1.3-0.3,1.3-1c0-0.3-0.1-0.5-0.3-0.6c-0.2-0.1-0.5-0.3-1.1-0.4
				c-1.4-0.3-2.1-1-2.1-2c0-0.5,0.2-0.9,0.6-1.3c0.4-0.3,0.9-0.5,1.6-0.5c0.8,0,1.5,0.2,2.1,0.7L31.8,34.7z"/>
			<path class="st1" d="M39,40l-0.2-0.7c-0.4,0.6-1.1,0.9-1.9,0.9c-1,0-1.7-0.4-2.3-1.1c-0.5-0.6-0.7-1.3-0.7-2.2
				c0-1.2,0.3-2.1,1-2.7c0.6-0.5,1.2-0.8,2-0.8c0.7,0,1.3,0.2,1.8,0.7V33c0-0.9,0.5-1.7,1.2-2.1l0,0V39C39.9,39.6,39.5,40,39,40
				L39,40z M38.7,38v-2.6c-0.1-0.3-0.3-0.6-0.6-0.8c-0.4-0.3-0.8-0.4-1.2-0.3c-0.5,0.1-0.9,0.3-1.2,0.7s-0.5,1-0.5,1.7
				c0,0.8,0.2,1.5,0.6,1.9c0.3,0.4,0.8,0.6,1.3,0.6c0.4,0,0.7-0.1,1-0.4C38.4,38.6,38.6,38.3,38.7,38z"/>
		</g>
	</g>
</g>
</svg>
